<svg width="89" height="89" viewBox="0 0 89 89" fill="none" xmlns="http://www.w3.org/2000/svg">
<g id="Group 1171276528">
<path id="Vector" d="M35.2924 52.1482C29.7942 49.0578 26.0667 43.1741 26.0667 36.4315C26.0667 26.4894 34.1553 18.4023 44.0958 18.4023C54.0362 18.4023 62.1235 26.4894 62.1235 36.4315C62.1235 43.1741 58.3975 49.0542 52.9029 52.1465C63.9221 55.2406 72.5248 64.0264 75.3022 75.3466C83.2045 67.3862 88.092 56.4373 88.092 44.3673C88.092 20.0972 68.3625 0.367676 44.0924 0.367676C19.8397 0.367676 0.0927734 20.0972 0.0927734 44.3673C0.0927734 56.4356 4.98379 67.3844 12.886 75.3431C15.6722 64.0299 24.2766 55.2458 35.2924 52.1482Z" fill="#9E9D9D"/>
<path id="Vector_2" d="M44.17 50.937C52.134 50.8947 58.6037 44.4056 58.6037 36.4312C58.6037 28.432 52.0953 21.9219 44.0961 21.9219C36.0953 21.9219 29.5869 28.432 29.5869 36.4312C29.5869 44.4091 36.0583 50.9 44.0293 50.937C44.0521 50.937 44.0767 50.9335 44.1033 50.9335C44.1242 50.9335 44.1471 50.937 44.17 50.937Z" fill="#9E9D9D"/>
<path id="Vector_3" d="M15.8849 78.0962C23.5268 84.4989 33.3669 88.3674 44.0922 88.3674C54.8229 88.3674 64.6611 84.5008 72.303 78.098C69.9217 64.4932 58.216 54.4895 44.1696 54.4561C44.1432 54.4561 44.1204 54.4596 44.0957 54.4596C44.0728 54.4596 44.0517 54.4561 44.0288 54.4561C29.9859 54.493 18.2767 64.4968 15.8849 78.0962Z" fill="#9E9D9D"/>
</g>
</svg>
