<svg width="18" height="21" viewBox="0 0 18 21" fill="none" xmlns="http://www.w3.org/2000/svg">
<g id="Delete">
<path id="Vector" d="M3.05652 19.0038L1.91724 4.14111H15.6339L14.4946 19.0037C14.4946 19.0038 14.4946 19.0038 14.4946 19.0039C14.4679 19.3504 14.1785 19.6178 13.8323 19.6178H3.71998C3.37235 19.6178 3.08317 19.35 3.05653 19.0039C3.05653 19.0038 3.05653 19.0038 3.05652 19.0038Z" stroke="#FF5858" stroke-width="1.5"/>
<g id="Vector_2">
<mask id="path-2-inside-1_1148_6359" fill="white">
<path d="M6.94628 6.22119C7.33691 6.22119 7.65331 6.53759 7.65331 6.92822V16.4165C7.65331 16.8071 7.33691 17.1235 6.94628 17.1235C6.55566 17.1235 6.23828 16.8071 6.23828 16.4165V6.92822C6.23828 6.53759 6.55566 6.22119 6.94628 6.22119Z"/>
<path d="M10.6043 6.22119C10.995 6.22119 11.3123 6.53759 11.3123 6.92822V16.4165C11.3123 16.8071 10.995 17.1235 10.6043 17.1235C10.2137 17.1235 9.89731 16.8071 9.89731 16.4165V6.92822C9.89731 6.53759 10.2137 6.22119 10.6043 6.22119Z"/>
</mask>
<path d="M9.15331 6.92822C9.15331 5.70917 8.16534 4.72119 6.94628 4.72119V7.72119C6.50848 7.72119 6.15331 7.36602 6.15331 6.92822H9.15331ZM6.94628 4.72119C5.72992 4.72119 4.73828 5.70648 4.73828 6.92822H7.73828C7.73828 7.36871 7.38139 7.72119 6.94628 7.72119V4.72119ZM4.73828 6.92822V16.4165H7.73828V6.92822H4.73828ZM4.73828 16.4165C4.73828 17.6383 5.72992 18.6235 6.94628 18.6235V15.6235C7.38139 15.6235 7.73828 15.976 7.73828 16.4165H4.73828ZM6.94628 18.6235C8.16534 18.6235 9.15331 17.6356 9.15331 16.4165H6.15331C6.15331 15.9787 6.50849 15.6235 6.94628 15.6235V18.6235ZM9.15331 16.4165V6.92822H6.15331V16.4165H9.15331ZM12.8123 6.92822C12.8123 5.70648 11.8207 4.72119 10.6043 4.72119V7.72119C10.1692 7.72119 9.81234 7.36871 9.81234 6.92822H12.8123ZM10.6043 4.72119C9.38528 4.72119 8.39731 5.70917 8.39731 6.92822H11.3973C11.3973 7.36602 11.0421 7.72119 10.6043 7.72119V4.72119ZM8.39731 6.92822V16.4165H11.3973V6.92822H8.39731ZM8.39731 16.4165C8.39731 17.6356 9.38529 18.6235 10.6043 18.6235V15.6235C11.0421 15.6235 11.3973 15.9787 11.3973 16.4165H8.39731ZM10.6043 18.6235C11.8207 18.6235 12.8123 17.6383 12.8123 16.4165H9.81234C9.81234 15.976 10.1692 15.6235 10.6043 15.6235V18.6235ZM12.8123 16.4165V6.92822H9.81234V16.4165H12.8123Z" fill="#FF5858" mask="url(#path-2-inside-1_1148_6359)"/>
</g>
<path id="Vector_3" fill-rule="evenodd" clip-rule="evenodd" d="M5.73355 0.367676H11.8878V1.90576H17.5284V2.93214H0.0927734V1.90576H5.7333L5.73355 0.367676ZM6.75993 1.90576H10.8625V1.39306H6.75993V1.90576Z" fill="#FF5858"/>
</g>
</svg>
