<svg width="70" height="71" viewBox="0 0 70 71" fill="none" xmlns="http://www.w3.org/2000/svg">
<mask id="mask0_557_1434" style="mask-type:alpha" maskUnits="userSpaceOnUse" x="0" y="0" width="70" height="71">
<circle cx="35" cy="35.3975" r="35" fill="url(#paint0_linear_557_1434)"/>
</mask>
<g mask="url(#mask0_557_1434)">
<mask id="mask1_557_1434" style="mask-type:alpha" maskUnits="userSpaceOnUse" x="1" y="5" width="73" height="71">
<path d="M37.2157 75.599C57.0776 75.599 73.1789 59.8964 73.1789 40.5263C73.1789 21.1562 57.0776 5.45361 37.2157 5.45361C17.3537 5.45361 1.25244 21.1562 1.25244 40.5263C1.25244 59.8964 17.3537 75.599 37.2157 75.599Z" fill="white"/>
</mask>
<g mask="url(#mask1_557_1434)">
<path d="M57.8346 25.5615H16.5968C15.2726 25.5615 14.1992 26.6084 14.1992 27.8997V77.0015C14.1992 78.2929 15.2726 79.3397 16.5968 79.3397H57.8346C59.1587 79.3397 60.2322 78.2929 60.2322 77.0015V27.8997C60.2322 26.6084 59.1587 25.5615 57.8346 25.5615Z" fill="white"/>
</g>
<path d="M53.1902 34.9502H21.5426C20.4832 34.9502 19.6245 35.7877 19.6245 36.8207V41.4971C19.6245 42.5302 20.4832 43.3677 21.5426 43.3677H53.1902C54.2495 43.3677 55.1082 42.5302 55.1082 41.4971V36.8207C55.1082 35.7877 54.2495 34.9502 53.1902 34.9502Z" stroke="#2E813E" stroke-width="0.715686"/>
<path d="M21.3975 48.6902H53.0452C54.2748 48.6902 55.2638 49.6611 55.2638 50.8494V54.5905C55.2638 55.7788 54.2748 56.7498 53.0452 56.7498H21.3975C20.168 56.7498 19.1789 55.7788 19.1789 54.5905V50.8494C19.1789 49.6611 20.168 48.6902 21.3975 48.6902Z" stroke="#54585A" stroke-width="0.357843"/>
<path d="M24.7486 44.3033C26.0728 44.3033 27.1462 43.2565 27.1462 41.9651C27.1462 40.6738 26.0728 39.627 24.7486 39.627C23.4245 39.627 22.3511 40.6738 22.3511 41.9651C22.3511 43.2565 23.4245 44.3033 24.7486 44.3033Z" fill="#F7F7F5"/>
<path d="M26.6221 51.9587C26.2385 51.9587 25.8803 51.9587 25.5543 51.9386C25.1526 51.9121 24.7663 51.778 24.4377 51.5512C24.1091 51.3244 23.851 51.0136 23.6918 50.653L21.6688 46.7539C21.5204 46.5854 21.4463 46.3665 21.4627 46.145C21.479 45.9235 21.5845 45.7173 21.7561 45.5712C21.8966 45.461 22.072 45.4017 22.2524 45.4033C22.3851 45.4071 22.5155 45.4389 22.6345 45.4966C22.7534 45.5542 22.8581 45.6363 22.9414 45.7372L23.8602 46.9601L23.8741 46.976V42.33C23.8741 42.0995 23.968 41.8785 24.1351 41.7155C24.3022 41.5525 24.5289 41.4609 24.7652 41.4609C25.0016 41.4609 25.2283 41.5525 25.3954 41.7155C25.5625 41.8785 25.6564 42.0995 25.6564 42.33V45.3697C25.646 45.2578 25.6597 45.1451 25.6965 45.0387C25.7333 44.9323 25.7924 44.8345 25.8701 44.7516C25.9478 44.6687 26.0423 44.6025 26.1477 44.5572C26.2531 44.5119 26.367 44.4885 26.4821 44.4885C26.5973 44.4885 26.7112 44.5119 26.8165 44.5572C26.9219 44.6025 27.0165 44.6687 27.0941 44.7516C27.1718 44.8345 27.2309 44.9323 27.2677 45.0387C27.3045 45.1451 27.3182 45.2578 27.3078 45.3697V46.0033C27.2975 45.8915 27.3111 45.7787 27.3479 45.6723C27.3847 45.5659 27.4438 45.4681 27.5215 45.3852C27.5992 45.3023 27.6937 45.2361 27.7991 45.1908C27.9045 45.1455 28.0184 45.1221 28.1335 45.1221C28.2487 45.1221 28.3626 45.1455 28.468 45.1908C28.5733 45.2361 28.6679 45.3023 28.7456 45.3852C28.8233 45.4681 28.8824 45.5659 28.9192 45.6723C28.956 45.7787 28.9696 45.8915 28.9593 46.0033V46.4915C28.9489 46.3797 28.9626 46.267 28.9994 46.1605C29.0362 46.0541 29.0953 45.9563 29.173 45.8734C29.2506 45.7905 29.3452 45.7243 29.4506 45.679C29.5559 45.6337 29.6698 45.6103 29.785 45.6103C29.9001 45.6103 30.014 45.6337 30.1194 45.679C30.2248 45.7243 30.3193 45.7905 30.397 45.8734C30.4747 45.9563 30.5338 46.0541 30.5706 46.1605C30.6074 46.267 30.621 46.3797 30.6107 46.4915V49.455C30.5944 50.3664 30.1719 51.903 28.6859 51.903C28.5781 51.9077 27.6641 51.9591 26.6241 51.9591L26.6221 51.9587Z" fill="#2E813E" stroke="white" stroke-width="0.357843"/>
</g>
<defs>
<linearGradient id="paint0_linear_557_1434" x1="31.9088" y1="70.3975" x2="31.9088" y2="-24.8716" gradientUnits="userSpaceOnUse">
<stop stop-color="#137417"/>
<stop offset="1" stop-color="#EBF4EC"/>
</linearGradient>
</defs>
</svg>
