<svg width="73" height="72" viewBox="0 0 73 72" fill="none" xmlns="http://www.w3.org/2000/svg">
<mask id="mask0_557_1535" style="mask-type:alpha" maskUnits="userSpaceOnUse" x="0" y="0" width="73" height="72">
<ellipse cx="36.5" cy="35.9936" rx="36.5" ry="35.5962" fill="url(#paint0_linear_557_1535)"/>
</mask>
<g mask="url(#mask0_557_1535)">
<ellipse cx="35" cy="34.5308" rx="35" ry="34.1333" fill="#FBFCFD"/>
<g filter="url(#filter0_d_557_1535)">
<path d="M17.3951 28.0337H59.5724C59.9867 28.0337 60.384 28.1942 60.677 28.4799C60.9699 28.7656 61.1345 29.1531 61.1345 29.5571V37.1743C61.1345 37.5784 60.9699 37.9659 60.677 38.2516C60.384 38.5373 59.9867 38.6978 59.5724 38.6978H17.3951C16.9808 38.6978 16.5835 38.5373 16.2905 38.2516C15.9976 37.9659 15.833 37.5784 15.833 37.1743V29.5571C15.833 29.1531 15.9976 28.7656 16.2905 28.4799C16.5835 28.1942 16.9808 28.0337 17.3951 28.0337V28.0337Z" fill="white"/>
</g>
<path d="M37.3904 30.4717H29.2674C28.7497 30.4717 28.3301 30.8809 28.3301 31.3857C28.3301 31.8906 28.7497 32.2998 29.2674 32.2998H37.3904C37.908 32.2998 38.3277 31.8906 38.3277 31.3857C38.3277 30.8809 37.908 30.4717 37.3904 30.4717Z" fill="#F7F7F5"/>
<path d="M43.014 34.4326H29.2674C28.7497 34.4326 28.3301 34.8419 28.3301 35.3467C28.3301 35.8515 28.7497 36.2607 29.2674 36.2607H43.014C43.5317 36.2607 43.9513 35.8515 43.9513 35.3467C43.9513 34.8419 43.5317 34.4326 43.014 34.4326Z" fill="#F7F7F5"/>
<path d="M25.8308 33.3662C25.8308 30.9262 23.8026 28.9482 21.3007 28.9482C18.7987 28.9482 16.7705 30.9262 16.7705 33.3662C16.7705 35.8062 18.7987 37.7842 21.3007 37.7842C23.8026 37.7842 25.8308 35.8062 25.8308 33.3662Z" fill="#2E813E"/>
<path d="M20.19 32.2438H22.3069V31.7389C22.3069 31.5285 22.2332 31.3496 22.086 31.2024C21.9387 31.0551 21.7599 30.9815 21.5495 30.9815C21.3391 30.9815 21.1603 31.0551 21.013 31.2024C20.8657 31.3496 20.7921 31.5285 20.7921 31.7389H20.5396C20.5396 31.4576 20.6376 31.219 20.8335 31.0229C21.0294 30.8268 21.2681 30.7288 21.5495 30.729C21.8309 30.7292 22.0696 30.8271 22.2655 31.0229C22.4614 31.2186 22.5593 31.4573 22.5593 31.7389V32.2438H22.909C23.0211 32.2438 23.117 32.2838 23.1968 32.3637C23.2767 32.4435 23.3167 32.5394 23.3167 32.6515V34.8656C23.3167 34.9777 23.2767 35.0737 23.1968 35.1534C23.117 35.2334 23.0211 35.2734 22.909 35.2734H20.19C20.0779 35.2734 19.9819 35.2334 19.9021 35.1534C19.8222 35.0737 19.7822 34.9777 19.7822 34.8656V32.6515C19.7822 32.5394 19.8222 32.4435 19.9021 32.3637C19.9819 32.2838 20.0779 32.2438 20.19 32.2438ZM21.5495 34.1373C21.656 34.1373 21.7457 34.1007 21.8186 34.0277C21.8915 33.9547 21.928 33.8649 21.9282 33.7586C21.9283 33.6522 21.8918 33.5625 21.8186 33.4894C21.7454 33.4164 21.6557 33.3799 21.5495 33.3799C21.4433 33.3799 21.3536 33.4164 21.2803 33.4894C21.2071 33.5625 21.1706 33.6522 21.1708 33.7586C21.1709 33.8649 21.2075 33.9547 21.2803 34.0277C21.3532 34.1007 21.4429 34.1373 21.5495 34.1373Z" fill="#F2F2F2"/>
<path d="M19.8843 48.4018H22.5946V47.7553C22.5946 47.486 22.5004 47.257 22.3118 47.0685C22.1232 46.8799 21.8943 46.7856 21.6249 46.7856C21.3556 46.7856 21.1266 46.8799 20.9381 47.0685C20.7495 47.257 20.6552 47.486 20.6552 47.7553H20.332C20.332 47.3953 20.4574 47.0897 20.7082 46.8386C20.9591 46.5876 21.2646 46.4622 21.6249 46.4624C21.9852 46.4626 22.2908 46.588 22.5416 46.8386C22.7924 47.0893 22.9179 47.3948 22.9179 47.7553V48.4018H23.3655C23.5091 48.4018 23.6319 48.453 23.734 48.5553C23.8364 48.6575 23.8876 48.7803 23.8876 48.9238V51.7586C23.8876 51.9021 23.8364 52.0249 23.734 52.127C23.6319 52.2294 23.5091 52.2806 23.3655 52.2806H19.8843C19.7408 52.2806 19.618 52.2294 19.5158 52.127C19.4135 52.0249 19.3623 51.9021 19.3623 51.7586V48.9238C19.3623 48.7803 19.4135 48.6575 19.5158 48.5553C19.618 48.453 19.7408 48.4018 19.8843 48.4018ZM21.6249 50.826C21.7613 50.826 21.8762 50.7793 21.9695 50.6858C22.0628 50.5922 22.1096 50.4774 22.1098 50.3412C22.11 50.205 22.0632 50.0901 21.9695 49.9966C21.8758 49.9031 21.7609 49.8563 21.6249 49.8563C21.489 49.8563 21.3741 49.9031 21.2804 49.9966C21.1866 50.0901 21.1399 50.205 21.1401 50.3412C21.1403 50.4774 21.1871 50.5922 21.2804 50.6858C21.3737 50.7793 21.4885 50.826 21.6249 50.826Z" fill="#F2F2F2"/>
<g filter="url(#filter1_d_557_1535)">
<path d="M54.8859 41.7446H12.7086C11.8459 41.7446 11.1465 42.4267 11.1465 43.2681V50.8853C11.1465 51.7266 11.8459 52.4087 12.7086 52.4087H54.8859C55.7486 52.4087 56.448 51.7266 56.448 50.8853V43.2681C56.448 42.4267 55.7486 41.7446 54.8859 41.7446Z" fill="white"/>
</g>
<path d="M32.7039 44.1826H24.5808C24.0632 44.1826 23.6436 44.5919 23.6436 45.0967C23.6436 45.6015 24.0632 46.0107 24.5808 46.0107H32.7039C33.2215 46.0107 33.6411 45.6015 33.6411 45.0967C33.6411 44.5919 33.2215 44.1826 32.7039 44.1826Z" fill="#F7F7F5"/>
<path d="M38.3275 48.1436H24.5808C24.0632 48.1436 23.6436 48.5528 23.6436 49.0576C23.6436 49.5624 24.0632 49.9717 24.5808 49.9717H38.3275C38.8451 49.9717 39.2648 49.5624 39.2648 49.0576C39.2648 48.5528 38.8451 48.1436 38.3275 48.1436Z" fill="#F7F7F5"/>
<path d="M21.1443 47.0772C21.1443 44.6372 19.1161 42.6592 16.6141 42.6592C14.1122 42.6592 12.084 44.6372 12.084 47.0772C12.084 49.5171 14.1122 51.4951 16.6141 51.4951C19.1161 51.4951 21.1443 49.5171 21.1443 47.0772Z" fill="#2E813E"/>
<path d="M15.19 46.2438H17.3069V45.7389C17.3069 45.5285 17.2332 45.3496 17.086 45.2024C16.9387 45.0551 16.7599 44.9815 16.5495 44.9815C16.3391 44.9815 16.1603 45.0551 16.013 45.2024C15.8657 45.3496 15.7921 45.5285 15.7921 45.7389H15.5396C15.5396 45.4576 15.6376 45.219 15.8335 45.0229C16.0294 44.8268 16.2681 44.7288 16.5495 44.729C16.8309 44.7292 17.0696 44.8271 17.2655 45.0229C17.4614 45.2186 17.5593 45.4573 17.5593 45.7389V46.2438H17.909C18.0211 46.2438 18.117 46.2838 18.1968 46.3637C18.2767 46.4435 18.3167 46.5394 18.3167 46.6515V48.8656C18.3167 48.9777 18.2767 49.0737 18.1968 49.1534C18.117 49.2334 18.0211 49.2734 17.909 49.2734H15.19C15.0779 49.2734 14.9819 49.2334 14.9021 49.1534C14.8222 49.0737 14.7822 48.9777 14.7822 48.8656V46.6515C14.7822 46.5394 14.8222 46.4435 14.9021 46.3637C14.9819 46.2838 15.0779 46.2438 15.19 46.2438ZM16.5495 48.1373C16.656 48.1373 16.7457 48.1007 16.8186 48.0277C16.8915 47.9547 16.928 47.8649 16.9282 47.7586C16.9283 47.6522 16.8918 47.5625 16.8186 47.4894C16.7454 47.4164 16.6557 47.3799 16.5495 47.3799C16.4433 47.3799 16.3536 47.4164 16.2803 47.4894C16.2071 47.5625 16.1706 47.6522 16.1708 47.7586C16.1709 47.8649 16.2075 47.9547 16.2803 48.0277C16.3532 48.1007 16.4429 48.1373 16.5495 48.1373Z" fill="#F2F2F2"/>
</g>
<defs>
<filter id="filter0_d_557_1535" x="12.3421" y="26.2882" width="52.2831" height="17.6459" filterUnits="userSpaceOnUse" color-interpolation-filters="sRGB">
<feFlood flood-opacity="0" result="BackgroundImageFix"/>
<feColorMatrix in="SourceAlpha" type="matrix" values="0 0 0 0 0 0 0 0 0 0 0 0 0 0 0 0 0 0 127 0" result="hardAlpha"/>
<feOffset dy="1.74545"/>
<feGaussianBlur stdDeviation="1.74545"/>
<feColorMatrix type="matrix" values="0 0 0 0 0 0 0 0 0 0 0 0 0 0 0 0 0 0 0.161 0"/>
<feBlend mode="normal" in2="BackgroundImageFix" result="effect1_dropShadow_557_1535"/>
<feBlend mode="normal" in="SourceGraphic" in2="effect1_dropShadow_557_1535" result="shape"/>
</filter>
<filter id="filter1_d_557_1535" x="7.65558" y="39.9992" width="52.2831" height="17.6459" filterUnits="userSpaceOnUse" color-interpolation-filters="sRGB">
<feFlood flood-opacity="0" result="BackgroundImageFix"/>
<feColorMatrix in="SourceAlpha" type="matrix" values="0 0 0 0 0 0 0 0 0 0 0 0 0 0 0 0 0 0 127 0" result="hardAlpha"/>
<feOffset dy="1.74545"/>
<feGaussianBlur stdDeviation="1.74545"/>
<feColorMatrix type="matrix" values="0 0 0 0 0 0 0 0 0 0 0 0 0 0 0 0 0 0 0.161 0"/>
<feBlend mode="normal" in2="BackgroundImageFix" result="effect1_dropShadow_557_1535"/>
<feBlend mode="normal" in="SourceGraphic" in2="effect1_dropShadow_557_1535" result="shape"/>
</filter>
<linearGradient id="paint0_linear_557_1535" x1="33.2763" y1="71.5898" x2="33.2763" y2="-25.302" gradientUnits="userSpaceOnUse">
<stop stop-color="#137417"/>
<stop offset="1" stop-color="#EBF4EC"/>
</linearGradient>
</defs>
</svg>
