<svg width="24" height="24" viewBox="0 0 24 24" fill="none" xmlns="http://www.w3.org/2000/svg">
<g clip-path="url(#clip0_1839_7775)">
<path d="M4.99982 14.8869C5.09126 14.6738 5.21928 14.5009 5.46435 14.4506C5.76794 14.3885 6.0697 14.5714 6.14195 14.8741C6.16115 14.9564 6.16663 15.0433 6.16663 15.1283C6.16846 15.9715 6.16755 16.8139 6.16755 17.6571C6.16755 17.7083 6.16755 17.7604 6.16755 17.8208H17.8312C17.8312 17.7705 17.8312 17.7202 17.8312 17.6699C17.8312 16.8175 17.8303 15.9651 17.833 15.1128C17.833 15.0186 17.8421 14.9207 17.8696 14.8311C17.9464 14.5787 18.2125 14.4086 18.4658 14.4378C18.7493 14.4698 18.9623 14.6775 18.9952 14.9536C19.0007 15.0012 18.9998 15.0488 18.9998 15.0963C18.9998 16.1773 18.9998 17.2583 18.9998 18.3393C18.9998 18.76 18.7657 18.9978 18.3469 18.9978C14.114 18.9978 9.88107 18.9978 5.64815 18.9996C5.31987 18.9996 5.11595 18.8378 4.9989 18.5442V14.8869H4.99982Z" fill="#242424"/>
<path d="M12.1141 5C12.2586 5.10426 12.4241 5.1884 12.543 5.31552C13.6083 6.45048 14.6654 7.59459 15.7271 8.73413C15.867 8.88411 15.9557 9.04965 15.9273 9.26091C15.8953 9.49412 15.7655 9.65691 15.5469 9.73648C15.3275 9.81604 15.1208 9.77306 14.9525 9.60935C14.7989 9.46028 14.6572 9.29932 14.5109 9.14293C13.911 8.49817 13.3111 7.8525 12.7113 7.20682C12.6793 7.17207 12.6509 7.13457 12.6207 7.0989C12.6079 7.10256 12.5951 7.10713 12.5814 7.11079V7.26901C12.5814 9.68343 12.5814 12.0979 12.5814 14.5123C12.5814 14.6074 12.5832 14.7053 12.5613 14.7958C12.4982 15.0692 12.2376 15.2485 11.9514 15.2284C11.6706 15.2083 11.4484 14.9851 11.4247 14.6998C11.4192 14.6284 11.4192 14.5571 11.4192 14.4858C11.4192 12.0805 11.4192 9.67612 11.4192 7.27084C11.4192 7.21962 11.4192 7.16841 11.4192 7.11719C11.4036 7.1053 11.3881 7.09342 11.3725 7.08061C11.3451 7.12177 11.3232 7.16841 11.2902 7.20408C10.5715 7.97962 9.85091 8.75242 9.13217 9.52796C8.95751 9.71636 8.75816 9.8197 8.49664 9.74745C8.10709 9.63953 7.9434 9.18409 8.17567 8.85485C8.21133 8.80455 8.25431 8.75882 8.29637 8.71401C9.3434 7.58727 10.3913 6.46054 11.4356 5.33198C11.5655 5.19114 11.699 5.06219 11.8855 5C11.9614 5 12.0382 5 12.1141 5Z" fill="#242424"/>
</g>
<defs>
<clipPath id="clip0_1839_7775">
<rect width="14" height="14" fill="white" transform="translate(4.99976 5)"/>
</clipPath>
</defs>
</svg>
