<svg width="74" height="72" viewBox="0 0 74 72" fill="none" xmlns="http://www.w3.org/2000/svg">
<mask id="mask0_557_1455" style="mask-type:alpha" maskUnits="userSpaceOnUse" x="0" y="0" width="74" height="72">
<ellipse cx="36.6387" cy="35.9936" rx="36.5" ry="35.5962" fill="url(#paint0_linear_557_1455)"/>
</mask>
<g mask="url(#mask0_557_1455)">
<mask id="mask1_557_1455" style="mask-type:alpha" maskUnits="userSpaceOnUse" x="1" y="1" width="73" height="71">
<path d="M37.1019 71.2406C56.9639 71.2406 73.0651 55.538 73.0651 36.1679C73.0651 16.7978 56.9639 1.09521 37.1019 1.09521C17.24 1.09521 1.13867 16.7978 1.13867 36.1679C1.13867 55.538 17.24 71.2406 37.1019 71.2406Z" fill="#FBFCFD"/>
</mask>
<g mask="url(#mask1_557_1455)">
<path d="M35.1387 69.3619C54.4686 69.3619 70.1387 54.0799 70.1387 35.2286C70.1387 16.3772 54.4686 1.09521 35.1387 1.09521C15.8087 1.09521 0.138672 16.3772 0.138672 35.2286C0.138672 54.0799 15.8087 69.3619 35.1387 69.3619Z" fill="#FBFCFD"/>
<path d="M58.944 71.5893H15.1387V25.546C17.2034 25.5437 19.1828 24.7428 20.6428 23.319C22.1027 21.8952 22.924 19.9647 22.9263 17.9512H51.1564C51.1542 18.9486 51.3549 19.9366 51.7468 20.858C52.1387 21.7793 52.7141 22.6157 53.4396 23.3188C54.1605 24.0266 55.0182 24.5879 55.963 24.9702C56.9078 25.3525 57.9211 25.5482 58.944 25.546V71.5893Z" fill="white"/>
<path d="M48.2232 37.4127C48.2232 43.4165 43.229 48.3048 37.0418 48.3048C30.8545 48.3048 25.8604 43.4165 25.8604 37.4127C25.8604 31.4088 30.8545 26.5205 37.0418 26.5205C43.229 26.5205 48.2232 31.4088 48.2232 37.4127Z" stroke="#2E813E"/>
<path d="M35.2159 39.8002L32.6789 37.2632L31.8149 38.121L35.2159 41.522L42.5168 34.2211L41.659 33.3633L35.2159 39.8002Z" fill="#2E813E"/>
<path d="M43.3689 51.6528H30.7141C29.9076 51.6528 29.2539 52.2904 29.2539 53.0769C29.2539 53.8633 29.9076 54.5009 30.7141 54.5009H43.3689C44.1754 54.5009 44.8291 53.8633 44.8291 53.0769C44.8291 52.2904 44.1754 51.6528 43.3689 51.6528Z" fill="#F7F7F5"/>
<path d="M47.7492 57.3491H26.3332C25.5268 57.3491 24.873 57.9867 24.873 58.7731C24.873 59.5596 25.5268 60.1972 26.3332 60.1972H47.7492C48.5556 60.1972 49.2093 59.5596 49.2093 58.7731C49.2093 57.9867 48.5556 57.3491 47.7492 57.3491Z" fill="#F7F7F5"/>
</g>
</g>
<defs>
<linearGradient id="paint0_linear_557_1455" x1="33.4149" y1="71.5898" x2="33.415" y2="-25.302" gradientUnits="userSpaceOnUse">
<stop stop-color="#137417"/>
<stop offset="1" stop-color="#EBF4EC"/>
</linearGradient>
</defs>
</svg>
