<svg width="24" height="22" viewBox="0 0 24 22" fill="none" xmlns="http://www.w3.org/2000/svg">
<path d="M11.9681 14.0634C12.7803 14.0634 13.5592 13.7407 14.1336 13.1664C14.7079 12.5921 15.0306 11.8131 15.0306 11.0009C15.0306 10.9112 15.0265 10.8223 15.0188 10.7346L11.7017 14.0516C11.7895 14.0593 11.8781 14.0634 11.9681 14.0634ZM22.1049 1.52793L20.9368 0.360895C20.8958 0.319902 20.8402 0.296875 20.7822 0.296875C20.7242 0.296875 20.6686 0.319902 20.6275 0.360895L17.6383 3.35093C15.9893 2.5082 14.1357 2.08683 12.0774 2.08683C6.82196 2.08683 2.90087 4.82394 0.314147 10.2982C0.210174 10.5183 0.15625 10.7588 0.15625 11.0023C0.15625 11.2457 0.210174 11.4862 0.314147 11.7064C1.34774 13.8835 2.59234 15.6285 4.04794 16.9413L1.15524 19.8329C1.11425 19.8739 1.09122 19.9296 1.09122 19.9876C1.09122 20.0455 1.11425 20.1012 1.15524 20.1422L2.32255 21.3095C2.36357 21.3505 2.41918 21.3735 2.47717 21.3735C2.53517 21.3735 2.59078 21.3505 2.6318 21.3095L22.1049 1.83746C22.1253 1.81714 22.1414 1.79302 22.1524 1.76646C22.1634 1.7399 22.1691 1.71144 22.1691 1.68269C22.1691 1.65394 22.1634 1.62548 22.1524 1.59892C22.1414 1.57237 22.1253 1.54824 22.1049 1.52793ZM7.15555 11.0009C7.15548 10.1697 7.37071 9.35258 7.78027 8.62925C8.18983 7.90592 8.77977 7.301 9.49261 6.87344C10.2054 6.44587 11.0169 6.21022 11.8478 6.18946C12.6788 6.1687 13.501 6.36352 14.2343 6.75496L12.9049 8.08441C12.3687 7.91273 11.7956 7.89206 11.2485 8.02465C10.7013 8.15725 10.2013 8.43798 9.80322 8.83606C9.40514 9.23415 9.1244 9.73418 8.99181 10.2813C8.85922 10.8285 8.87989 11.4015 9.05157 11.9377L7.72212 13.2671C7.34904 12.5701 7.15439 11.7915 7.15555 11.0009Z" fill="#AEAEAE"/>
<path d="M23.8407 10.2957C22.8782 8.26862 21.7326 6.61569 20.4039 5.33691L16.4625 9.27852C16.7948 10.147 16.8684 11.0931 16.6746 12.0025C16.4807 12.9119 16.0277 13.7458 15.3702 14.4033C14.7127 15.0608 13.8788 15.5138 12.9694 15.7077C12.06 15.9015 11.1139 15.8279 10.2454 15.4957L6.90234 18.8387C8.45328 19.5564 10.1783 19.9152 12.0774 19.9152C17.3329 19.9152 21.254 17.1781 23.8407 11.7039C23.9447 11.4837 23.9986 11.2433 23.9986 10.9998C23.9986 10.7563 23.9447 10.5159 23.8407 10.2957Z" fill="#AEAEAE"/>
</svg>
