<svg width="28" height="29" viewBox="0 0 28 29" fill="none" xmlns="http://www.w3.org/2000/svg">
<path d="M12.9056 14.375C12.9056 15.1872 13.2282 15.9662 13.8025 16.5405C14.3769 17.1148 15.1558 17.4375 15.9681 17.4375C16.7803 17.4375 17.5592 17.1148 18.1336 16.5405C18.7079 15.9662 19.0306 15.1872 19.0306 14.375C19.0306 13.5628 18.7079 12.7838 18.1336 12.2095C17.5592 11.6352 16.7803 11.3125 15.9681 11.3125C15.1558 11.3125 14.3769 11.6352 13.8025 12.2095C13.2282 12.7838 12.9056 13.5628 12.9056 14.375ZM27.8407 13.6695C25.2485 8.20898 21.3302 5.46094 16.0774 5.46094C10.822 5.46094 6.90634 8.20898 4.31415 13.6723C4.21017 13.8924 4.15625 14.1329 4.15625 14.3764C4.15625 14.6198 4.21017 14.8603 4.31415 15.0805C6.90634 20.541 10.8247 23.2891 16.0774 23.2891C21.3329 23.2891 25.2485 20.541 27.8407 15.0777C28.0513 14.6348 28.0513 14.1207 27.8407 13.6695ZM15.9681 19.1875C13.3102 19.1875 11.1556 17.0328 11.1556 14.375C11.1556 11.7172 13.3102 9.5625 15.9681 9.5625C18.6259 9.5625 20.7806 11.7172 20.7806 14.375C20.7806 17.0328 18.6259 19.1875 15.9681 19.1875Z" fill="#AEAEAE"/>
</svg>
