<svg width="129" height="60" viewBox="0 0 129 60" fill="none" xmlns="http://www.w3.org/2000/svg">
<mask id="mask0_1807_613" style="mask-type:luminance" maskUnits="userSpaceOnUse" x="0" y="51" width="17" height="9">
<path d="M0.404297 51.2559H16.1489V59.5613H0.404297V51.2559Z" fill="#348D3D"/>
</mask>
<g mask="url(#mask0_1807_613)">
<path fill-rule="evenodd" clip-rule="evenodd" d="M2.47409 55.1086H3.16043C3.92037 55.1086 4.30076 54.7799 4.30076 54.1215C4.30076 53.464 3.92037 53.1352 3.16043 53.1352H2.47409V55.1086ZM2.47409 59.3908H0.404297V51.4766H3.69876C4.59266 51.4766 5.27735 51.7075 5.75284 52.1694C6.22749 52.6314 6.46564 53.2815 6.46564 54.1215C6.46564 54.9615 6.22749 55.6125 5.75284 56.0735C5.27735 56.5355 4.59266 56.7664 3.69876 56.7664H2.47409V59.3908Z" fill="#348D3D"/>
</g>
<path fill-rule="evenodd" clip-rule="evenodd" d="M9.49692 55.4337C9.49692 55.7476 9.55645 56.0386 9.67636 56.3041C9.79626 56.5704 9.95751 56.8013 10.1618 56.997C10.366 57.1934 10.6033 57.3454 10.8746 57.4539C11.1458 57.5624 11.4327 57.6167 11.7354 57.6167C12.0381 57.6167 12.325 57.5624 12.5962 57.4539C12.8666 57.3454 13.1064 57.1934 13.314 56.997C13.5216 56.8013 13.6853 56.5704 13.8052 56.3041C13.9243 56.0386 13.9846 55.7476 13.9846 55.4337C13.9846 55.1181 13.9243 54.8279 13.8052 54.5624C13.6853 54.2961 13.5216 54.0652 13.314 53.8696C13.1064 53.6739 12.8666 53.5211 12.5962 53.4126C12.325 53.3041 12.0381 53.2498 11.7354 53.2498C11.4327 53.2498 11.1458 53.3041 10.8746 53.4126C10.6033 53.5211 10.366 53.6739 10.1618 53.8696C9.95751 54.0652 9.79626 54.2961 9.67636 54.5624C9.55645 54.8279 9.49692 55.1181 9.49692 55.4337ZM7.33203 55.4337C7.33203 54.8452 7.44119 54.2978 7.65949 53.7907C7.87697 53.2835 8.18045 52.8405 8.56745 52.4624C8.95445 52.0852 9.41753 51.7893 9.95586 51.5756C10.4942 51.3627 11.0879 51.2559 11.7354 51.2559C12.3763 51.2559 12.9675 51.3627 13.5091 51.5756C14.0516 51.7893 14.518 52.0852 14.9083 52.4624C15.2994 52.8405 15.6037 53.2835 15.8221 53.7907C16.0404 54.2978 16.1495 54.8452 16.1495 55.4337C16.1495 56.0205 16.0404 56.5687 15.8221 57.0759C15.6037 57.583 15.2994 58.026 14.9083 58.4033C14.518 58.7813 14.0516 59.0772 13.5091 59.2901C12.9675 59.5038 12.3763 59.6107 11.7354 59.6107C11.0879 59.6107 10.4942 59.5038 9.95586 59.2901C9.41753 59.0772 8.95445 58.7813 8.56745 58.4033C8.18045 58.026 7.87697 57.583 7.65949 57.0759C7.44119 56.5687 7.33203 56.0205 7.33203 55.4337Z" fill="#348D3D"/>
<path fill-rule="evenodd" clip-rule="evenodd" d="M18.661 51.4766L20.0337 56.5881L21.7239 51.4766H23.3711L25.0605 56.5881L26.4332 51.4766H28.5973L26.2215 59.3908H24.1096L22.5467 54.8045L20.9838 59.3908H18.8718L16.4961 51.4766H18.661Z" fill="#348D3D"/>
<path fill-rule="evenodd" clip-rule="evenodd" d="M34.2272 53.219H31.7671V54.5415H34.0899V56.284H31.7671V57.6483H34.2272V59.3908H29.6973V51.4766H34.2272V53.219Z" fill="#348D3D"/>
<path fill-rule="evenodd" clip-rule="evenodd" d="M37.7319 55.0141H38.123C38.5315 55.0141 38.8449 54.9294 39.0632 54.7618C39.2807 54.5941 39.3899 54.3525 39.3899 54.0377C39.3899 53.7229 39.2807 53.4812 39.0632 53.3135C38.8449 53.1451 38.5315 53.0612 38.123 53.0612H37.7319V55.0141ZM42.2833 59.3908H39.7074L37.7319 56.3464V59.3908H35.6621V51.4766H38.883C39.327 51.4766 39.714 51.5415 40.0448 51.6705C40.3756 51.8004 40.6485 51.9771 40.8635 52.2007C41.0776 52.4251 41.2397 52.6831 41.3489 52.9774C41.458 53.2716 41.5126 53.5864 41.5126 53.9226C41.5126 54.5242 41.3662 55.0116 41.0743 55.3864C40.7824 55.7612 40.3508 56.0144 39.781 56.1475L42.2833 59.3908Z" fill="#348D3D"/>
<path fill-rule="evenodd" clip-rule="evenodd" d="M48.1649 51.4766L49.5376 56.5881L51.2278 51.4766H52.875L54.5644 56.5881L55.9371 51.4766H58.102L55.7263 59.3908H53.6135L52.0514 54.8045L50.4885 59.3908H48.3766L46 51.4766H48.1649Z" fill="#348D3D"/>
<path fill-rule="evenodd" clip-rule="evenodd" d="M61.2495 54.5308H64.238V51.4766H66.3078V59.3908H64.238V56.1262H61.2495V59.3908H59.1797V51.4766H61.2495V54.5308Z" fill="#348D3D"/>
<path fill-rule="evenodd" clip-rule="evenodd" d="M72.326 56.4516L71.3966 53.8174L70.4671 56.4516H72.326ZM72.8751 58.0157H69.918L69.4434 59.3908H67.2363L70.267 51.4766H72.5262L75.5577 59.3908H73.3506L72.8751 58.0157Z" fill="#348D3D"/>
<path fill-rule="evenodd" clip-rule="evenodd" d="M78.6723 53.219V59.3908H76.6025V53.219H74.9023V51.4766H80.3724V53.219H78.6723Z" fill="#348D3D"/>
<mask id="mask1_1807_613" style="mask-type:luminance" maskUnits="userSpaceOnUse" x="80" y="51" width="11" height="9">
<path d="M80.6055 51.2559H90.0349V59.5613H80.6055V51.2559Z" fill="#348D3D"/>
</mask>
<g mask="url(#mask1_1807_613)">
<path fill-rule="evenodd" clip-rule="evenodd" d="M81.9674 51.4766H83.7734L81.8301 54.9615H80.6055L81.9674 51.4766Z" fill="#348D3D"/>
</g>
<path fill-rule="evenodd" clip-rule="evenodd" d="M88.8832 53.5022C88.6582 53.3197 88.4325 53.1857 88.2076 53.0978C87.9818 53.0107 87.7643 52.9671 87.5527 52.9671C87.2856 52.9671 87.0672 53.0296 86.8977 53.1561C86.729 53.2811 86.6447 53.4463 86.6447 53.6493C86.6447 53.789 86.6869 53.9041 86.7712 53.9953C86.8564 54.0857 86.9664 54.1654 87.1036 54.2312C87.2409 54.2978 87.3955 54.3561 87.5684 54.4046C87.7412 54.4539 87.9124 54.5065 88.0811 54.5624C88.7567 54.786 89.2512 55.0852 89.5646 55.4591C89.8771 55.8339 90.0342 56.3222 90.0342 56.9238C90.0342 57.3298 89.9656 57.6972 89.8283 58.026C89.6911 58.3548 89.491 58.6367 89.2263 58.8709C88.9626 59.1052 88.6384 59.2868 88.2555 59.4167C87.871 59.5457 87.4369 59.6107 86.9507 59.6107C85.9443 59.6107 85.0115 59.3131 84.1523 58.7189L85.0396 57.0602C85.3489 57.3331 85.6557 57.5361 85.9583 57.6685C86.261 57.8016 86.5603 57.8682 86.8564 57.8682C87.1938 57.8682 87.4452 57.7909 87.6105 57.6372C87.7759 57.4835 87.8594 57.3085 87.8594 57.1128C87.8594 56.9937 87.8379 56.8909 87.7958 56.803C87.7536 56.7159 87.6833 56.6353 87.5849 56.5613C87.4857 56.4882 87.3575 56.42 87.1987 56.3567C87.0408 56.2934 86.8489 56.2244 86.6232 56.1471C86.3561 56.0633 86.094 55.9704 85.8368 55.8685C85.5796 55.7674 85.3514 55.6326 85.1504 55.4649C84.9495 55.2972 84.7874 55.0852 84.665 54.8296C84.541 54.5748 84.4798 54.2509 84.4798 53.8589C84.4798 53.4668 84.5451 53.1117 84.675 52.7937C84.8056 52.4748 84.9884 52.2019 85.2249 51.975C85.4605 51.7474 85.7483 51.5707 86.0898 51.4449C86.4313 51.3191 86.8134 51.2559 87.2359 51.2559C87.6304 51.2559 88.0422 51.3101 88.4714 51.4186C88.9005 51.5271 89.3123 51.6865 89.7068 51.8961L88.8832 53.5022Z" fill="#348D3D"/>
<path fill-rule="evenodd" clip-rule="evenodd" d="M95.0293 59.3908V51.4766H97.0991L100.922 56.3152V51.4766H102.981V59.3908H100.922L97.0991 54.5522V59.3908H95.0293Z" fill="#348D3D"/>
<path fill-rule="evenodd" clip-rule="evenodd" d="M109.105 53.219H106.644V54.5415H108.968V56.284H106.644V57.6483H109.105V59.3908H104.574V51.4766H109.105V53.219Z" fill="#348D3D"/>
<path fill-rule="evenodd" clip-rule="evenodd" d="M112.97 55.1711L110.49 51.4766H113.045L114.122 53.5231L115.452 51.4766H118.008L115.378 55.1711L118.345 59.3908H115.822L114.227 56.8083L112.359 59.3908H109.855L112.97 55.1711Z" fill="#348D3D"/>
<path fill-rule="evenodd" clip-rule="evenodd" d="M122.358 53.219V59.3908H120.288V53.219H118.588V51.4766H124.058V53.219H122.358Z" fill="#348D3D"/>
<path fill-rule="evenodd" clip-rule="evenodd" d="M123.918 25.7617H125.736V26.1003H125.022V27.9949H124.628V26.1003H123.918V25.7617Z" fill="#242424"/>
<path fill-rule="evenodd" clip-rule="evenodd" d="M125.99 25.7617H126.544L127.164 27.5099H127.17L127.775 25.7617H128.321V27.9949H127.948V26.2721H127.941L127.318 27.9949H126.994L126.371 26.2721H126.365V27.9949H125.99V25.7617Z" fill="#242424"/>
<path fill-rule="evenodd" clip-rule="evenodd" d="M9.4079 8.47151C5.55775 7.56411 5.13602 6.96986 5.13602 5.91781V5.86192C5.13602 4.7926 6.20771 4.07425 7.80367 4.07425C9.2144 4.07425 10.5557 4.51562 12.0251 5.46411L12.0408 5.47397C12.4121 5.69507 12.7826 5.79781 13.2068 5.79781C14.3918 5.79781 15.3551 4.8526 15.3551 3.69123C15.3551 2.78877 14.8391 2.16904 14.3504 1.88548C12.4295 0.616438 10.3059 0 7.85908 0C3.61117 0 0.643346 2.53644 0.643346 6.16767V6.22356C0.643346 10.1195 3.18283 11.4921 7.57296 12.5466C11.3123 13.4047 11.5918 14.0819 11.5918 15.0173V15.0731C11.5918 16.2444 10.4341 17.0014 8.643 17.0014C6.75844 17.0014 5.11865 16.4005 3.46977 15.0995C3.096 14.8233 2.66352 14.6893 2.14835 14.6893C0.964192 14.6893 0 15.6353 0 16.7984C0 17.4855 0.332423 18.1323 0.882327 18.5236C3.14231 20.1937 5.79756 21.0764 8.55948 21.0764C13.1299 21.0764 16.0828 18.5877 16.0828 14.7378V14.6844C16.0828 10.643 12.876 9.30986 9.4079 8.47151Z" fill="#242424"/>
<path fill-rule="evenodd" clip-rule="evenodd" d="M75.9583 32.1627C75.9583 33.8501 74.6137 34.8981 72.4505 34.8981H67.9355V29.4003H72.4224C73.743 29.4003 75.9583 29.7521 75.9583 32.106V32.1627ZM72.7027 25.2422H65.7036C64.4368 25.2422 63.4453 26.2285 63.4453 27.4877V43.6836C63.4453 44.9271 64.4368 45.9019 65.7036 45.9019C66.9556 45.9019 67.9355 44.9271 67.9355 43.6836V38.9723H71.4954L76.0873 44.7981C76.6389 45.5411 77.3269 45.9019 78.191 45.9019C79.39 45.9019 80.365 44.9567 80.365 43.7945C80.365 43.0614 80.0177 42.5666 79.6927 42.1622L76.3974 38.0312C79.0551 36.9677 80.5072 34.8381 80.5072 31.9671V31.9129C80.5072 30.1096 79.8936 28.5307 78.7244 27.3381C77.3153 25.9671 75.2331 25.2422 72.7027 25.2422Z" fill="#242424"/>
<path fill-rule="evenodd" clip-rule="evenodd" d="M13.7939 41.6608H4.49185V37.4699H12.3948C13.5326 37.4699 14.4579 36.5625 14.4579 35.4479C14.4579 34.3005 13.5326 33.3668 12.3948 33.3668H4.49185V29.3452H13.6542C14.792 29.3452 15.7182 28.4247 15.7182 27.2937C15.7182 26.1627 14.792 25.2422 13.6542 25.2422H2.26081C0.993135 25.2422 0 26.2285 0 27.4877V43.5151C0 44.7751 0.993135 45.7614 2.26081 45.7614H13.7939C14.9326 45.7614 15.8587 44.8408 15.8587 43.7099C15.8587 42.5797 14.9326 41.6608 13.7939 41.6608Z" fill="#242424"/>
<path fill-rule="evenodd" clip-rule="evenodd" d="M43.5166 19.3655C43.9813 20.4693 44.8479 21.0767 45.9593 21.0767H46.1536C47.2997 21.0767 48.1548 20.4849 48.6261 19.368L55.5111 3.23042C55.5897 3.04631 55.722 2.6822 55.722 2.30165C55.722 1.08768 54.7421 0.136719 53.4901 0.136719C52.3952 0.136719 51.6254 0.86576 51.3525 1.57836L46.1007 14.5367L40.9333 1.69672C40.5504 0.705486 39.7293 0.136719 38.6807 0.136719C37.4131 0.136719 36.4199 1.10001 36.4199 2.32877C36.4199 2.75124 36.5423 3.08165 36.6581 3.33973L43.5166 19.3655Z" fill="#242424"/>
<path fill-rule="evenodd" clip-rule="evenodd" d="M27.5407 5.97288L30.1852 12.0197H24.8962L27.5407 5.97288ZM21.6133 19.5321L23.1249 16.094H31.9573L33.4135 19.4219C33.8294 20.3992 34.5976 20.9367 35.5767 20.9367C36.7799 20.9367 37.7234 19.9866 37.7234 18.7742C37.7234 18.4496 37.6374 18.12 37.4737 17.8184L30.2025 1.69644C29.7056 0.602466 28.81 0 27.6813 0H27.5126C26.3673 0 25.4618 0.602466 24.9623 1.69808L17.6904 17.8266C17.5018 18.2014 17.4142 18.5203 17.4142 18.8293C17.4142 20.0112 18.3453 20.9367 19.5344 20.9367C20.4812 20.9367 21.2569 20.4123 21.6133 19.5321Z" fill="#242424"/>
<path fill-rule="evenodd" clip-rule="evenodd" d="M35.6069 25.1035C34.3921 25.1035 33.404 26.0857 33.404 27.2915V37.7315L24.5369 26.3274C24.0324 25.7068 23.418 25.1315 22.3372 25.1315H21.9726C20.7256 25.1315 19.7109 26.1391 19.7109 27.3761V43.7117C19.7109 44.92 20.7132 45.9021 21.9453 45.9021C23.1609 45.9021 24.1499 44.92 24.1499 43.7117V32.883L33.289 44.6446C33.7637 45.252 34.3971 45.8734 35.4952 45.8734H35.6358C36.8712 45.8734 37.8387 44.8986 37.8387 43.655V27.2915C37.8387 26.0857 36.8373 25.1035 35.6069 25.1035Z" fill="#242424"/>
<path fill-rule="evenodd" clip-rule="evenodd" d="M88.1782 18.7447C88.1782 17.6137 87.2529 16.6932 86.1151 16.6932H62.7388V12.5039H70.64C71.7787 12.5039 72.7057 11.5965 72.7057 10.4811C72.7057 9.33375 71.7787 8.40087 70.64 8.40087H62.7388V4.3784H71.8994C73.0381 4.3784 73.9642 3.45868 73.9642 2.32772C73.9642 1.19594 73.0381 0.275391 71.8994 0.275391H60.5044C59.2384 0.275391 58.2461 1.26251 58.2461 2.52251V18.5499C58.2461 19.8099 59.2384 20.797 60.5044 20.797H86.1151C87.2529 20.797 88.1782 19.8765 88.1782 18.7447Z" fill="#242424"/>
<path fill-rule="evenodd" clip-rule="evenodd" d="M57.0542 41.6608H47.7505V37.4699H55.6517C56.7904 37.4699 57.7166 36.5625 57.7166 35.4479C57.7166 34.3005 56.7904 33.3668 55.6517 33.3668H47.7505V29.3452H56.9128C58.0506 29.3452 58.976 28.4247 58.976 27.2937C58.976 26.1627 58.0506 25.2422 56.9128 25.2422H45.517C44.2501 25.2422 43.2578 26.2285 43.2578 27.4877V43.5151C43.2578 44.7751 44.2501 45.7614 45.517 45.7614H57.0542C58.1912 45.7614 59.1165 44.8408 59.1165 43.7099C59.1165 42.5797 58.1912 41.6608 57.0542 41.6608Z" fill="#242424"/>
<path fill-rule="evenodd" clip-rule="evenodd" d="M120.819 25.0751C119.998 25.0751 119.317 25.4868 118.741 26.3268L113.628 33.5622L108.599 26.3614C108.466 26.1674 108.298 25.9512 108.088 25.7523C109.232 23.7863 109.889 21.563 109.985 19.2296C110.142 15.4348 108.803 11.8068 106.214 9.01314C103.625 6.22026 100.098 4.59615 96.2798 4.43999C90.8635 4.21889 85.8523 7.00355 83.2012 11.7082C82.6314 12.7192 82.9945 13.9981 84.0116 14.5644C85.0287 15.1307 86.3154 14.7707 86.8851 13.7597C88.7548 10.4416 92.2891 8.47807 96.1062 8.63341C98.797 8.74273 101.284 9.88848 103.109 11.857C104.933 13.8255 105.877 16.3825 105.766 19.0578C105.655 21.7323 104.504 24.2038 102.523 26.0178C100.543 27.8309 97.9709 28.7696 95.2792 28.6594C91.8152 28.5181 88.7077 26.6523 86.9653 23.6679C86.3807 22.6652 85.0891 22.3233 84.0802 22.9052C83.0714 23.4863 82.7282 24.7709 83.3128 25.7737C84.038 27.0156 84.9311 28.1203 85.954 29.0679C84.5871 30.8909 83.8255 33.1479 83.8255 35.5019V35.5578C83.8255 38.4838 84.8666 41.1485 86.7578 43.0611C88.7217 45.0468 91.4026 46.0964 94.5118 46.0964C97.7691 46.0964 100.26 44.8989 101.761 43.9035C102.737 43.3003 103.211 42.4463 103.211 41.2907V36.0871C103.211 34.8271 102.219 33.84 100.952 33.84H95.4934C94.3556 33.84 93.4294 34.7474 93.4294 35.8627C93.4294 36.9649 94.3556 37.8616 95.4934 37.8616H98.8309V40.7162C97.6748 41.4962 96.1574 41.9392 94.6251 41.9392C91.0098 41.9392 88.4844 39.2918 88.4844 35.5019V35.4485C88.4844 34.0208 88.9161 32.6622 89.6934 31.5616C91.3654 32.3268 93.197 32.7756 95.1056 32.8529C95.3694 32.8644 95.6315 32.8677 95.8928 32.8644C99.3105 32.8208 102.552 31.5797 105.13 29.3277L111.365 37.8419V43.6841C111.365 44.9071 112.367 45.9025 113.598 45.9025C114.865 45.9025 115.857 44.9277 115.857 43.6841V37.7589L122.445 28.8033C122.836 28.2822 123.026 27.78 123.026 27.2663C123.026 26.017 122.077 25.0751 120.819 25.0751Z" fill="#242424"/>
<path fill-rule="evenodd" clip-rule="evenodd" d="M92.3353 20.0496C91.5117 20.0496 90.8427 19.3839 90.8427 18.5628C90.8427 17.7417 91.5117 17.0759 92.3353 17.0759C93.1598 17.0759 93.8279 17.7417 93.8279 18.5628C93.8279 19.3839 93.1598 20.0496 92.3353 20.0496ZM92.3353 14.9727C90.4086 14.9727 88.8457 16.5795 88.8457 18.5603C88.8457 20.542 90.4086 22.1488 92.3353 22.1488C94.2621 22.1488 95.8241 20.542 95.8241 18.5603C95.8241 16.5795 94.2621 14.9727 92.3353 14.9727Z" fill="#348D3D"/>
<path fill-rule="evenodd" clip-rule="evenodd" d="M102.769 15.4114C102.579 15.2265 102.327 15.1328 102.019 15.1328C101.716 15.1328 101.468 15.2273 101.279 15.4131C101.093 15.5956 101 15.8536 101 16.1783V18.7402L98.8715 16.0082L98.8343 15.9597C98.7698 15.8734 98.7078 15.7895 98.6466 15.709C98.5581 15.5914 98.4713 15.4969 98.382 15.4205C98.2811 15.3325 98.1628 15.2627 98.0305 15.2109C97.8957 15.1591 97.7378 15.1328 97.5616 15.1328C97.3334 15.1328 97.1168 15.1879 96.9191 15.2964C96.7116 15.4098 96.5586 15.5651 96.4618 15.7599C96.3891 15.9177 96.3535 16.1158 96.3535 16.364V21.0366C96.3535 21.3572 96.4503 21.6145 96.6421 21.8002C96.8356 21.9876 97.0878 22.0829 97.3913 22.0829C97.6865 22.0829 97.9362 21.9901 98.1314 21.8068C98.3299 21.6219 98.4299 21.363 98.4299 21.0366V18.5397L100.496 21.2249C100.575 21.3243 100.655 21.4205 100.734 21.5142C100.829 21.626 100.932 21.7254 101.044 21.8093C101.168 21.9038 101.305 21.9745 101.451 22.0188C101.59 22.0616 101.745 22.0829 101.912 22.0829C102.636 22.0829 103.052 21.6671 103.052 20.9413V16.1783C103.052 15.8528 102.956 15.5947 102.769 15.4114Z" fill="#348D3D"/>
</svg>
