<svg width="129" height="61" viewBox="0 0 129 61" fill="none" xmlns="http://www.w3.org/2000/svg">
<mask id="mask0_936_1821" style="mask-type:luminance" maskUnits="userSpaceOnUse" x="0" y="51" width="17" height="10">
<path d="M0.404297 51.7559H16.1489V60.0613H0.404297V51.7559Z" fill="#348D3D"/>
</mask>
<g mask="url(#mask0_936_1821)">
<path fill-rule="evenodd" clip-rule="evenodd" d="M2.47409 55.6086H3.16043C3.92037 55.6086 4.30076 55.2799 4.30076 54.6215C4.30076 53.964 3.92037 53.6352 3.16043 53.6352H2.47409V55.6086ZM2.47409 59.8908H0.404297V51.9766H3.69876C4.59266 51.9766 5.27735 52.2075 5.75284 52.6694C6.22749 53.1314 6.46564 53.7815 6.46564 54.6215C6.46564 55.4615 6.22749 56.1125 5.75284 56.5735C5.27735 57.0355 4.59266 57.2664 3.69876 57.2664H2.47409V59.8908Z" fill="#348D3D"/>
</g>
<path fill-rule="evenodd" clip-rule="evenodd" d="M9.49692 55.9337C9.49692 56.2476 9.55645 56.5386 9.67636 56.8041C9.79626 57.0704 9.95751 57.3013 10.1618 57.497C10.366 57.6934 10.6033 57.8454 10.8746 57.9539C11.1458 58.0624 11.4327 58.1167 11.7354 58.1167C12.0381 58.1167 12.325 58.0624 12.5962 57.9539C12.8666 57.8454 13.1064 57.6934 13.314 57.497C13.5216 57.3013 13.6853 57.0704 13.8052 56.8041C13.9243 56.5386 13.9846 56.2476 13.9846 55.9337C13.9846 55.6181 13.9243 55.3279 13.8052 55.0624C13.6853 54.7961 13.5216 54.5652 13.314 54.3696C13.1064 54.1739 12.8666 54.0211 12.5962 53.9126C12.325 53.8041 12.0381 53.7498 11.7354 53.7498C11.4327 53.7498 11.1458 53.8041 10.8746 53.9126C10.6033 54.0211 10.366 54.1739 10.1618 54.3696C9.95751 54.5652 9.79626 54.7961 9.67636 55.0624C9.55645 55.3279 9.49692 55.6181 9.49692 55.9337ZM7.33203 55.9337C7.33203 55.3452 7.44119 54.7978 7.65949 54.2907C7.87697 53.7835 8.18045 53.3405 8.56745 52.9624C8.95445 52.5852 9.41753 52.2893 9.95586 52.0756C10.4942 51.8627 11.0879 51.7559 11.7354 51.7559C12.3763 51.7559 12.9675 51.8627 13.5091 52.0756C14.0516 52.2893 14.518 52.5852 14.9083 52.9624C15.2994 53.3405 15.6037 53.7835 15.8221 54.2907C16.0404 54.7978 16.1495 55.3452 16.1495 55.9337C16.1495 56.5205 16.0404 57.0687 15.8221 57.5759C15.6037 58.083 15.2994 58.526 14.9083 58.9033C14.518 59.2813 14.0516 59.5772 13.5091 59.7901C12.9675 60.0038 12.3763 60.1107 11.7354 60.1107C11.0879 60.1107 10.4942 60.0038 9.95586 59.7901C9.41753 59.5772 8.95445 59.2813 8.56745 58.9033C8.18045 58.526 7.87697 58.083 7.65949 57.5759C7.44119 57.0687 7.33203 56.5205 7.33203 55.9337Z" fill="#348D3D"/>
<path fill-rule="evenodd" clip-rule="evenodd" d="M18.661 51.9766L20.0337 57.0881L21.7239 51.9766H23.3711L25.0605 57.0881L26.4332 51.9766H28.5973L26.2215 59.8908H24.1096L22.5467 55.3045L20.9838 59.8908H18.8718L16.4961 51.9766H18.661Z" fill="#348D3D"/>
<path fill-rule="evenodd" clip-rule="evenodd" d="M34.2272 53.719H31.7671V55.0415H34.0899V56.784H31.7671V58.1483H34.2272V59.8908H29.6973V51.9766H34.2272V53.719Z" fill="#348D3D"/>
<path fill-rule="evenodd" clip-rule="evenodd" d="M37.7319 55.5141H38.123C38.5315 55.5141 38.8449 55.4294 39.0632 55.2618C39.2807 55.0941 39.3899 54.8525 39.3899 54.5377C39.3899 54.2229 39.2807 53.9812 39.0632 53.8135C38.8449 53.6451 38.5315 53.5612 38.123 53.5612H37.7319V55.5141ZM42.2833 59.8908H39.7074L37.7319 56.8464V59.8908H35.6621V51.9766H38.883C39.327 51.9766 39.714 52.0415 40.0448 52.1705C40.3756 52.3004 40.6485 52.4771 40.8635 52.7007C41.0776 52.9251 41.2397 53.1831 41.3489 53.4774C41.458 53.7716 41.5126 54.0864 41.5126 54.4226C41.5126 55.0242 41.3662 55.5116 41.0743 55.8864C40.7824 56.2612 40.3508 56.5144 39.781 56.6475L42.2833 59.8908Z" fill="#348D3D"/>
<path fill-rule="evenodd" clip-rule="evenodd" d="M48.1649 51.9766L49.5376 57.0881L51.2278 51.9766H52.875L54.5644 57.0881L55.9371 51.9766H58.102L55.7263 59.8908H53.6135L52.0514 55.3045L50.4885 59.8908H48.3766L46 51.9766H48.1649Z" fill="#348D3D"/>
<path fill-rule="evenodd" clip-rule="evenodd" d="M61.2495 55.0308H64.238V51.9766H66.3078V59.8908H64.238V56.6262H61.2495V59.8908H59.1797V51.9766H61.2495V55.0308Z" fill="#348D3D"/>
<path fill-rule="evenodd" clip-rule="evenodd" d="M72.326 56.9516L71.3966 54.3174L70.4671 56.9516H72.326ZM72.8751 58.5157H69.918L69.4434 59.8908H67.2363L70.267 51.9766H72.5262L75.5577 59.8908H73.3506L72.8751 58.5157Z" fill="#348D3D"/>
<path fill-rule="evenodd" clip-rule="evenodd" d="M78.6723 53.719V59.8908H76.6025V53.719H74.9023V51.9766H80.3724V53.719H78.6723Z" fill="#348D3D"/>
<mask id="mask1_936_1821" style="mask-type:luminance" maskUnits="userSpaceOnUse" x="80" y="51" width="11" height="10">
<path d="M80.6055 51.7559H90.0349V60.0613H80.6055V51.7559Z" fill="#348D3D"/>
</mask>
<g mask="url(#mask1_936_1821)">
<path fill-rule="evenodd" clip-rule="evenodd" d="M81.9674 51.9766H83.7734L81.8301 55.4615H80.6055L81.9674 51.9766Z" fill="#348D3D"/>
</g>
<path fill-rule="evenodd" clip-rule="evenodd" d="M88.8832 54.0022C88.6582 53.8197 88.4325 53.6857 88.2076 53.5978C87.9818 53.5107 87.7643 53.4671 87.5527 53.4671C87.2856 53.4671 87.0672 53.5296 86.8977 53.6561C86.729 53.7811 86.6447 53.9463 86.6447 54.1493C86.6447 54.289 86.6869 54.4041 86.7712 54.4953C86.8564 54.5857 86.9664 54.6654 87.1036 54.7312C87.2409 54.7978 87.3955 54.8561 87.5684 54.9046C87.7412 54.9539 87.9124 55.0065 88.0811 55.0624C88.7567 55.286 89.2512 55.5852 89.5646 55.9591C89.8771 56.3339 90.0342 56.8222 90.0342 57.4238C90.0342 57.8298 89.9656 58.1972 89.8283 58.526C89.6911 58.8548 89.491 59.1367 89.2263 59.3709C88.9626 59.6052 88.6384 59.7868 88.2555 59.9167C87.871 60.0457 87.4369 60.1107 86.9507 60.1107C85.9443 60.1107 85.0115 59.8131 84.1523 59.2189L85.0396 57.5602C85.3489 57.8331 85.6557 58.0361 85.9583 58.1685C86.261 58.3016 86.5603 58.3682 86.8564 58.3682C87.1938 58.3682 87.4452 58.2909 87.6105 58.1372C87.7759 57.9835 87.8594 57.8085 87.8594 57.6128C87.8594 57.4937 87.8379 57.3909 87.7958 57.303C87.7536 57.2159 87.6833 57.1353 87.5849 57.0613C87.4857 56.9882 87.3575 56.92 87.1987 56.8567C87.0408 56.7934 86.8489 56.7244 86.6232 56.6471C86.3561 56.5633 86.094 56.4704 85.8368 56.3685C85.5796 56.2674 85.3514 56.1326 85.1504 55.9649C84.9495 55.7972 84.7874 55.5852 84.665 55.3296C84.541 55.0748 84.4798 54.7509 84.4798 54.3589C84.4798 53.9668 84.5451 53.6117 84.675 53.2937C84.8056 52.9748 84.9884 52.7019 85.2249 52.475C85.4605 52.2474 85.7483 52.0707 86.0898 51.9449C86.4313 51.8191 86.8134 51.7559 87.2359 51.7559C87.6304 51.7559 88.0422 51.8101 88.4714 51.9186C88.9005 52.0271 89.3123 52.1865 89.7068 52.3961L88.8832 54.0022Z" fill="#348D3D"/>
<path fill-rule="evenodd" clip-rule="evenodd" d="M95.0293 59.8908V51.9766H97.0991L100.922 56.8152V51.9766H102.981V59.8908H100.922L97.0991 55.0522V59.8908H95.0293Z" fill="#348D3D"/>
<path fill-rule="evenodd" clip-rule="evenodd" d="M109.105 53.719H106.644V55.0415H108.968V56.784H106.644V58.1483H109.105V59.8908H104.574V51.9766H109.105V53.719Z" fill="#348D3D"/>
<path fill-rule="evenodd" clip-rule="evenodd" d="M112.97 55.6711L110.49 51.9766H113.045L114.122 54.0231L115.452 51.9766H118.008L115.378 55.6711L118.345 59.8908H115.822L114.227 57.3083L112.359 59.8908H109.855L112.97 55.6711Z" fill="#348D3D"/>
<path fill-rule="evenodd" clip-rule="evenodd" d="M122.358 53.719V59.8908H120.288V53.719H118.588V51.9766H124.058V53.719H122.358Z" fill="#348D3D"/>
<path fill-rule="evenodd" clip-rule="evenodd" d="M123.918 26.2617H125.736V26.6003H125.022V28.4949H124.628V26.6003H123.918V26.2617Z" fill="#242424"/>
<path fill-rule="evenodd" clip-rule="evenodd" d="M125.99 26.2617H126.544L127.164 28.0099H127.17L127.775 26.2617H128.321V28.4949H127.948V26.7721H127.941L127.318 28.4949H126.994L126.371 26.7721H126.365V28.4949H125.99V26.2617Z" fill="#242424"/>
<path fill-rule="evenodd" clip-rule="evenodd" d="M9.4079 8.97151C5.55775 8.06411 5.13602 7.46986 5.13602 6.41781V6.36192C5.13602 5.2926 6.20771 4.57425 7.80367 4.57425C9.2144 4.57425 10.5557 5.01562 12.0251 5.96411L12.0408 5.97397C12.4121 6.19507 12.7826 6.29781 13.2068 6.29781C14.3918 6.29781 15.3551 5.3526 15.3551 4.19123C15.3551 3.28877 14.8391 2.66904 14.3504 2.38548C12.4295 1.11644 10.3059 0.5 7.85908 0.5C3.61117 0.5 0.643346 3.03644 0.643346 6.66767V6.72356C0.643346 10.6195 3.18283 11.9921 7.57296 13.0466C11.3123 13.9047 11.5918 14.5819 11.5918 15.5173V15.5731C11.5918 16.7444 10.4341 17.5014 8.643 17.5014C6.75844 17.5014 5.11865 16.9005 3.46977 15.5995C3.096 15.3233 2.66352 15.1893 2.14835 15.1893C0.964192 15.1893 0 16.1353 0 17.2984C0 17.9855 0.332423 18.6323 0.882327 19.0236C3.14231 20.6937 5.79756 21.5764 8.55948 21.5764C13.1299 21.5764 16.0828 19.0877 16.0828 15.2378V15.1844C16.0828 11.143 12.876 9.80986 9.4079 8.97151Z" fill="#242424"/>
<path fill-rule="evenodd" clip-rule="evenodd" d="M75.9583 32.6627C75.9583 34.3501 74.6137 35.3981 72.4505 35.3981H67.9355V29.9003H72.4224C73.743 29.9003 75.9583 30.2521 75.9583 32.606V32.6627ZM72.7027 25.7422H65.7036C64.4368 25.7422 63.4453 26.7285 63.4453 27.9877V44.1836C63.4453 45.4271 64.4368 46.4019 65.7036 46.4019C66.9556 46.4019 67.9355 45.4271 67.9355 44.1836V39.4723H71.4954L76.0873 45.2981C76.6389 46.0411 77.3269 46.4019 78.191 46.4019C79.39 46.4019 80.365 45.4567 80.365 44.2945C80.365 43.5614 80.0177 43.0666 79.6927 42.6622L76.3974 38.5312C79.0551 37.4677 80.5072 35.3381 80.5072 32.4671V32.4129C80.5072 30.6096 79.8936 29.0307 78.7244 27.8381C77.3153 26.4671 75.2331 25.7422 72.7027 25.7422Z" fill="#242424"/>
<path fill-rule="evenodd" clip-rule="evenodd" d="M13.7939 42.1608H4.49185V37.9699H12.3948C13.5326 37.9699 14.4579 37.0625 14.4579 35.9479C14.4579 34.8005 13.5326 33.8668 12.3948 33.8668H4.49185V29.8452H13.6542C14.792 29.8452 15.7182 28.9247 15.7182 27.7937C15.7182 26.6627 14.792 25.7422 13.6542 25.7422H2.26081C0.993135 25.7422 0 26.7285 0 27.9877V44.0151C0 45.2751 0.993135 46.2614 2.26081 46.2614H13.7939C14.9326 46.2614 15.8587 45.3408 15.8587 44.2099C15.8587 43.0797 14.9326 42.1608 13.7939 42.1608Z" fill="#242424"/>
<path fill-rule="evenodd" clip-rule="evenodd" d="M43.5166 19.8655C43.9813 20.9693 44.8479 21.5767 45.9593 21.5767H46.1536C47.2997 21.5767 48.1548 20.9849 48.6261 19.868L55.5111 3.73042C55.5897 3.54631 55.722 3.1822 55.722 2.80165C55.722 1.58768 54.7421 0.636719 53.4901 0.636719C52.3952 0.636719 51.6254 1.36576 51.3525 2.07836L46.1007 15.0367L40.9333 2.19672C40.5504 1.20549 39.7293 0.636719 38.6807 0.636719C37.4131 0.636719 36.4199 1.60001 36.4199 2.82877C36.4199 3.25124 36.5423 3.58165 36.6581 3.83973L43.5166 19.8655Z" fill="#242424"/>
<path fill-rule="evenodd" clip-rule="evenodd" d="M27.5406 6.47288L30.1851 12.5197H24.8961L27.5406 6.47288ZM21.6132 20.0321L23.1248 16.594H31.9572L33.4134 19.9219C33.8293 20.8992 34.5975 21.4367 35.5766 21.4367C36.7798 21.4367 37.7233 20.4866 37.7233 19.2742C37.7233 18.9496 37.6373 18.62 37.4736 18.3184L30.2024 2.19644C29.7054 1.10247 28.8099 0.5 27.6811 0.5H27.5124C26.3672 0.5 25.4617 1.10247 24.9622 2.19808L17.6903 18.3266C17.5017 18.7014 17.4141 19.0203 17.4141 19.3293C17.4141 20.5112 18.3452 21.4367 19.5343 21.4367C20.4811 21.4367 21.2568 20.9123 21.6132 20.0321Z" fill="#242424"/>
<path fill-rule="evenodd" clip-rule="evenodd" d="M35.6069 25.6035C34.3921 25.6035 33.404 26.5857 33.404 27.7915V38.2315L24.5369 26.8274C24.0324 26.2068 23.418 25.6315 22.3372 25.6315H21.9726C20.7256 25.6315 19.7109 26.6391 19.7109 27.8761V44.2117C19.7109 45.42 20.7132 46.4021 21.9453 46.4021C23.1609 46.4021 24.1499 45.42 24.1499 44.2117V33.383L33.289 45.1446C33.7637 45.752 34.3971 46.3734 35.4952 46.3734H35.6358C36.8712 46.3734 37.8387 45.3986 37.8387 44.155V27.7915C37.8387 26.5857 36.8373 25.6035 35.6069 25.6035Z" fill="#242424"/>
<path fill-rule="evenodd" clip-rule="evenodd" d="M88.1782 19.2447C88.1782 18.1137 87.2529 17.1932 86.1151 17.1932H62.7388V13.0039H70.64C71.7787 13.0039 72.7057 12.0965 72.7057 10.9811C72.7057 9.83375 71.7787 8.90087 70.64 8.90087H62.7388V4.8784H71.8994C73.0381 4.8784 73.9642 3.95868 73.9642 2.82772C73.9642 1.69594 73.0381 0.775391 71.8994 0.775391H60.5044C59.2384 0.775391 58.2461 1.76251 58.2461 3.02251V19.0499C58.2461 20.3099 59.2384 21.297 60.5044 21.297H86.1151C87.2529 21.297 88.1782 20.3765 88.1782 19.2447Z" fill="#242424"/>
<path fill-rule="evenodd" clip-rule="evenodd" d="M57.0542 42.1608H47.7505V37.9699H55.6517C56.7904 37.9699 57.7166 37.0625 57.7166 35.9479C57.7166 34.8005 56.7904 33.8668 55.6517 33.8668H47.7505V29.8452H56.9128C58.0506 29.8452 58.976 28.9247 58.976 27.7937C58.976 26.6627 58.0506 25.7422 56.9128 25.7422H45.517C44.2501 25.7422 43.2578 26.7285 43.2578 27.9877V44.0151C43.2578 45.2751 44.2501 46.2614 45.517 46.2614H57.0542C58.1912 46.2614 59.1165 45.3408 59.1165 44.2099C59.1165 43.0797 58.1912 42.1608 57.0542 42.1608Z" fill="#242424"/>
<path fill-rule="evenodd" clip-rule="evenodd" d="M120.819 25.5751C119.998 25.5751 119.317 25.9868 118.741 26.8268L113.628 34.0622L108.599 26.8614C108.466 26.6674 108.298 26.4512 108.088 26.2523C109.232 24.2863 109.889 22.063 109.985 19.7296C110.142 15.9348 108.803 12.3068 106.214 9.51314C103.625 6.72026 100.098 5.09615 96.2798 4.93999C90.8635 4.71889 85.8523 7.50355 83.2012 12.2082C82.6314 13.2192 82.9945 14.4981 84.0116 15.0644C85.0287 15.6307 86.3154 15.2707 86.8851 14.2597C88.7548 10.9416 92.2891 8.97807 96.1062 9.13341C98.797 9.24273 101.284 10.3885 103.109 12.357C104.933 14.3255 105.877 16.8825 105.766 19.5578C105.655 22.2323 104.504 24.7038 102.523 26.5178C100.543 28.3309 97.9709 29.2696 95.2792 29.1594C91.8152 29.0181 88.7077 27.1523 86.9653 24.1679C86.3807 23.1652 85.0891 22.8233 84.0802 23.4052C83.0714 23.9863 82.7282 25.2709 83.3128 26.2737C84.038 27.5156 84.9311 28.6203 85.954 29.5679C84.5871 31.3909 83.8255 33.6479 83.8255 36.0019V36.0578C83.8255 38.9838 84.8666 41.6485 86.7578 43.5611C88.7217 45.5468 91.4026 46.5964 94.5118 46.5964C97.7691 46.5964 100.26 45.3989 101.761 44.4035C102.737 43.8003 103.211 42.9463 103.211 41.7907V36.5871C103.211 35.3271 102.219 34.34 100.952 34.34H95.4934C94.3556 34.34 93.4294 35.2474 93.4294 36.3627C93.4294 37.4649 94.3556 38.3616 95.4934 38.3616H98.8309V41.2162C97.6748 41.9962 96.1574 42.4392 94.6251 42.4392C91.0098 42.4392 88.4844 39.7918 88.4844 36.0019V35.9485C88.4844 34.5208 88.9161 33.1622 89.6934 32.0616C91.3654 32.8268 93.197 33.2756 95.1056 33.3529C95.3694 33.3644 95.6315 33.3677 95.8928 33.3644C99.3105 33.3208 102.552 32.0797 105.13 29.8277L111.365 38.3419V44.1841C111.365 45.4071 112.367 46.4025 113.598 46.4025C114.865 46.4025 115.857 45.4277 115.857 44.1841V38.2589L122.445 29.3033C122.836 28.7822 123.026 28.28 123.026 27.7663C123.026 26.517 122.077 25.5751 120.819 25.5751Z" fill="#242424"/>
<path fill-rule="evenodd" clip-rule="evenodd" d="M92.3353 20.5496C91.5117 20.5496 90.8427 19.8839 90.8427 19.0628C90.8427 18.2417 91.5117 17.5759 92.3353 17.5759C93.1598 17.5759 93.8279 18.2417 93.8279 19.0628C93.8279 19.8839 93.1598 20.5496 92.3353 20.5496ZM92.3353 15.4727C90.4086 15.4727 88.8457 17.0795 88.8457 19.0603C88.8457 21.042 90.4086 22.6488 92.3353 22.6488C94.2621 22.6488 95.8241 21.042 95.8241 19.0603C95.8241 17.0795 94.2621 15.4727 92.3353 15.4727Z" fill="#348D3D"/>
<path fill-rule="evenodd" clip-rule="evenodd" d="M102.769 15.9114C102.579 15.7265 102.327 15.6328 102.019 15.6328C101.716 15.6328 101.468 15.7273 101.279 15.9131C101.093 16.0956 101 16.3536 101 16.6783V19.2402L98.8715 16.5082L98.8343 16.4597C98.7698 16.3734 98.7078 16.2895 98.6466 16.209C98.5581 16.0914 98.4713 15.9969 98.382 15.9205C98.2811 15.8325 98.1628 15.7627 98.0305 15.7109C97.8957 15.6591 97.7378 15.6328 97.5616 15.6328C97.3334 15.6328 97.1168 15.6879 96.9191 15.7964C96.7116 15.9098 96.5586 16.0651 96.4618 16.2599C96.3891 16.4177 96.3535 16.6158 96.3535 16.864V21.5366C96.3535 21.8572 96.4503 22.1145 96.6421 22.3002C96.8356 22.4876 97.0878 22.5829 97.3913 22.5829C97.6865 22.5829 97.9362 22.4901 98.1314 22.3068C98.3299 22.1219 98.4299 21.863 98.4299 21.5366V19.0397L100.496 21.7249C100.575 21.8243 100.655 21.9205 100.734 22.0142C100.829 22.126 100.932 22.2254 101.044 22.3093C101.168 22.4038 101.305 22.4745 101.451 22.5188C101.59 22.5616 101.745 22.5829 101.912 22.5829C102.636 22.5829 103.052 22.1671 103.052 21.4413V16.6783C103.052 16.3528 102.956 16.0947 102.769 15.9114Z" fill="#348D3D"/>
</svg>
