<svg width="179" height="100" viewBox="0 0 179 100" fill="none" xmlns="http://www.w3.org/2000/svg">
<path fill-rule="evenodd" clip-rule="evenodd" d="M32.6868 68.5166C32.6868 71.6997 35.2672 74.2802 38.4504 74.2802H158.663C161.846 74.2802 164.427 71.6997 164.427 68.5166C164.427 65.3334 161.846 62.753 158.663 62.753H153.723C150.54 62.753 147.959 60.1725 147.959 56.9894C147.959 53.8062 150.54 51.2257 153.723 51.2257H169.367C172.55 51.2257 175.13 48.6453 175.13 45.4621C175.13 42.279 172.55 39.6985 169.367 39.6985H151.253C154.436 39.6985 157.016 37.118 157.016 33.9349C157.016 30.7517 154.436 28.1713 151.253 28.1713H98.5567C101.74 28.1713 104.32 25.5908 104.32 22.4077C104.32 19.2245 101.74 16.644 98.5567 16.644H51.6244C48.4412 16.644 45.8607 19.2245 45.8607 22.4077C45.8607 25.5908 48.4412 28.1713 51.6244 28.1713H18.6894C15.5063 28.1713 12.9258 30.7517 12.9258 33.9349C12.9258 37.118 15.5063 39.6985 18.6894 39.6985H39.2738C42.4569 39.6985 45.0374 42.279 45.0374 45.4621C45.0374 48.6453 42.4569 51.2257 39.2738 51.2257H6.33881C3.15565 51.2257 0.575195 53.8062 0.575195 56.9894C0.575195 60.1725 3.15565 62.753 6.33881 62.753H38.4504C35.2672 62.753 32.6868 65.3334 32.6868 68.5166ZM178.424 68.5166C178.424 71.6997 175.844 74.2802 172.66 74.2802C169.477 74.2802 166.897 71.6997 166.897 68.5166C166.897 65.3334 169.477 62.753 172.66 62.753C175.844 62.753 178.424 65.3334 178.424 68.5166Z" fill="#F3F7FF"/>
<path d="M131.902 1V5.94024" stroke="#2E813E" stroke-width="1.75048" stroke-linecap="round" stroke-linejoin="round"/>
<path d="M131.902 12.5271V17.4673" stroke="#2E813E" stroke-width="1.75048" stroke-linecap="round" stroke-linejoin="round"/>
<path d="M123.669 9.23382H128.609" stroke="#2E813E" stroke-width="1.75048" stroke-linecap="round" stroke-linejoin="round"/>
<path d="M135.196 9.23382H140.137" stroke="#2E813E" stroke-width="1.75048" stroke-linecap="round" stroke-linejoin="round"/>
<path d="M63.5621 85.8074V89.1009" stroke="#2E813E" stroke-width="1.75048" stroke-linecap="round" stroke-linejoin="round"/>
<path d="M63.5621 95.6875V98.981" stroke="#2E813E" stroke-width="1.75048" stroke-linecap="round" stroke-linejoin="round"/>
<path d="M56.9756 92.3945H60.2691" stroke="#2E813E" stroke-width="1.75048" stroke-linecap="round" stroke-linejoin="round"/>
<path d="M66.8564 92.3945H70.1499" stroke="#2E813E" stroke-width="1.75048" stroke-linecap="round" stroke-linejoin="round"/>
<rect x="58.0215" y="18.5127" width="62.9554" height="62.9554" rx="31.4777" fill="#2E813E"/>
<path d="M78.8762 47.623C78.0604 46.8831 76.7951 46.9399 76.0499 47.7499C75.3047 48.5599 75.3619 49.8164 76.1777 50.5563L85.5929 59.0964C86.735 60.1323 88.5065 60.0527 89.5498 58.9187C89.5934 58.8706 89.5934 58.8706 89.6355 58.8211L103.072 42.7751C103.778 41.9315 103.662 40.679 102.812 39.9776C101.963 39.2762 100.702 39.3915 99.9952 40.2351L87.3629 55.3209L78.8762 47.623Z" fill="#F7F7F5" stroke="#2E813E" stroke-width="1.75048"/>
</svg>
