<svg width="289" height="180" viewBox="0 0 289 180" fill="none" xmlns="http://www.w3.org/2000/svg">
<path d="M34.7677 150.272C33.8077 150.272 32.981 150.172 32.2877 149.972C31.6077 149.772 31.0943 149.545 30.7477 149.292C30.4143 149.065 30.2477 148.839 30.2477 148.612C30.2477 148.439 30.3077 148.232 30.4277 147.992C30.561 147.752 30.7143 147.545 30.8877 147.372C31.061 147.185 31.201 147.092 31.3077 147.092C31.361 147.092 31.4277 147.112 31.5077 147.152C31.5877 147.192 31.6877 147.245 31.8077 147.312C32.0743 147.445 32.421 147.599 32.8477 147.772C33.2877 147.945 33.8077 148.032 34.4077 148.032C34.781 148.032 35.1277 147.979 35.4477 147.872C35.781 147.752 36.0477 147.565 36.2477 147.312C36.4477 147.045 36.5477 146.712 36.5477 146.312C36.5477 145.859 36.3943 145.499 36.0877 145.232C35.7943 144.965 35.4143 144.732 34.9477 144.532C34.481 144.332 33.9943 144.119 33.4877 143.892C33.1143 143.732 32.7477 143.552 32.3877 143.352C32.041 143.139 31.7277 142.885 31.4477 142.592C31.1677 142.285 30.941 141.919 30.7677 141.492C30.6077 141.052 30.5277 140.525 30.5277 139.912C30.5277 139.032 30.741 138.305 31.1677 137.732C31.6077 137.145 32.181 136.712 32.8877 136.432C33.5943 136.139 34.3543 135.992 35.1677 135.992C35.5677 135.992 35.961 136.025 36.3477 136.092C36.7343 136.145 37.0877 136.232 37.4077 136.352C37.7277 136.459 37.9943 136.585 38.2077 136.732C38.4877 136.919 38.6277 137.119 38.6277 137.332C38.6277 137.479 38.5743 137.672 38.4677 137.912C38.3743 138.152 38.2543 138.365 38.1077 138.552C37.961 138.739 37.821 138.832 37.6877 138.832C37.621 138.832 37.5343 138.805 37.4277 138.752C37.3343 138.699 37.201 138.639 37.0277 138.572C36.841 138.492 36.6077 138.419 36.3277 138.352C36.061 138.272 35.7277 138.232 35.3277 138.232C34.821 138.232 34.4077 138.305 34.0877 138.452C33.781 138.585 33.561 138.765 33.4277 138.992C33.2943 139.219 33.2277 139.472 33.2277 139.752C33.2277 140.152 33.3343 140.479 33.5477 140.732C33.761 140.985 34.041 141.199 34.3877 141.372C34.7477 141.532 35.141 141.692 35.5677 141.852C35.981 142.025 36.401 142.219 36.8277 142.432C37.2677 142.632 37.6677 142.885 38.0277 143.192C38.401 143.499 38.6943 143.885 38.9077 144.352C39.1343 144.819 39.2477 145.392 39.2477 146.072C39.2477 146.805 39.1277 147.439 38.8877 147.972C38.6477 148.505 38.3143 148.945 37.8877 149.292C37.461 149.625 36.981 149.872 36.4477 150.032C35.9143 150.192 35.3543 150.272 34.7677 150.272ZM45.4277 150.272C43.8677 150.272 42.6743 149.812 41.8477 148.892C41.0343 147.972 40.6277 146.645 40.6277 144.912C40.6277 143.165 41.0343 141.832 41.8477 140.912C42.6743 139.992 43.8677 139.532 45.4277 139.532C46.9743 139.532 48.1477 139.992 48.9477 140.912C49.761 141.832 50.1677 143.165 50.1677 144.912C50.1677 146.645 49.7677 147.972 48.9677 148.892C48.1677 149.812 46.9877 150.272 45.4277 150.272ZM45.4077 148.252C46.1543 148.252 46.701 147.972 47.0477 147.412C47.4077 146.852 47.5877 146.012 47.5877 144.892C47.5877 143.785 47.4077 142.952 47.0477 142.392C46.701 141.832 46.1543 141.552 45.4077 141.552C44.6477 141.552 44.0877 141.832 43.7277 142.392C43.381 142.939 43.2077 143.779 43.2077 144.912C43.2077 146.019 43.381 146.852 43.7277 147.412C44.0877 147.972 44.6477 148.252 45.4077 148.252ZM53.5944 150.172C52.8877 150.172 52.5344 149.979 52.5344 149.592V143.032C52.5344 142.405 52.5144 141.912 52.4744 141.552C52.4344 141.192 52.3944 140.919 52.3544 140.732C52.3144 140.545 52.2944 140.405 52.2944 140.312C52.2944 140.205 52.3677 140.119 52.5144 140.052C52.6611 139.972 52.8411 139.912 53.0544 139.872C53.2677 139.819 53.4744 139.785 53.6744 139.772C53.8744 139.745 54.0277 139.732 54.1344 139.732C54.3211 139.732 54.4611 139.805 54.5544 139.952C54.6611 140.099 54.7344 140.272 54.7744 140.472C54.8144 140.672 54.8544 140.859 54.8944 141.032C55.1477 140.619 55.4477 140.265 55.7944 139.972C56.1544 139.679 56.5944 139.532 57.1144 139.532C57.5811 139.532 57.8877 139.619 58.0344 139.792C58.1944 139.965 58.2744 140.205 58.2744 140.512C58.2744 140.632 58.2477 140.812 58.1944 141.052C58.1544 141.279 58.0944 141.492 58.0144 141.692C57.9344 141.879 57.8344 141.972 57.7144 141.972C57.5811 141.972 57.4477 141.945 57.3144 141.892C57.1811 141.825 56.9877 141.792 56.7344 141.792C56.4411 141.792 56.1744 141.865 55.9344 142.012C55.6944 142.159 55.4944 142.319 55.3344 142.492C55.1877 142.652 55.0944 142.779 55.0544 142.872V149.592C55.0544 149.979 54.6944 150.172 53.9744 150.172H53.5944ZM60.9186 150.172C60.2119 150.172 59.8586 149.979 59.8586 149.592V143.032C59.8586 142.405 59.8386 141.912 59.7986 141.552C59.7586 141.192 59.7186 140.919 59.6786 140.732C59.6386 140.545 59.6186 140.405 59.6186 140.312C59.6186 140.205 59.6919 140.119 59.8386 140.052C59.9853 139.972 60.1653 139.912 60.3786 139.872C60.5919 139.819 60.7986 139.785 60.9986 139.772C61.1986 139.745 61.3519 139.732 61.4586 139.732C61.6453 139.732 61.7853 139.805 61.8786 139.952C61.9853 140.099 62.0586 140.272 62.0986 140.472C62.1386 140.672 62.1786 140.859 62.2186 141.032C62.4719 140.619 62.7719 140.265 63.1186 139.972C63.4786 139.679 63.9186 139.532 64.4386 139.532C64.9053 139.532 65.2119 139.619 65.3586 139.792C65.5186 139.965 65.5986 140.205 65.5986 140.512C65.5986 140.632 65.5719 140.812 65.5186 141.052C65.4786 141.279 65.4186 141.492 65.3386 141.692C65.2586 141.879 65.1586 141.972 65.0386 141.972C64.9053 141.972 64.7719 141.945 64.6386 141.892C64.5053 141.825 64.3119 141.792 64.0586 141.792C63.7653 141.792 63.4986 141.865 63.2586 142.012C63.0186 142.159 62.8186 142.319 62.6586 142.492C62.5119 142.652 62.4186 142.779 62.3786 142.872V149.592C62.3786 149.979 62.0186 150.172 61.2986 150.172H60.9186ZM68.9628 154.272C68.2828 154.272 67.9428 154.139 67.9428 153.872C67.9428 153.832 67.9495 153.785 67.9628 153.732C67.9762 153.679 68.0028 153.612 68.0428 153.532L69.7828 149.012V150.892L66.0628 140.372C66.0495 140.319 66.0362 140.265 66.0228 140.212C66.0095 140.145 66.0028 140.085 66.0028 140.032C66.0028 139.765 66.3695 139.632 67.1028 139.632H67.5628C67.8295 139.632 68.0495 139.659 68.2228 139.712C68.4095 139.765 68.5295 139.865 68.5828 140.012L70.0628 144.312C70.1428 144.579 70.2362 144.932 70.3428 145.372C70.4495 145.799 70.5495 146.205 70.6428 146.592H70.7028C70.8095 146.205 70.9162 145.792 71.0228 145.352C71.1295 144.899 71.2228 144.552 71.3028 144.312L72.7628 140.012C72.8162 139.865 72.9295 139.765 73.1028 139.712C73.2895 139.659 73.5162 139.632 73.7828 139.632H74.1228C74.8295 139.632 75.1828 139.765 75.1828 140.032C75.1828 140.125 75.1628 140.239 75.1228 140.372L70.3428 153.852C70.2895 153.999 70.1695 154.105 69.9828 154.172C69.7962 154.239 69.5628 154.272 69.2828 154.272H68.9628ZM75.291 152.572C75.1443 152.572 74.9776 152.539 74.791 152.472C74.6043 152.419 74.511 152.319 74.511 152.172C74.511 152.092 74.531 151.999 74.571 151.892C74.5976 151.799 74.6376 151.692 74.691 151.572C74.851 151.212 75.0043 150.765 75.151 150.232C75.311 149.699 75.391 149.012 75.391 148.172C75.391 147.932 75.4776 147.739 75.651 147.592C75.8243 147.445 76.091 147.372 76.451 147.372H76.751C77.1243 147.372 77.391 147.445 77.551 147.592C77.7243 147.725 77.811 147.905 77.811 148.132C77.811 148.705 77.7176 149.259 77.531 149.792C77.3576 150.325 77.131 150.799 76.851 151.212C76.5843 151.639 76.311 151.972 76.031 152.212C75.751 152.452 75.5043 152.572 75.291 152.572ZM87.4005 150.172C87.1205 150.172 86.8938 150.139 86.7205 150.072C86.5472 150.005 86.4472 149.912 86.4205 149.792L83.8605 140.432C83.8472 140.365 83.8272 140.305 83.8005 140.252C83.7872 140.185 83.7805 140.132 83.7805 140.092C83.7805 139.945 83.8672 139.832 84.0405 139.752C84.2272 139.672 84.5205 139.632 84.9205 139.632C85.3472 139.632 85.6605 139.665 85.8605 139.732C86.0738 139.785 86.1938 139.879 86.2205 140.012L87.5805 145.452C87.6605 145.745 87.7272 146.065 87.7805 146.412C87.8472 146.759 87.9005 147.065 87.9405 147.332H88.0205C88.0472 147.132 88.0938 146.859 88.1605 146.512C88.2272 146.165 88.3138 145.799 88.4205 145.412L89.7605 140.032C89.8005 139.885 89.9005 139.785 90.0605 139.732C90.2338 139.665 90.4605 139.632 90.7405 139.632H91.1205C91.3605 139.632 91.5738 139.665 91.7605 139.732C91.9605 139.785 92.0738 139.885 92.1005 140.032L93.4605 145.472C93.5805 145.925 93.6672 146.305 93.7205 146.612C93.7738 146.919 93.8138 147.179 93.8405 147.392H93.8805C93.9338 147.099 93.9872 146.779 94.0405 146.432C94.1072 146.072 94.1805 145.745 94.2605 145.452L95.6205 140.012C95.6472 139.879 95.7538 139.785 95.9405 139.732C96.1272 139.665 96.3738 139.632 96.6805 139.632C97.4005 139.632 97.7605 139.785 97.7605 140.092C97.7605 140.132 97.7605 140.179 97.7605 140.232C97.7605 140.272 97.7472 140.325 97.7205 140.392L95.2405 149.792C95.2138 149.912 95.1005 150.005 94.9005 150.072C94.7138 150.139 94.5005 150.172 94.2605 150.172H93.4005C93.1205 150.172 92.8938 150.139 92.7205 150.072C92.5472 150.005 92.4472 149.912 92.4205 149.792L91.1205 144.712C91.0538 144.445 91.0005 144.172 90.9605 143.892C90.9205 143.599 90.8805 143.325 90.8405 143.072H90.7805C90.7538 143.312 90.7205 143.579 90.6805 143.872C90.6405 144.152 90.5872 144.432 90.5205 144.712L89.2605 149.792C89.2338 149.912 89.1205 150.005 88.9205 150.072C88.7338 150.139 88.5138 150.172 88.2605 150.172H87.4005ZM104.127 150.272C102.367 150.272 101.073 149.805 100.247 148.872C99.4199 147.939 99.0066 146.639 99.0066 144.972C99.0066 143.692 99.1999 142.652 99.5866 141.852C99.9866 141.052 100.547 140.465 101.267 140.092C101.987 139.719 102.833 139.532 103.807 139.532C104.82 139.532 105.633 139.759 106.247 140.212C106.873 140.652 107.333 141.265 107.627 142.052C107.92 142.825 108.067 143.712 108.067 144.712C108.067 144.805 108.007 144.939 107.887 145.112C107.78 145.285 107.653 145.439 107.507 145.572C107.36 145.705 107.247 145.772 107.167 145.772H101.647C101.713 146.665 101.967 147.305 102.407 147.692C102.847 148.065 103.447 148.252 104.207 148.252C104.687 148.252 105.1 148.192 105.447 148.072C105.807 147.952 106.1 147.839 106.327 147.732C106.567 147.612 106.727 147.552 106.807 147.552C106.927 147.552 107.06 147.645 107.207 147.832C107.353 148.005 107.473 148.199 107.567 148.412C107.673 148.612 107.727 148.772 107.727 148.892C107.727 149.105 107.607 149.299 107.367 149.472C107.14 149.632 106.84 149.779 106.467 149.912C106.093 150.032 105.7 150.119 105.287 150.172C104.873 150.239 104.487 150.272 104.127 150.272ZM101.647 143.972H105.567C105.567 143.225 105.42 142.639 105.127 142.212C104.847 141.772 104.4 141.552 103.787 141.552C103.213 141.552 102.733 141.739 102.347 142.112C101.973 142.485 101.74 143.105 101.647 143.972ZM119.573 150.272C117.906 150.272 116.653 149.845 115.813 148.992C114.986 148.125 114.573 146.772 114.573 144.932C114.573 143.985 114.686 143.172 114.913 142.492C115.139 141.812 115.466 141.252 115.893 140.812C116.333 140.372 116.859 140.052 117.473 139.852C118.099 139.639 118.806 139.532 119.593 139.532C120.086 139.532 120.573 139.579 121.053 139.672C121.546 139.765 121.959 139.905 122.293 140.092C122.626 140.279 122.793 140.499 122.793 140.752C122.793 140.859 122.739 141.025 122.633 141.252C122.526 141.479 122.399 141.685 122.253 141.872C122.119 142.045 121.993 142.132 121.873 142.132C121.846 142.132 121.806 142.119 121.753 142.092C121.699 142.065 121.639 142.039 121.573 142.012C121.399 141.919 121.153 141.819 120.833 141.712C120.526 141.605 120.139 141.552 119.673 141.552C118.846 141.552 118.226 141.819 117.813 142.352C117.399 142.872 117.193 143.712 117.193 144.872C117.193 146.019 117.379 146.872 117.753 147.432C118.139 147.979 118.779 148.252 119.673 148.252C120.166 148.252 120.579 148.192 120.913 148.072C121.259 147.952 121.533 147.852 121.733 147.772C121.799 147.745 121.859 147.725 121.913 147.712C121.966 147.685 122.006 147.672 122.033 147.672C122.166 147.672 122.299 147.759 122.433 147.932C122.579 148.105 122.699 148.299 122.793 148.512C122.899 148.725 122.953 148.892 122.953 149.012C122.953 149.239 122.826 149.432 122.573 149.592C122.333 149.752 122.026 149.885 121.653 149.992C121.293 150.085 120.919 150.152 120.533 150.192C120.159 150.245 119.839 150.272 119.573 150.272ZM129.1 150.272C127.54 150.272 126.346 149.812 125.52 148.892C124.706 147.972 124.3 146.645 124.3 144.912C124.3 143.165 124.706 141.832 125.52 140.912C126.346 139.992 127.54 139.532 129.1 139.532C130.646 139.532 131.82 139.992 132.62 140.912C133.433 141.832 133.84 143.165 133.84 144.912C133.84 146.645 133.44 147.972 132.64 148.892C131.84 149.812 130.66 150.272 129.1 150.272ZM129.08 148.252C129.826 148.252 130.373 147.972 130.72 147.412C131.08 146.852 131.26 146.012 131.26 144.892C131.26 143.785 131.08 142.952 130.72 142.392C130.373 141.832 129.826 141.552 129.08 141.552C128.32 141.552 127.76 141.832 127.4 142.392C127.053 142.939 126.88 143.779 126.88 144.912C126.88 146.019 127.053 146.852 127.4 147.412C127.76 147.972 128.32 148.252 129.08 148.252ZM139.106 150.272C138.106 150.272 137.346 150.005 136.826 149.472C136.32 148.925 136.066 148.112 136.066 147.032V140.212C136.066 139.825 136.42 139.632 137.126 139.632H137.506C138.213 139.632 138.566 139.825 138.566 140.212V146.692C138.566 147.159 138.686 147.525 138.926 147.792C139.166 148.045 139.546 148.172 140.066 148.172C140.493 148.172 140.866 148.039 141.186 147.772C141.52 147.505 141.786 147.225 141.986 146.932V140.212C141.986 139.825 142.34 139.632 143.046 139.632H143.446C144.153 139.632 144.506 139.825 144.506 140.212V146.812C144.506 147.452 144.526 147.959 144.566 148.332C144.606 148.692 144.646 148.965 144.686 149.152C144.726 149.325 144.746 149.465 144.746 149.572C144.746 149.679 144.673 149.772 144.526 149.852C144.38 149.919 144.2 149.979 143.986 150.032C143.773 150.072 143.56 150.105 143.346 150.132C143.146 150.145 143 150.152 142.906 150.152C142.706 150.152 142.56 150.079 142.466 149.932C142.373 149.772 142.3 149.585 142.246 149.372C142.206 149.145 142.166 148.945 142.126 148.772C141.793 149.172 141.36 149.525 140.826 149.832C140.306 150.125 139.733 150.272 139.106 150.272ZM150.099 150.272C149.699 150.272 149.326 150.219 148.979 150.112C148.646 150.005 148.352 149.832 148.099 149.592C147.846 149.352 147.646 149.039 147.499 148.652C147.366 148.252 147.299 147.772 147.299 147.212V135.632C147.299 135.259 147.652 135.072 148.359 135.072H148.739C149.446 135.072 149.799 135.259 149.799 135.632V147.172C149.799 147.572 149.872 147.852 150.019 148.012C150.179 148.172 150.392 148.252 150.659 148.252C150.819 148.252 150.946 148.239 151.039 148.212C151.146 148.185 151.232 148.172 151.299 148.172C151.419 148.172 151.519 148.265 151.599 148.452C151.679 148.639 151.739 148.839 151.779 149.052C151.832 149.252 151.859 149.379 151.859 149.432C151.859 149.685 151.752 149.879 151.539 150.012C151.326 150.132 151.079 150.205 150.799 150.232C150.532 150.259 150.299 150.272 150.099 150.272ZM155.873 150.272C155.126 150.272 154.466 150.059 153.893 149.632C153.333 149.205 152.886 148.592 152.553 147.792C152.233 146.979 152.073 146.012 152.073 144.892C152.073 143.225 152.446 141.919 153.193 140.972C153.939 140.012 154.959 139.532 156.253 139.532C156.773 139.532 157.219 139.605 157.593 139.752C157.966 139.899 158.293 140.079 158.573 140.292V135.632C158.573 135.259 158.926 135.072 159.633 135.072H160.033C160.739 135.072 161.093 135.259 161.093 135.632V146.812C161.093 147.452 161.113 147.959 161.153 148.332C161.193 148.692 161.233 148.965 161.273 149.152C161.313 149.325 161.333 149.465 161.333 149.572C161.333 149.679 161.259 149.772 161.113 149.852C160.966 149.919 160.786 149.979 160.573 150.032C160.359 150.072 160.146 150.105 159.933 150.132C159.733 150.145 159.586 150.152 159.493 150.152C159.293 150.152 159.146 150.079 159.053 149.932C158.959 149.772 158.893 149.585 158.853 149.372C158.813 149.159 158.773 148.959 158.733 148.772C158.413 149.225 158.006 149.592 157.513 149.872C157.019 150.139 156.473 150.272 155.873 150.272ZM156.573 148.192C156.973 148.192 157.339 148.072 157.673 147.832C158.019 147.592 158.319 147.292 158.573 146.932V142.132C158.346 141.959 158.079 141.825 157.773 141.732C157.479 141.625 157.159 141.572 156.813 141.572C156.093 141.572 155.553 141.852 155.193 142.412C154.833 142.972 154.653 143.785 154.653 144.852C154.653 145.932 154.813 146.759 155.133 147.332C155.453 147.905 155.933 148.192 156.573 148.192ZM164.941 150.172C164.234 150.172 163.881 149.979 163.881 149.592V143.032C163.881 142.405 163.861 141.912 163.821 141.552C163.781 141.192 163.741 140.919 163.701 140.732C163.661 140.545 163.641 140.405 163.641 140.312C163.641 140.205 163.714 140.119 163.861 140.052C164.008 139.972 164.188 139.912 164.401 139.872C164.614 139.819 164.821 139.785 165.021 139.772C165.234 139.745 165.388 139.732 165.481 139.732C165.681 139.732 165.828 139.805 165.921 139.952C166.014 140.099 166.081 140.272 166.121 140.472C166.174 140.672 166.221 140.859 166.261 141.032C166.594 140.619 167.021 140.265 167.541 139.972C168.074 139.679 168.654 139.532 169.281 139.532C170.294 139.532 171.054 139.805 171.561 140.352C172.068 140.885 172.321 141.692 172.321 142.772V149.592C172.321 149.979 171.968 150.172 171.261 150.172H170.881C170.174 150.172 169.821 149.979 169.821 149.592V143.112C169.821 142.645 169.701 142.285 169.461 142.032C169.221 141.765 168.841 141.632 168.321 141.632C167.894 141.632 167.514 141.765 167.181 142.032C166.861 142.299 166.601 142.579 166.401 142.872V149.592C166.401 149.979 166.048 150.172 165.341 150.172H164.941ZM175.023 140.792C174.663 140.792 174.463 140.632 174.423 140.312L173.983 136.672C173.93 136.285 174.283 136.092 175.043 136.092H175.243C176.003 136.092 176.357 136.285 176.303 136.672L175.863 140.312C175.823 140.632 175.623 140.792 175.263 140.792H175.023ZM181.611 150.272C181.224 150.272 180.858 150.219 180.511 150.112C180.178 150.005 179.884 149.832 179.631 149.592C179.378 149.352 179.178 149.039 179.031 148.652C178.884 148.252 178.811 147.772 178.811 147.212V141.692H178.271C177.911 141.692 177.731 141.405 177.731 140.832V140.532C177.731 139.959 177.911 139.672 178.271 139.672H178.811L179.071 137.712C179.124 137.325 179.431 137.132 179.991 137.132H180.471C181.044 137.132 181.331 137.325 181.331 137.712V139.672H182.551C182.911 139.672 183.091 139.959 183.091 140.532V140.832C183.091 141.405 182.911 141.692 182.551 141.692H181.331V147.172C181.331 147.572 181.404 147.852 181.551 148.012C181.698 148.172 181.904 148.252 182.171 148.252C182.344 148.252 182.478 148.239 182.571 148.212C182.678 148.185 182.764 148.172 182.831 148.172C182.951 148.172 183.051 148.265 183.131 148.452C183.211 148.639 183.271 148.839 183.311 149.052C183.364 149.252 183.391 149.379 183.391 149.432C183.391 149.685 183.284 149.879 183.071 150.012C182.858 150.132 182.611 150.205 182.331 150.232C182.064 150.259 181.824 150.272 181.611 150.272ZM191.552 150.172C190.845 150.172 190.492 149.979 190.492 149.592V141.692H189.972C189.625 141.692 189.452 141.405 189.452 140.832V140.532C189.452 139.959 189.625 139.672 189.972 139.672H190.492V138.032C190.492 137.459 190.558 136.979 190.692 136.592C190.838 136.192 191.038 135.872 191.292 135.632C191.545 135.392 191.845 135.219 192.192 135.112C192.538 135.005 192.905 134.952 193.292 134.952C193.492 134.952 193.732 134.972 194.012 135.012C194.305 135.039 194.558 135.112 194.772 135.232C194.998 135.352 195.112 135.545 195.112 135.812C195.112 135.865 195.092 135.999 195.052 136.212C195.012 136.412 194.945 136.605 194.852 136.792C194.772 136.979 194.672 137.072 194.552 137.072C194.485 137.072 194.392 137.059 194.272 137.032C194.165 137.005 194.025 136.992 193.852 136.992C193.678 136.992 193.525 137.025 193.392 137.092C193.272 137.145 193.178 137.252 193.112 137.412C193.045 137.559 193.012 137.779 193.012 138.072V139.672H197.532C198.238 139.672 198.592 139.865 198.592 140.252V149.592C198.592 149.979 198.238 150.172 197.532 150.172H197.152C196.445 150.172 196.092 149.979 196.092 149.592V141.692H193.012V149.592C193.012 149.979 192.658 150.172 191.952 150.172H191.552ZM197.332 138.512C196.878 138.512 196.552 138.465 196.352 138.372C196.152 138.265 196.052 138.119 196.052 137.932V136.492C196.052 136.305 196.152 136.165 196.352 136.072C196.552 135.979 196.878 135.932 197.332 135.932C197.785 135.932 198.105 135.979 198.292 136.072C198.492 136.165 198.592 136.305 198.592 136.492V137.932C198.592 138.119 198.492 138.265 198.292 138.372C198.105 138.465 197.785 138.512 197.332 138.512ZM202.441 150.172C201.734 150.172 201.381 149.979 201.381 149.592V143.032C201.381 142.405 201.361 141.912 201.321 141.552C201.281 141.192 201.241 140.919 201.201 140.732C201.161 140.545 201.141 140.405 201.141 140.312C201.141 140.205 201.214 140.119 201.361 140.052C201.508 139.972 201.688 139.912 201.901 139.872C202.114 139.819 202.321 139.785 202.521 139.772C202.734 139.745 202.888 139.732 202.981 139.732C203.181 139.732 203.328 139.805 203.421 139.952C203.514 140.099 203.581 140.272 203.621 140.472C203.674 140.672 203.721 140.859 203.761 141.032C204.094 140.619 204.521 140.265 205.041 139.972C205.574 139.679 206.154 139.532 206.781 139.532C207.794 139.532 208.554 139.805 209.061 140.352C209.568 140.885 209.821 141.692 209.821 142.772V149.592C209.821 149.979 209.468 150.172 208.761 150.172H208.381C207.674 150.172 207.321 149.979 207.321 149.592V143.112C207.321 142.645 207.201 142.285 206.961 142.032C206.721 141.765 206.341 141.632 205.821 141.632C205.394 141.632 205.014 141.765 204.681 142.032C204.361 142.299 204.101 142.579 203.901 142.872V149.592C203.901 149.979 203.548 150.172 202.841 150.172H202.441ZM215.814 150.272C215.067 150.272 214.407 150.059 213.834 149.632C213.274 149.205 212.827 148.592 212.494 147.792C212.174 146.979 212.014 146.012 212.014 144.892C212.014 143.225 212.387 141.919 213.134 140.972C213.881 140.012 214.901 139.532 216.194 139.532C216.714 139.532 217.161 139.605 217.534 139.752C217.907 139.899 218.234 140.079 218.514 140.292V135.632C218.514 135.259 218.867 135.072 219.574 135.072H219.974C220.681 135.072 221.034 135.259 221.034 135.632V146.812C221.034 147.452 221.054 147.959 221.094 148.332C221.134 148.692 221.174 148.965 221.214 149.152C221.254 149.325 221.274 149.465 221.274 149.572C221.274 149.679 221.201 149.772 221.054 149.852C220.907 149.919 220.727 149.979 220.514 150.032C220.301 150.072 220.087 150.105 219.874 150.132C219.674 150.145 219.527 150.152 219.434 150.152C219.234 150.152 219.087 150.079 218.994 149.932C218.901 149.772 218.834 149.585 218.794 149.372C218.754 149.159 218.714 148.959 218.674 148.772C218.354 149.225 217.947 149.592 217.454 149.872C216.961 150.139 216.414 150.272 215.814 150.272ZM216.514 148.192C216.914 148.192 217.281 148.072 217.614 147.832C217.961 147.592 218.261 147.292 218.514 146.932V142.132C218.287 141.959 218.021 141.825 217.714 141.732C217.421 141.625 217.101 141.572 216.754 141.572C216.034 141.572 215.494 141.852 215.134 142.412C214.774 142.972 214.594 143.785 214.594 144.852C214.594 145.932 214.754 146.759 215.074 147.332C215.394 147.905 215.874 148.192 216.514 148.192ZM231.227 150.272C230.187 150.272 229.407 150.005 228.887 149.472C228.367 148.925 228.107 148.212 228.107 147.332C228.107 146.772 228.221 146.265 228.447 145.812C228.674 145.359 229.021 144.972 229.487 144.652C229.967 144.319 230.594 144.072 231.367 143.912C232.141 143.739 233.074 143.645 234.167 143.632V142.872C234.167 142.472 234.027 142.152 233.747 141.912C233.481 141.672 233.027 141.552 232.387 141.552C231.867 141.552 231.414 141.612 231.027 141.732C230.641 141.852 230.327 141.972 230.087 142.092C229.861 142.212 229.707 142.272 229.627 142.272C229.507 142.272 229.374 142.179 229.227 141.992C229.081 141.805 228.954 141.599 228.847 141.372C228.754 141.145 228.707 140.979 228.707 140.872C228.707 140.659 228.874 140.452 229.207 140.252C229.541 140.039 229.994 139.865 230.567 139.732C231.154 139.599 231.801 139.532 232.507 139.532C233.481 139.532 234.274 139.672 234.887 139.952C235.501 140.219 235.954 140.599 236.247 141.092C236.541 141.572 236.687 142.139 236.687 142.792V146.812C236.687 147.452 236.707 147.959 236.747 148.332C236.787 148.692 236.827 148.965 236.867 149.152C236.907 149.325 236.927 149.465 236.927 149.572C236.927 149.679 236.854 149.772 236.707 149.852C236.561 149.919 236.381 149.979 236.167 150.032C235.954 150.072 235.747 150.105 235.547 150.132C235.347 150.145 235.194 150.152 235.087 150.152C234.887 150.152 234.741 150.079 234.647 149.932C234.554 149.772 234.487 149.585 234.447 149.372C234.407 149.145 234.367 148.945 234.327 148.772C234.207 148.919 234.014 149.112 233.747 149.352C233.481 149.592 233.141 149.805 232.727 149.992C232.314 150.179 231.814 150.272 231.227 150.272ZM231.907 148.252C232.414 148.252 232.854 148.125 233.227 147.872C233.614 147.605 233.927 147.292 234.167 146.932V145.412C233.674 145.412 233.214 145.439 232.787 145.492C232.374 145.545 232.001 145.632 231.667 145.752C231.347 145.872 231.101 146.045 230.927 146.272C230.754 146.485 230.667 146.759 230.667 147.092C230.667 147.452 230.767 147.739 230.967 147.952C231.181 148.152 231.494 148.252 231.907 148.252ZM240.586 150.172C239.879 150.172 239.526 149.979 239.526 149.592V143.032C239.526 142.405 239.506 141.912 239.466 141.552C239.426 141.192 239.386 140.919 239.346 140.732C239.306 140.545 239.286 140.405 239.286 140.312C239.286 140.205 239.359 140.119 239.506 140.052C239.652 139.972 239.832 139.912 240.046 139.872C240.259 139.819 240.466 139.785 240.666 139.772C240.879 139.745 241.032 139.732 241.126 139.732C241.326 139.732 241.472 139.805 241.566 139.952C241.659 140.099 241.726 140.272 241.766 140.472C241.819 140.672 241.866 140.859 241.906 141.032C242.239 140.619 242.666 140.265 243.186 139.972C243.719 139.679 244.299 139.532 244.926 139.532C245.939 139.532 246.699 139.805 247.206 140.352C247.712 140.885 247.966 141.692 247.966 142.772V149.592C247.966 149.979 247.612 150.172 246.906 150.172H246.526C245.819 150.172 245.466 149.979 245.466 149.592V143.112C245.466 142.645 245.346 142.285 245.106 142.032C244.866 141.765 244.486 141.632 243.966 141.632C243.539 141.632 243.159 141.765 242.826 142.032C242.506 142.299 242.246 142.579 242.046 142.872V149.592C242.046 149.979 241.692 150.172 240.986 150.172H240.586ZM252.478 154.272C251.798 154.272 251.458 154.139 251.458 153.872C251.458 153.832 251.465 153.785 251.478 153.732C251.492 153.679 251.518 153.612 251.558 153.532L253.298 149.012V150.892L249.578 140.372C249.565 140.319 249.552 140.265 249.538 140.212C249.525 140.145 249.518 140.085 249.518 140.032C249.518 139.765 249.885 139.632 250.618 139.632H251.078C251.345 139.632 251.565 139.659 251.738 139.712C251.925 139.765 252.045 139.865 252.098 140.012L253.578 144.312C253.658 144.579 253.752 144.932 253.858 145.372C253.965 145.799 254.065 146.205 254.158 146.592H254.218C254.325 146.205 254.432 145.792 254.538 145.352C254.645 144.899 254.738 144.552 254.818 144.312L256.278 140.012C256.332 139.865 256.445 139.765 256.618 139.712C256.805 139.659 257.032 139.632 257.298 139.632H257.638C258.345 139.632 258.698 139.765 258.698 140.032C258.698 140.125 258.678 140.239 258.638 140.372L253.858 153.852C253.805 153.999 253.685 154.105 253.498 154.172C253.312 154.239 253.078 154.272 252.798 154.272H252.478ZM115.743 174.172C115.036 174.172 114.683 173.979 114.683 173.592V167.032C114.683 166.405 114.663 165.912 114.623 165.552C114.583 165.192 114.543 164.919 114.503 164.732C114.463 164.545 114.443 164.405 114.443 164.312C114.443 164.205 114.516 164.119 114.663 164.052C114.809 163.972 114.989 163.912 115.203 163.872C115.416 163.819 115.623 163.785 115.823 163.772C116.023 163.745 116.176 163.732 116.283 163.732C116.469 163.732 116.609 163.805 116.703 163.952C116.809 164.099 116.883 164.272 116.923 164.472C116.963 164.672 117.003 164.859 117.043 165.032C117.296 164.619 117.596 164.265 117.943 163.972C118.303 163.679 118.743 163.532 119.263 163.532C119.729 163.532 120.036 163.619 120.183 163.792C120.343 163.965 120.423 164.205 120.423 164.512C120.423 164.632 120.396 164.812 120.343 165.052C120.303 165.279 120.243 165.492 120.163 165.692C120.083 165.879 119.983 165.972 119.863 165.972C119.729 165.972 119.596 165.945 119.463 165.892C119.329 165.825 119.136 165.792 118.883 165.792C118.589 165.792 118.323 165.865 118.083 166.012C117.843 166.159 117.643 166.319 117.483 166.492C117.336 166.652 117.243 166.779 117.203 166.872V173.592C117.203 173.979 116.843 174.172 116.123 174.172H115.743ZM126.216 174.272C124.456 174.272 123.163 173.805 122.336 172.872C121.51 171.939 121.096 170.639 121.096 168.972C121.096 167.692 121.29 166.652 121.676 165.852C122.076 165.052 122.636 164.465 123.356 164.092C124.076 163.719 124.923 163.532 125.896 163.532C126.91 163.532 127.723 163.759 128.336 164.212C128.963 164.652 129.423 165.265 129.716 166.052C130.01 166.825 130.156 167.712 130.156 168.712C130.156 168.805 130.096 168.939 129.976 169.112C129.87 169.285 129.743 169.439 129.596 169.572C129.45 169.705 129.336 169.772 129.256 169.772H123.736C123.803 170.665 124.056 171.305 124.496 171.692C124.936 172.065 125.536 172.252 126.296 172.252C126.776 172.252 127.19 172.192 127.536 172.072C127.896 171.952 128.19 171.839 128.416 171.732C128.656 171.612 128.816 171.552 128.896 171.552C129.016 171.552 129.15 171.645 129.296 171.832C129.443 172.005 129.563 172.199 129.656 172.412C129.763 172.612 129.816 172.772 129.816 172.892C129.816 173.105 129.696 173.299 129.456 173.472C129.23 173.632 128.93 173.779 128.556 173.912C128.183 174.032 127.79 174.119 127.376 174.172C126.963 174.239 126.576 174.272 126.216 174.272ZM123.736 167.972H127.656C127.656 167.225 127.51 166.639 127.216 166.212C126.936 165.772 126.49 165.552 125.876 165.552C125.303 165.552 124.823 165.739 124.436 166.112C124.063 166.485 123.83 167.105 123.736 167.972ZM134.858 174.292C134.338 174.292 133.824 174.232 133.318 174.112C132.811 173.992 132.398 173.832 132.078 173.632C131.758 173.432 131.598 173.212 131.598 172.972C131.598 172.825 131.651 172.652 131.758 172.452C131.864 172.239 131.991 172.045 132.138 171.872C132.284 171.699 132.418 171.612 132.538 171.612C132.618 171.612 132.751 171.665 132.938 171.772C133.124 171.879 133.358 171.992 133.638 172.112C133.931 172.219 134.271 172.272 134.658 172.272C135.644 172.272 136.138 171.912 136.138 171.192C136.138 170.819 135.971 170.539 135.638 170.352C135.304 170.152 134.891 169.952 134.398 169.752C134.024 169.605 133.638 169.425 133.238 169.212C132.838 168.999 132.504 168.692 132.238 168.292C131.971 167.892 131.838 167.352 131.838 166.672C131.838 166.019 131.984 165.459 132.278 164.992C132.571 164.525 132.984 164.165 133.518 163.912C134.051 163.645 134.664 163.512 135.358 163.512C135.771 163.512 136.198 163.552 136.638 163.632C137.091 163.712 137.471 163.832 137.778 163.992C138.084 164.152 138.238 164.345 138.238 164.572C138.238 164.705 138.191 164.885 138.098 165.112C138.018 165.339 137.918 165.545 137.798 165.732C137.691 165.905 137.578 165.992 137.458 165.992C137.364 165.992 137.171 165.919 136.878 165.772C136.584 165.612 136.178 165.532 135.658 165.532C135.271 165.532 134.958 165.612 134.718 165.772C134.478 165.919 134.358 166.152 134.358 166.472C134.358 166.819 134.491 167.085 134.758 167.272C135.038 167.445 135.444 167.625 135.978 167.812C136.404 167.959 136.818 168.152 137.218 168.392C137.631 168.619 137.971 168.939 138.238 169.352C138.518 169.765 138.658 170.312 138.658 170.992C138.658 171.632 138.498 172.205 138.178 172.712C137.871 173.205 137.438 173.592 136.878 173.872C136.318 174.152 135.644 174.292 134.858 174.292ZM143.559 174.272C142.559 174.272 141.799 174.005 141.279 173.472C140.773 172.925 140.519 172.112 140.519 171.032V164.212C140.519 163.825 140.873 163.632 141.579 163.632H141.959C142.666 163.632 143.019 163.825 143.019 164.212V170.692C143.019 171.159 143.139 171.525 143.379 171.792C143.619 172.045 143.999 172.172 144.519 172.172C144.946 172.172 145.319 172.039 145.639 171.772C145.973 171.505 146.239 171.225 146.439 170.932V164.212C146.439 163.825 146.793 163.632 147.499 163.632H147.899C148.606 163.632 148.959 163.825 148.959 164.212V170.812C148.959 171.452 148.979 171.959 149.019 172.332C149.059 172.692 149.099 172.965 149.139 173.152C149.179 173.325 149.199 173.465 149.199 173.572C149.199 173.679 149.126 173.772 148.979 173.852C148.833 173.919 148.653 173.979 148.439 174.032C148.226 174.072 148.013 174.105 147.799 174.132C147.599 174.145 147.453 174.152 147.359 174.152C147.159 174.152 147.013 174.079 146.919 173.932C146.826 173.772 146.753 173.585 146.699 173.372C146.659 173.145 146.619 172.945 146.579 172.772C146.246 173.172 145.813 173.525 145.279 173.832C144.759 174.125 144.186 174.272 143.559 174.272ZM154.552 174.272C154.152 174.272 153.779 174.219 153.432 174.112C153.099 174.005 152.806 173.832 152.552 173.592C152.299 173.352 152.099 173.039 151.952 172.652C151.819 172.252 151.752 171.772 151.752 171.212V159.632C151.752 159.259 152.106 159.072 152.812 159.072H153.192C153.899 159.072 154.252 159.259 154.252 159.632V171.172C154.252 171.572 154.326 171.852 154.472 172.012C154.632 172.172 154.846 172.252 155.112 172.252C155.272 172.252 155.399 172.239 155.492 172.212C155.599 172.185 155.686 172.172 155.752 172.172C155.872 172.172 155.972 172.265 156.052 172.452C156.132 172.639 156.192 172.839 156.232 173.052C156.286 173.252 156.312 173.379 156.312 173.432C156.312 173.685 156.206 173.879 155.992 174.012C155.779 174.132 155.532 174.205 155.252 174.232C154.986 174.259 154.752 174.272 154.552 174.272ZM160.83 174.272C160.443 174.272 160.076 174.219 159.73 174.112C159.396 174.005 159.103 173.832 158.85 173.592C158.596 173.352 158.396 173.039 158.25 172.652C158.103 172.252 158.03 171.772 158.03 171.212V165.692H157.49C157.13 165.692 156.95 165.405 156.95 164.832V164.532C156.95 163.959 157.13 163.672 157.49 163.672H158.03L158.29 161.712C158.343 161.325 158.65 161.132 159.21 161.132H159.69C160.263 161.132 160.55 161.325 160.55 161.712V163.672H161.77C162.13 163.672 162.31 163.959 162.31 164.532V164.832C162.31 165.405 162.13 165.692 161.77 165.692H160.55V171.172C160.55 171.572 160.623 171.852 160.77 172.012C160.916 172.172 161.123 172.252 161.39 172.252C161.563 172.252 161.696 172.239 161.79 172.212C161.896 172.185 161.983 172.172 162.05 172.172C162.17 172.172 162.27 172.265 162.35 172.452C162.43 172.639 162.49 172.839 162.53 173.052C162.583 173.252 162.61 173.379 162.61 173.432C162.61 173.685 162.503 173.879 162.29 174.012C162.076 174.132 161.83 174.205 161.55 174.232C161.283 174.259 161.043 174.272 160.83 174.272ZM167.026 174.292C166.506 174.292 165.992 174.232 165.486 174.112C164.979 173.992 164.566 173.832 164.246 173.632C163.926 173.432 163.766 173.212 163.766 172.972C163.766 172.825 163.819 172.652 163.926 172.452C164.032 172.239 164.159 172.045 164.306 171.872C164.452 171.699 164.586 171.612 164.706 171.612C164.786 171.612 164.919 171.665 165.106 171.772C165.292 171.879 165.526 171.992 165.806 172.112C166.099 172.219 166.439 172.272 166.826 172.272C167.812 172.272 168.306 171.912 168.306 171.192C168.306 170.819 168.139 170.539 167.806 170.352C167.472 170.152 167.059 169.952 166.566 169.752C166.192 169.605 165.806 169.425 165.406 169.212C165.006 168.999 164.672 168.692 164.406 168.292C164.139 167.892 164.006 167.352 164.006 166.672C164.006 166.019 164.152 165.459 164.446 164.992C164.739 164.525 165.152 164.165 165.686 163.912C166.219 163.645 166.832 163.512 167.526 163.512C167.939 163.512 168.366 163.552 168.806 163.632C169.259 163.712 169.639 163.832 169.946 163.992C170.252 164.152 170.406 164.345 170.406 164.572C170.406 164.705 170.359 164.885 170.266 165.112C170.186 165.339 170.086 165.545 169.966 165.732C169.859 165.905 169.746 165.992 169.626 165.992C169.532 165.992 169.339 165.919 169.046 165.772C168.752 165.612 168.346 165.532 167.826 165.532C167.439 165.532 167.126 165.612 166.886 165.772C166.646 165.919 166.526 166.152 166.526 166.472C166.526 166.819 166.659 167.085 166.926 167.272C167.206 167.445 167.612 167.625 168.146 167.812C168.572 167.959 168.986 168.152 169.386 168.392C169.799 168.619 170.139 168.939 170.406 169.352C170.686 169.765 170.826 170.312 170.826 170.992C170.826 171.632 170.666 172.205 170.346 172.712C170.039 173.205 169.606 173.592 169.046 173.872C168.486 174.152 167.812 174.292 167.026 174.292ZM173.107 174.172C172.401 174.172 172.047 173.979 172.047 173.592V171.932C172.047 171.559 172.401 171.372 173.107 171.372H173.647C174.354 171.372 174.707 171.559 174.707 171.932V173.592C174.707 173.979 174.354 174.172 173.647 174.172H173.107Z" fill="#3B3B4D"/>
<path fill-rule="evenodd" clip-rule="evenodd" d="M96.4012 31.5224C96.8951 33.3131 97.7684 34.7421 98.7902 35.4821C99.6359 34.5458 100.193 32.9665 100.304 31.1122C102.094 30.6183 103.523 29.745 104.263 28.7232C103.327 27.8776 101.748 27.3205 99.8936 27.2097C99.3996 25.419 98.5264 23.99 97.5046 23.25C96.6589 24.1863 96.1019 25.7656 95.991 27.6198C94.2004 28.1138 92.7713 28.987 92.0313 30.0089C92.9676 30.8545 94.547 31.4116 96.4012 31.5224ZM216.192 55.148C215.096 53.6884 213.006 52.4611 210.403 51.7917C210.196 49.112 209.35 46.8412 208.103 45.508C206.644 46.6044 205.416 48.6938 204.747 51.2969C202.067 51.5041 199.796 52.3499 198.463 53.5969C199.56 55.0565 201.649 56.2838 204.252 56.9532C204.459 59.6329 205.305 61.9038 206.552 63.2369C208.012 62.1406 209.239 60.0511 209.908 57.4481C212.588 57.2408 214.859 56.3951 216.192 55.148ZM86.6408 95.4792C85.402 95.2403 84.0067 94.3143 82.8022 92.9001C81.0749 93.5833 79.4081 93.7459 78.2021 93.3752C78.441 92.1363 79.3671 90.741 80.7812 89.5365C80.098 87.8092 79.9354 86.1424 80.3062 84.9365C81.545 85.1753 82.9403 86.1014 84.1448 87.5155C85.8721 86.8323 87.5389 86.6697 88.7449 87.0405C88.506 88.2793 87.5799 89.6746 86.1658 90.8791C86.849 92.6064 87.0116 94.2732 86.6408 95.4792Z" fill="#D5EDF1"/>
<path fill-rule="evenodd" clip-rule="evenodd" d="M119.77 105.127C117.418 105.542 115.124 104.172 114.433 101.886C112.889 96.7758 110.265 87.4916 108.705 78.643C107.135 69.7417 106.548 60.7456 106.332 55.8781C106.236 53.7005 107.663 51.7826 109.768 51.2161C115.831 49.5843 128.4 46.3192 137.564 44.7331C146.113 43.2534 156.477 42.3167 162.178 41.8722C164.617 41.682 166.778 43.3853 167.203 45.7939L175.084 90.4895C175.545 93.1056 173.798 95.6003 171.182 96.0616L119.77 105.127Z" fill="#EEFAFC" stroke="#A3BFC6" stroke-width="1.44298" stroke-linecap="round"/>
<path fill-rule="evenodd" clip-rule="evenodd" d="M116.671 66.961L152.999 60.6438C154.833 60.3248 156.319 58.9757 156.813 57.1804L157.87 53.3354C158.363 51.544 159.843 50.1966 161.672 49.874L173.227 47.8365C175.844 47.3752 178.338 49.1221 178.8 51.7381C178.856 52.0607 178.88 52.3881 178.871 52.7155L177.793 89.154C177.726 91.4337 176.067 93.3526 173.821 93.7487L120.18 103.207" fill="#EEFAFC"/>
<path d="M116.671 66.961L152.999 60.6438C154.833 60.3248 156.319 58.9757 156.813 57.1804L157.87 53.3354C158.363 51.544 159.843 50.1966 161.672 49.874L173.227 47.8365C175.844 47.3752 178.338 49.1221 178.8 51.7381C178.856 52.0607 178.88 52.3881 178.871 52.7155L177.793 89.154C177.726 91.4337 176.067 93.3526 173.821 93.7487L120.18 103.207" stroke="#A3BFC6" stroke-width="1.44298" stroke-linecap="round"/>
<path fill-rule="evenodd" clip-rule="evenodd" d="M119.802 105.633C116.763 105.938 114.243 103.349 114.601 100.315L117.132 78.8538C117.38 76.7451 118.982 75.0489 121.073 74.6802L158.399 68.0986C160.335 67.7574 161.868 66.2731 162.271 64.3498L163.641 57.8272C164.044 55.9039 165.577 54.4196 167.513 54.0784L178.868 52.0762C181.532 51.6063 184.046 53.4258 184.332 56.1163C184.808 60.5903 185.363 67.5274 185.182 74.3394C184.979 81.9864 183.88 88.2713 183.18 91.5742C182.845 93.1559 181.67 94.3913 180.122 94.8595C175.969 96.116 167.008 98.6794 156.563 100.768C146.242 102.833 128.863 104.724 119.802 105.633Z" fill="white" stroke="#A3BFC6" stroke-width="1.44298" stroke-linecap="round"/>
</svg>
