<svg width="255" height="143" viewBox="0 0 255 143" fill="none" xmlns="http://www.w3.org/2000/svg">
<path fill-rule="evenodd" clip-rule="evenodd" d="M46.3611 98.1253C46.3611 102.671 50.0464 106.357 54.5926 106.357H226.278C230.824 106.357 234.509 102.671 234.509 98.1253C234.509 93.5792 230.824 89.8938 226.278 89.8938H219.222C214.676 89.8938 210.991 86.2085 210.991 81.6623C210.991 77.1162 214.676 73.4309 219.222 73.4309H241.565C246.111 73.4309 249.796 69.7455 249.796 65.1994C249.796 60.6533 246.111 56.9679 241.565 56.9679H215.694C220.24 56.9679 223.926 53.2825 223.926 48.7364C223.926 44.1903 220.24 40.5049 215.694 40.5049H140.435C144.981 40.5049 148.667 36.8196 148.667 32.2735C148.667 27.7274 144.981 24.042 140.435 24.042H73.4074C68.8612 24.042 65.1759 27.7274 65.1759 32.2735C65.1759 36.8196 68.8612 40.5049 73.4074 40.5049H26.3704C21.8242 40.5049 18.1389 44.1903 18.1389 48.7364C18.1389 53.2825 21.8242 56.9679 26.3704 56.9679H55.7685C60.3146 56.9679 64 60.6533 64 65.1994C64 69.7455 60.3146 73.4309 55.7685 73.4309H8.73148C4.18536 73.4309 0.5 77.1162 0.5 81.6623C0.5 86.2085 4.18536 89.8938 8.73148 89.8938H54.5926C50.0464 89.8938 46.3611 93.5792 46.3611 98.1253ZM254.5 98.1253C254.5 102.671 250.814 106.357 246.268 106.357C241.722 106.357 238.037 102.671 238.037 98.1253C238.037 93.5792 241.722 89.8938 246.268 89.8938C250.814 89.8938 254.5 93.5792 254.5 98.1253Z" fill="#FFF7F7"/>
<path d="M188.061 1.69922V8.75477" stroke="#FF5858" stroke-width="2.5" stroke-linecap="round" stroke-linejoin="round"/>
<path d="M188.061 18.1621V25.2177" stroke="#FF5858" stroke-width="2.5" stroke-linecap="round" stroke-linejoin="round"/>
<path d="M176.301 13.4579H183.357" stroke="#FF5858" stroke-width="2.5" stroke-linecap="round" stroke-linejoin="round"/>
<path d="M192.764 13.4579H199.819" stroke="#FF5858" stroke-width="2.5" stroke-linecap="round" stroke-linejoin="round"/>
<path d="M90.4591 122.819V127.523" stroke="#FF5858" stroke-width="2.5" stroke-linecap="round" stroke-linejoin="round"/>
<path d="M90.4591 136.931V141.634" stroke="#FF5858" stroke-width="2.5" stroke-linecap="round" stroke-linejoin="round"/>
<path d="M81.0513 132.227H85.755" stroke="#FF5858" stroke-width="2.5" stroke-linecap="round" stroke-linejoin="round"/>
<path d="M95.1626 132.227H99.8663" stroke="#FF5858" stroke-width="2.5" stroke-linecap="round" stroke-linejoin="round"/>
<path fill-rule="evenodd" clip-rule="evenodd" d="M110.145 112.533C115.56 114.844 121.345 116 127.5 116C133.662 116.006 139.447 114.852 144.855 112.537C150.264 110.223 154.973 107.087 158.984 103.13C162.995 99.1729 166.165 94.5163 168.494 89.16C170.823 83.8037 171.992 78.0837 172 72C172.009 65.9163 170.842 60.1963 168.498 54.84C166.155 49.4837 162.983 44.8271 158.984 40.87C154.985 36.9129 150.276 33.7787 144.855 31.4672C139.435 29.1557 133.65 28 127.5 28C121.351 28 115.566 29.1557 110.145 31.4672C104.725 33.7787 100.016 36.9129 96.0167 40.87C92.0177 44.8271 88.8478 49.4837 86.5071 54.84C84.1664 60.1963 82.9975 65.9163 83.0005 72C83.0035 78.0837 84.1723 83.8037 86.5071 89.16C88.8419 94.5163 92.0117 99.1729 96.0167 103.13C100.022 107.087 104.731 110.221 110.145 112.533ZM109 55.2574L111.257 53.0004L146 87.7434L143.743 90.0004L138.082 84.3394C134.885 86.9356 130.839 88.2547 126.726 88.042C122.613 87.8292 118.725 86.0997 115.813 83.1875C112.901 80.2753 111.171 76.3872 110.958 72.2742C110.746 68.1613 112.065 64.1155 114.661 60.9184L109 55.2574ZM118.25 69.6504V73.3504H127.093L123.393 69.6504H118.25ZM119.619 56.8484C122.041 55.5414 124.748 54.8549 127.5 54.8504C130.378 54.8529 133.207 55.6016 135.71 57.0234C138.212 58.4451 140.304 60.4914 141.78 62.9626C143.256 65.4337 144.066 68.2452 144.131 71.1229C144.196 74.0005 143.514 76.8459 142.152 79.3814L136.121 73.3504H136.75V69.6504H132.421L119.619 56.8484Z" fill="#FF5858"/>
</svg>
