<svg width="205" height="204" viewBox="0 0 205 204" fill="none" xmlns="http://www.w3.org/2000/svg">
<circle cx="102.5" cy="102" r="102" fill="url(#paint0_linear_474_3863)" fill-opacity="0.05"/>
<mask id="mask0_474_3863" style="mask-type:alpha" maskUnits="userSpaceOnUse" x="0" y="0" width="205" height="204">
<circle cx="102.5" cy="102" r="102" fill="url(#paint1_linear_474_3863)"/>
</mask>
<g mask="url(#mask0_474_3863)">
<mask id="mask1_474_3863" style="mask-type:alpha" maskUnits="userSpaceOnUse" x="4" y="2" width="201" height="201">
<path d="M104.5 203C160.005 203 205 158.005 205 102.5C205 46.9954 160.005 2 104.5 2C48.9954 2 4 46.9954 4 102.5C4 158.005 48.9954 203 104.5 203Z" fill="url(#paint2_linear_474_3863)"/>
</mask>
<g mask="url(#mask1_474_3863)">
<path d="M162.12 59.6191H46.8797C43.1794 59.6191 40.1797 62.6188 40.1797 66.3191V207.019C40.1797 210.719 43.1794 213.719 46.8797 213.719H162.12C165.82 213.719 168.82 210.719 168.82 207.019V66.3191C168.82 62.6188 165.82 59.6191 162.12 59.6191Z" fill="white"/>
<path d="M55.8215 86.022C55.4841 86.022 55.3155 85.9303 55.3155 85.747V78.663C55.3155 78.421 55.4365 78.3 55.6785 78.3H59.1875C59.3561 78.3 59.4405 78.432 59.4405 78.696V78.916C59.4405 79.18 59.3561 79.312 59.1875 79.312H56.4925V81.809H59.0225C59.1911 81.809 59.2755 81.941 59.2755 82.205V82.425C59.2755 82.689 59.1911 82.821 59.0225 82.821H56.4925V85.747C56.4925 85.9303 56.3238 86.022 55.9865 86.022H55.8215ZM61.8347 86.077C61.2847 86.077 60.8447 85.9377 60.5147 85.659C60.192 85.373 60.0307 84.966 60.0307 84.438C60.0307 84.042 60.1187 83.7157 60.2947 83.459C60.4707 83.195 60.7163 82.9897 61.0317 82.843C61.3543 82.689 61.7283 82.5827 62.1537 82.524C62.579 82.458 63.041 82.425 63.5397 82.425V81.952C63.5397 81.71 63.4553 81.5083 63.2867 81.347C63.1253 81.1857 62.8393 81.105 62.4287 81.105C62.1207 81.105 61.8493 81.1417 61.6147 81.215C61.3873 81.2883 61.204 81.3617 61.0647 81.435C60.9327 81.5083 60.8447 81.545 60.8007 81.545C60.742 81.545 60.6797 81.501 60.6137 81.413C60.5477 81.325 60.489 81.2297 60.4377 81.127C60.3863 81.017 60.3607 80.94 60.3607 80.896C60.3607 80.7933 60.456 80.687 60.6467 80.577C60.8373 80.4597 61.0903 80.3643 61.4057 80.291C61.721 80.2103 62.0657 80.17 62.4397 80.17C62.931 80.17 63.3417 80.2433 63.6717 80.39C64.0017 80.5293 64.2473 80.731 64.4087 80.995C64.5773 81.259 64.6617 81.5707 64.6617 81.93V84.284C64.6617 84.6067 64.6727 84.867 64.6947 85.065C64.7167 85.263 64.7387 85.4133 64.7607 85.516C64.7827 85.6187 64.7937 85.6883 64.7937 85.725C64.7937 85.7837 64.7607 85.8313 64.6947 85.868C64.636 85.9047 64.5627 85.934 64.4747 85.956C64.3867 85.978 64.2987 85.9927 64.2107 86C64.13 86.0073 64.0677 86.011 64.0237 86.011C63.9283 86.011 63.855 85.9707 63.8037 85.89C63.7523 85.802 63.712 85.6993 63.6827 85.582C63.6607 85.4573 63.6387 85.3437 63.6167 85.241C63.514 85.3657 63.3783 85.494 63.2097 85.626C63.041 85.7507 62.843 85.857 62.6157 85.945C62.3957 86.033 62.1353 86.077 61.8347 86.077ZM62.0217 85.131C62.3737 85.131 62.667 85.0577 62.9017 84.911C63.1437 84.7643 63.3563 84.592 63.5397 84.394V83.294C63.261 83.294 62.9823 83.305 62.7037 83.327C62.4323 83.349 62.1793 83.393 61.9447 83.459C61.7173 83.525 61.534 83.6313 61.3947 83.778C61.2627 83.9173 61.1967 84.108 61.1967 84.35C61.1967 84.5993 61.2663 84.7937 61.4057 84.933C61.545 85.065 61.7503 85.131 62.0217 85.131ZM68.7748 86.077C67.8728 86.077 67.1908 85.846 66.7288 85.384C66.2741 84.9147 66.0468 84.1593 66.0468 83.118C66.0468 82.568 66.1165 82.106 66.2558 81.732C66.3951 81.3507 66.5858 81.0463 66.8278 80.819C67.0771 80.5917 67.3631 80.4267 67.6858 80.324C68.0085 80.2213 68.3531 80.17 68.7198 80.17C68.9985 80.17 69.2661 80.1957 69.5228 80.247C69.7868 80.2983 70.0031 80.368 70.1718 80.456C70.3405 80.544 70.4248 80.643 70.4248 80.753C70.4248 80.8117 70.3991 80.896 70.3478 81.006C70.2965 81.116 70.2378 81.215 70.1718 81.303C70.1131 81.3837 70.0545 81.424 69.9958 81.424C69.9885 81.424 69.9738 81.4203 69.9518 81.413C69.9298 81.3983 69.8968 81.3837 69.8528 81.369C69.7575 81.325 69.6145 81.27 69.4238 81.204C69.2405 81.138 69.0095 81.105 68.7308 81.105C68.2615 81.105 67.8948 81.259 67.6308 81.567C67.3668 81.875 67.2348 82.381 67.2348 83.085C67.2348 83.7963 67.3521 84.317 67.5868 84.647C67.8215 84.977 68.2211 85.142 68.7858 85.142C69.0791 85.142 69.3248 85.109 69.5228 85.043C69.7281 84.9697 69.8821 84.9073 69.9848 84.856C70.0215 84.8413 70.0508 84.8303 70.0728 84.823C70.0948 84.8157 70.1131 84.812 70.1278 84.812C70.1865 84.812 70.2488 84.856 70.3148 84.944C70.3808 85.0247 70.4358 85.1163 70.4798 85.219C70.5311 85.3143 70.5568 85.3913 70.5568 85.45C70.5568 85.5453 70.5018 85.6297 70.3918 85.703C70.2818 85.7763 70.1388 85.8423 69.9628 85.901C69.7868 85.9523 69.5925 85.9927 69.3798 86.022C69.1745 86.0587 68.9728 86.077 68.7748 86.077ZM72.2547 86.022C71.9173 86.022 71.7487 85.9303 71.7487 85.747V80.5C71.7487 80.3167 71.9173 80.225 72.2547 80.225H72.3647C72.702 80.225 72.8707 80.3167 72.8707 80.5V85.747C72.8707 85.9303 72.702 86.022 72.3647 86.022H72.2547ZM72.3097 79.521C72.1043 79.521 71.954 79.499 71.8587 79.455C71.7707 79.4037 71.7267 79.334 71.7267 79.246V78.531C71.7267 78.443 71.7707 78.377 71.8587 78.333C71.954 78.2817 72.1043 78.256 72.3097 78.256C72.515 78.256 72.6617 78.2817 72.7497 78.333C72.845 78.377 72.8927 78.443 72.8927 78.531V79.246C72.8927 79.334 72.845 79.4037 72.7497 79.455C72.6617 79.499 72.515 79.521 72.3097 79.521ZM76.0678 86.077C75.8991 86.077 75.7268 86.0513 75.5508 86C75.3821 85.9487 75.2245 85.8643 75.0778 85.747C74.9311 85.6297 74.8138 85.4683 74.7258 85.263C74.6451 85.0503 74.6048 84.79 74.6048 84.482V77.992C74.6048 77.8087 74.7698 77.717 75.0998 77.717H75.2208C75.5581 77.717 75.7268 77.8087 75.7268 77.992V84.427C75.7268 84.7057 75.7781 84.8963 75.8808 84.999C75.9835 85.0943 76.1118 85.142 76.2658 85.142C76.3905 85.142 76.4785 85.1347 76.5298 85.12C76.5885 85.098 76.6398 85.087 76.6838 85.087C76.7425 85.087 76.7901 85.131 76.8268 85.219C76.8635 85.307 76.8928 85.3987 76.9148 85.494C76.9368 85.5893 76.9478 85.6517 76.9478 85.681C76.9478 85.7983 76.8965 85.8863 76.7938 85.945C76.6911 85.9963 76.5701 86.0293 76.4308 86.044C76.2988 86.066 76.1778 86.077 76.0678 86.077ZM78.4314 86.022C78.0941 86.022 77.9254 85.9303 77.9254 85.747V80.5C77.9254 80.3167 78.0941 80.225 78.4314 80.225H78.5414C78.8788 80.225 79.0474 80.3167 79.0474 80.5V85.747C79.0474 85.9303 78.8788 86.022 78.5414 86.022H78.4314ZM78.4864 79.521C78.2811 79.521 78.1308 79.499 78.0354 79.455C77.9474 79.4037 77.9034 79.334 77.9034 79.246V78.531C77.9034 78.443 77.9474 78.377 78.0354 78.333C78.1308 78.2817 78.2811 78.256 78.4864 78.256C78.6918 78.256 78.8384 78.2817 78.9264 78.333C79.0218 78.377 79.0694 78.443 79.0694 78.531V79.246C79.0694 79.334 79.0218 79.4037 78.9264 79.455C78.8384 79.499 78.6918 79.521 78.4864 79.521ZM82.4866 86.077C82.3179 86.077 82.1456 86.0513 81.9696 86C81.7936 85.9487 81.6322 85.8643 81.4856 85.747C81.3462 85.6297 81.2326 85.4683 81.1446 85.263C81.0566 85.0503 81.0126 84.79 81.0126 84.482V81.182H80.5726C80.4039 81.182 80.3196 81.05 80.3196 80.786V80.643C80.3196 80.379 80.4039 80.247 80.5726 80.247H81.0126L81.1556 79.125C81.1702 78.9417 81.3096 78.85 81.5736 78.85H81.7496C82.0136 78.85 82.1456 78.9417 82.1456 79.125V80.247H82.9596C83.1282 80.247 83.2126 80.379 83.2126 80.643V80.786C83.2126 81.05 83.1282 81.182 82.9596 81.182H82.1456V84.427C82.1456 84.7057 82.1932 84.8963 82.2886 84.999C82.3912 85.0943 82.5232 85.142 82.6846 85.142C82.8092 85.142 82.8972 85.1347 82.9486 85.12C83.0072 85.098 83.0586 85.087 83.1026 85.087C83.1612 85.087 83.2089 85.131 83.2456 85.219C83.2822 85.307 83.3116 85.3987 83.3336 85.494C83.3556 85.5893 83.3666 85.6517 83.3666 85.681C83.3666 85.7983 83.3152 85.8863 83.2126 85.945C83.1099 85.9963 82.9889 86.0293 82.8496 86.044C82.7176 86.066 82.5966 86.077 82.4866 86.077ZM85.3333 88.277C85.0327 88.277 84.8823 88.2147 84.8823 88.09C84.8823 88.068 84.886 88.046 84.8933 88.024C84.9007 88.002 84.9153 87.9617 84.9373 87.903L85.9603 85.362V86.22L83.9033 80.588C83.896 80.566 83.8887 80.5403 83.8813 80.511C83.874 80.4817 83.8703 80.4523 83.8703 80.423C83.8703 80.291 84.0463 80.225 84.3983 80.225H84.5633C84.688 80.225 84.7943 80.2397 84.8823 80.269C84.9703 80.2983 85.0253 80.346 85.0473 80.412L86.0373 83.129C86.096 83.2903 86.1547 83.4773 86.2133 83.69C86.272 83.9027 86.327 84.1043 86.3783 84.295H86.4003C86.459 84.1117 86.5177 83.91 86.5763 83.69C86.635 83.47 86.6937 83.283 86.7523 83.129L87.7203 80.412C87.7423 80.346 87.7973 80.2983 87.8853 80.269C87.9807 80.2397 88.0907 80.225 88.2153 80.225H88.3253C88.6553 80.225 88.8203 80.291 88.8203 80.423C88.8203 80.467 88.8093 80.5257 88.7873 80.599L86.0483 88.046C86.019 88.134 85.9567 88.1927 85.8613 88.222C85.766 88.2587 85.6487 88.277 85.5093 88.277H85.3333ZM92.9968 86C92.7548 86 92.6338 85.879 92.6338 85.637V78.663C92.6338 78.421 92.7548 78.3 92.9968 78.3H95.2518C95.9191 78.3 96.5095 78.432 97.0228 78.696C97.5435 78.9527 97.9505 79.3633 98.2438 79.928C98.5371 80.4927 98.6838 81.2333 98.6838 82.15C98.6838 82.8393 98.5995 83.4297 98.4308 83.921C98.2621 84.405 98.0238 84.801 97.7158 85.109C97.4151 85.4097 97.0558 85.6333 96.6378 85.78C96.2198 85.9267 95.7578 86 95.2518 86H92.9968ZM93.8108 84.988H95.1968C95.6441 84.988 96.0365 84.8927 96.3738 84.702C96.7185 84.504 96.9861 84.1997 97.1768 83.789C97.3748 83.371 97.4738 82.8247 97.4738 82.15C97.4738 81.4753 97.3748 80.9327 97.1768 80.522C96.9861 80.104 96.7185 79.7997 96.3738 79.609C96.0365 79.411 95.6441 79.312 95.1968 79.312H93.8108V84.988ZM102.592 86.077C101.654 86.077 100.961 85.8313 100.513 85.34C100.066 84.8413 99.8423 84.1153 99.8423 83.162C99.8423 82.4873 99.9449 81.93 100.15 81.49C100.356 81.05 100.653 80.72 101.041 80.5C101.43 80.28 101.896 80.17 102.438 80.17C102.966 80.17 103.399 80.2873 103.736 80.522C104.074 80.7567 104.323 81.0867 104.484 81.512C104.653 81.9373 104.737 82.447 104.737 83.041C104.737 83.085 104.712 83.1473 104.66 83.228C104.609 83.3087 104.55 83.382 104.484 83.448C104.418 83.514 104.363 83.547 104.319 83.547H101.03C101.074 84.1043 101.225 84.5113 101.481 84.768C101.738 85.0173 102.112 85.142 102.603 85.142C102.904 85.142 103.157 85.1053 103.362 85.032C103.575 84.9587 103.744 84.889 103.868 84.823C104 84.7497 104.088 84.713 104.132 84.713C104.191 84.713 104.253 84.757 104.319 84.845C104.385 84.9257 104.444 85.0173 104.495 85.12C104.547 85.2153 104.572 85.2887 104.572 85.34C104.572 85.428 104.514 85.516 104.396 85.604C104.286 85.692 104.136 85.7727 103.945 85.846C103.755 85.912 103.542 85.967 103.307 86.011C103.073 86.055 102.834 86.077 102.592 86.077ZM101.03 82.667H103.582C103.582 82.161 103.487 81.776 103.296 81.512C103.106 81.2407 102.812 81.105 102.416 81.105C102.013 81.105 101.694 81.2333 101.459 81.49C101.225 81.7393 101.082 82.1317 101.03 82.667ZM107.763 86.077C107.594 86.077 107.422 86.0513 107.246 86C107.07 85.9487 106.909 85.8643 106.762 85.747C106.623 85.6297 106.509 85.4683 106.421 85.263C106.333 85.0503 106.289 84.79 106.289 84.482V81.182H105.849C105.68 81.182 105.596 81.05 105.596 80.786V80.643C105.596 80.379 105.68 80.247 105.849 80.247H106.289L106.432 79.125C106.447 78.9417 106.586 78.85 106.85 78.85H107.026C107.29 78.85 107.422 78.9417 107.422 79.125V80.247H108.236C108.405 80.247 108.489 80.379 108.489 80.643V80.786C108.489 81.05 108.405 81.182 108.236 81.182H107.422V84.427C107.422 84.7057 107.47 84.8963 107.565 84.999C107.668 85.0943 107.8 85.142 107.961 85.142C108.086 85.142 108.174 85.1347 108.225 85.12C108.284 85.098 108.335 85.087 108.379 85.087C108.438 85.087 108.485 85.131 108.522 85.219C108.559 85.307 108.588 85.3987 108.61 85.494C108.632 85.5893 108.643 85.6517 108.643 85.681C108.643 85.7983 108.592 85.8863 108.489 85.945C108.386 85.9963 108.265 86.0293 108.126 86.044C107.994 86.066 107.873 86.077 107.763 86.077ZM111.292 86.077C110.742 86.077 110.302 85.9377 109.972 85.659C109.649 85.373 109.488 84.966 109.488 84.438C109.488 84.042 109.576 83.7157 109.752 83.459C109.928 83.195 110.173 82.9897 110.489 82.843C110.811 82.689 111.185 82.5827 111.611 82.524C112.036 82.458 112.498 82.425 112.997 82.425V81.952C112.997 81.71 112.912 81.5083 112.744 81.347C112.582 81.1857 112.296 81.105 111.886 81.105C111.578 81.105 111.306 81.1417 111.072 81.215C110.844 81.2883 110.661 81.3617 110.522 81.435C110.39 81.5083 110.302 81.545 110.258 81.545C110.199 81.545 110.137 81.501 110.071 81.413C110.005 81.325 109.946 81.2297 109.895 81.127C109.843 81.017 109.818 80.94 109.818 80.896C109.818 80.7933 109.913 80.687 110.104 80.577C110.294 80.4597 110.547 80.3643 110.863 80.291C111.178 80.2103 111.523 80.17 111.897 80.17C112.388 80.17 112.799 80.2433 113.129 80.39C113.459 80.5293 113.704 80.731 113.866 80.995C114.034 81.259 114.119 81.5707 114.119 81.93V84.284C114.119 84.6067 114.13 84.867 114.152 85.065C114.174 85.263 114.196 85.4133 114.218 85.516C114.24 85.6187 114.251 85.6883 114.251 85.725C114.251 85.7837 114.218 85.8313 114.152 85.868C114.093 85.9047 114.02 85.934 113.932 85.956C113.844 85.978 113.756 85.9927 113.668 86C113.587 86.0073 113.525 86.011 113.481 86.011C113.385 86.011 113.312 85.9707 113.261 85.89C113.209 85.802 113.169 85.6993 113.14 85.582C113.118 85.4573 113.096 85.3437 113.074 85.241C112.971 85.3657 112.835 85.494 112.667 85.626C112.498 85.7507 112.3 85.857 112.073 85.945C111.853 86.033 111.592 86.077 111.292 86.077ZM111.479 85.131C111.831 85.131 112.124 85.0577 112.359 84.911C112.601 84.7643 112.813 84.592 112.997 84.394V83.294C112.718 83.294 112.439 83.305 112.161 83.327C111.889 83.349 111.636 83.393 111.402 83.459C111.174 83.525 110.991 83.6313 110.852 83.778C110.72 83.9173 110.654 84.108 110.654 84.35C110.654 84.5993 110.723 84.7937 110.863 84.933C111.002 85.065 111.207 85.131 111.479 85.131ZM116.373 86.022C116.036 86.022 115.867 85.9303 115.867 85.747V80.5C115.867 80.3167 116.036 80.225 116.373 80.225H116.483C116.82 80.225 116.989 80.3167 116.989 80.5V85.747C116.989 85.9303 116.82 86.022 116.483 86.022H116.373ZM116.428 79.521C116.223 79.521 116.072 79.499 115.977 79.455C115.889 79.4037 115.845 79.334 115.845 79.246V78.531C115.845 78.443 115.889 78.377 115.977 78.333C116.072 78.2817 116.223 78.256 116.428 78.256C116.633 78.256 116.78 78.2817 116.868 78.333C116.963 78.377 117.011 78.443 117.011 78.531V79.246C117.011 79.334 116.963 79.4037 116.868 79.455C116.78 79.499 116.633 79.521 116.428 79.521ZM120.186 86.077C120.017 86.077 119.845 86.0513 119.669 86C119.5 85.9487 119.343 85.8643 119.196 85.747C119.049 85.6297 118.932 85.4683 118.844 85.263C118.763 85.0503 118.723 84.79 118.723 84.482V77.992C118.723 77.8087 118.888 77.717 119.218 77.717H119.339C119.676 77.717 119.845 77.8087 119.845 77.992V84.427C119.845 84.7057 119.896 84.8963 119.999 84.999C120.102 85.0943 120.23 85.142 120.384 85.142C120.509 85.142 120.597 85.1347 120.648 85.12C120.707 85.098 120.758 85.087 120.802 85.087C120.861 85.087 120.908 85.131 120.945 85.219C120.982 85.307 121.011 85.3987 121.033 85.494C121.055 85.5893 121.066 85.6517 121.066 85.681C121.066 85.7983 121.015 85.8863 120.912 85.945C120.809 85.9963 120.688 86.0293 120.549 86.044C120.417 86.066 120.296 86.077 120.186 86.077ZM123.309 86.099C122.993 86.099 122.7 86.0623 122.429 85.989C122.165 85.9083 121.948 85.813 121.78 85.703C121.618 85.593 121.538 85.4867 121.538 85.384C121.538 85.3253 121.563 85.2483 121.615 85.153C121.666 85.0503 121.725 84.9587 121.791 84.878C121.857 84.79 121.919 84.746 121.978 84.746C122.014 84.746 122.084 84.7827 122.187 84.856C122.289 84.922 122.429 84.988 122.605 85.054C122.781 85.12 122.986 85.153 123.221 85.153C123.859 85.153 124.178 84.9147 124.178 84.438C124.178 84.1813 124.079 83.9943 123.881 83.877C123.69 83.7523 123.444 83.6387 123.144 83.536C122.909 83.448 122.678 83.3453 122.451 83.228C122.223 83.1033 122.036 82.931 121.89 82.711C121.743 82.491 121.67 82.194 121.67 81.82C121.67 81.49 121.747 81.2003 121.901 80.951C122.062 80.7017 122.282 80.511 122.561 80.379C122.847 80.2397 123.173 80.17 123.54 80.17C123.782 80.17 124.016 80.192 124.244 80.236C124.478 80.2727 124.673 80.3313 124.827 80.412C124.981 80.4927 125.058 80.5843 125.058 80.687C125.058 80.753 125.036 80.841 124.992 80.951C124.948 81.0537 124.896 81.149 124.838 81.237C124.779 81.3177 124.72 81.358 124.662 81.358C124.625 81.358 124.522 81.314 124.354 81.226C124.192 81.138 123.965 81.094 123.672 81.094C123.43 81.094 123.224 81.149 123.056 81.259C122.887 81.369 122.803 81.5267 122.803 81.732C122.803 81.93 122.869 82.084 123.001 82.194C123.133 82.304 123.36 82.414 123.683 82.524C123.976 82.6193 124.244 82.7403 124.486 82.887C124.735 83.0263 124.933 83.2097 125.08 83.437C125.234 83.6643 125.311 83.9613 125.311 84.328C125.311 84.6727 125.226 84.977 125.058 85.241C124.889 85.505 124.654 85.714 124.354 85.868C124.053 86.022 123.705 86.099 123.309 86.099Z" fill="#54585A"/>
</g>
<path d="M149.141 97.7002H60.7008C57.7406 97.7002 55.3408 100.1 55.3408 103.06V116.46C55.3408 119.42 57.7406 121.82 60.7008 121.82H149.141C152.101 121.82 154.501 119.42 154.501 116.46V103.06C154.501 100.1 152.101 97.7002 149.141 97.7002Z" stroke="#2E813E" stroke-width="2"/>
<path d="M60.7 137.06H149.14C152.564 137.06 155.34 139.835 155.34 143.26V153.98C155.34 157.404 152.564 160.18 149.14 160.18H60.7C57.2758 160.18 54.5 157.404 54.5 153.98V143.26C54.5 139.835 57.2758 137.06 60.7 137.06Z" stroke="#F7F7F5"/>
<path d="M60.7 174.58H149.14C152.564 174.58 155.34 177.356 155.34 180.78V191.5C155.34 194.924 152.564 197.7 149.14 197.7H60.7C57.2758 197.7 54.5 194.924 54.5 191.5V180.78C54.5 177.356 57.2758 174.58 60.7 174.58Z" stroke="#F7F7F5"/>
<path d="M69.66 124.501C73.3603 124.501 76.36 121.501 76.36 117.801C76.36 114.1 73.3603 111.101 69.66 111.101C65.9597 111.101 62.96 114.1 62.96 117.801C62.96 121.501 65.9597 124.501 69.66 124.501Z" fill="#F7F7F5"/>
<path d="M74.8961 146.437C73.8241 146.437 72.8231 146.437 71.9119 146.38C70.7895 146.304 69.7098 145.92 68.7916 145.27C67.8734 144.62 67.1522 143.729 66.7074 142.696L61.0539 131.523C60.6393 131.04 60.4322 130.413 60.4779 129.779C60.5236 129.144 60.8183 128.553 61.2978 128.134C61.6906 127.819 62.1807 127.649 62.6847 127.653C63.0557 127.664 63.42 127.755 63.7525 127.92C64.0849 128.086 64.3776 128.321 64.6103 128.61L67.1777 132.114L67.2166 132.16V118.847C67.2166 118.186 67.479 117.553 67.946 117.086C68.413 116.619 69.0465 116.356 69.707 116.356C70.3675 116.356 71.0009 116.619 71.4679 117.086C71.935 117.553 72.1974 118.186 72.1974 118.847V127.557C72.1684 127.236 72.2066 126.913 72.3094 126.608C72.4122 126.303 72.5774 126.023 72.7945 125.786C73.0116 125.548 73.2758 125.358 73.5703 125.229C73.8647 125.099 74.183 125.032 74.5048 125.032C74.8266 125.032 75.1449 125.099 75.4394 125.229C75.7339 125.358 75.9981 125.548 76.2152 125.786C76.4322 126.023 76.5975 126.303 76.7003 126.608C76.8031 126.913 76.8412 127.236 76.8123 127.557V129.373C76.7834 129.052 76.8215 128.729 76.9244 128.424C77.0272 128.119 77.1924 127.839 77.4095 127.601C77.6266 127.364 77.8908 127.174 78.1852 127.044C78.4797 126.914 78.798 126.847 79.1198 126.847C79.4416 126.847 79.7599 126.914 80.0544 127.044C80.3488 127.174 80.613 127.364 80.8301 127.601C81.0472 127.839 81.2124 128.119 81.3152 128.424C81.418 128.729 81.4562 129.052 81.4273 129.373V130.772C81.3983 130.451 81.4365 130.128 81.5393 129.823C81.6421 129.518 81.8073 129.238 82.0244 129C82.2415 128.763 82.5057 128.573 82.8002 128.443C83.0947 128.313 83.4129 128.246 83.7348 128.246C84.0566 128.246 84.3748 128.313 84.6693 128.443C84.9638 128.573 85.228 128.763 85.4451 129C85.6622 129.238 85.8274 129.518 85.9302 129.823C86.033 130.128 86.0712 130.451 86.0422 130.772V139.263C85.9967 141.875 84.8161 146.278 80.6635 146.278C80.362 146.291 77.8079 146.439 74.9015 146.439L74.8961 146.437Z" fill="#2E813E" stroke="white"/>
</g>
<defs>
<linearGradient id="paint0_linear_474_3863" x1="93.4912" y1="204" x2="93.4912" y2="-73.6413" gradientUnits="userSpaceOnUse">
<stop stop-color="#137417"/>
<stop offset="1" stop-color="#EBF4EC"/>
</linearGradient>
<linearGradient id="paint1_linear_474_3863" x1="93.4912" y1="204" x2="93.4912" y2="-73.6413" gradientUnits="userSpaceOnUse">
<stop stop-color="#137417"/>
<stop offset="1" stop-color="#EBF4EC"/>
</linearGradient>
<linearGradient id="paint2_linear_474_3863" x1="104.5" y1="2" x2="104.5" y2="203" gradientUnits="userSpaceOnUse">
<stop stop-color="#E3ECFA"/>
<stop offset="1" stop-color="#DAE7FF"/>
</linearGradient>
</defs>
</svg>
