<svg width="205" height="204" viewBox="0 0 205 204" fill="none" xmlns="http://www.w3.org/2000/svg">
<circle cx="102.5" cy="102" r="102" fill="url(#paint0_linear_474_3863)" fill-opacity="0.05"/>
<mask id="mask0_474_3863" style="mask-type:alpha" maskUnits="userSpaceOnUse" x="0" y="0" width="205" height="204">
<circle cx="102.5" cy="102" r="102" fill="url(#paint1_linear_474_3863)"/>
</mask>
<g mask="url(#mask0_474_3863)">
<mask id="mask1_474_3863" style="mask-type:alpha" maskUnits="userSpaceOnUse" x="2" y="3" width="201" height="201">
<path d="M102.5 204C158.005 204 203 159.005 203 103.5C203 47.9954 158.005 3 102.5 3C46.9954 3 2 47.9954 2 103.5C2 159.005 46.9954 204 102.5 204Z" fill="url(#paint2_linear_474_3863)"/>
</mask>
<g mask="url(#mask1_474_3863)">
<path d="M152.582 89.1475C161.908 89.1475 169.469 96.7081 169.469 106.035V235.504C169.469 244.83 161.908 252.391 152.582 252.391H56.8873C47.5607 252.391 40 244.83 40 235.504V106.035C40 96.7081 47.5607 89.1475 56.8873 89.1475H70.96L-nan -nanL70.96 89.1475C70.96 107.801 86.0813 122.922 104.734 122.922C121.534 122.922 135.468 110.657 138.072 94.5932C138.555 91.6125 140.957 89.1475 143.977 89.1475H152.582Z" fill="white"/>
<g opacity="0.5">
<line x1="56" y1="194.5" x2="169" y2="194.5" stroke="#9E9E9E" stroke-dasharray="2 2"/>
<path d="M102 179C102 177.343 103.343 176 105 176C106.657 176 108 177.343 108 179V195H102V179Z" fill="#54585A"/>
<path d="M119 168C119 166.343 120.343 165 122 165C123.657 165 125 166.343 125 168V195.379H119V168Z" fill="#2E813E"/>
<path d="M136 160C136 158.343 137.343 157 139 157C140.657 157 142 158.343 142 160V194.919H136V160Z" fill="#54585A"/>
<path d="M68.4434 189C68.4434 187.343 69.7865 186 71.4434 186C73.1002 186 74.4434 187.343 74.4434 189V194.618H68.4434V189Z" fill="#2E813E"/>
<path d="M85 184C85 182.343 86.3431 181 88 181C89.6569 181 91 182.343 91 184V195.004H85V184Z" fill="#54585A"/>
</g>
<rect x="50.3407" y="119.277" width="101.176" height="30.6429" rx="2.39105" fill="white" stroke="#EFF2F7" stroke-width="0.251689"/>
<g filter="url(#filter0_d_474_3863)">
<rect x="55.459" y="124.397" width="20.4021" height="20.4021" rx="2.51689" fill="white"/>
</g>
<path d="M65.8292 129C62.6098 129 60 131.61 60 134.829C60 138.049 62.6098 140.658 65.8292 140.658C69.0485 140.658 71.6583 138.049 71.6583 134.829C71.6583 131.61 69.0485 129 65.8292 129Z" fill="#348D3D"/>
<path d="M66.298 131.514L65.7672 134.326L67.6902 134.332L65.0727 138.144L65.6035 135.051L63.6806 135.044L66.298 131.514ZM66.2984 131.04C66.2857 131.04 66.273 131.041 66.2605 131.041C66.1775 131.048 66.1224 131.076 66.0572 131.12C66.0204 131.145 65.9873 131.175 65.9587 131.209C65.9502 131.219 65.9421 131.23 65.9345 131.241L63.2983 134.758C63.1942 134.902 63.1789 135.092 63.2589 135.25C63.3387 135.409 63.5002 135.509 63.6772 135.511L65.0353 135.521L64.6083 138.057C64.5677 138.275 64.683 138.492 64.8859 138.579C64.9449 138.605 65.0084 138.618 65.0726 138.618C65.2204 138.618 65.3419 138.548 65.4331 138.422L68.0726 134.611C68.1767 134.467 68.1919 134.277 68.112 134.119C68.0321 133.96 67.8706 133.859 67.6936 133.858L66.3356 133.856L66.758 131.626C66.7669 131.589 66.7714 131.552 66.7714 131.514C66.7714 131.258 66.5687 131.049 66.3151 131.04C66.3095 131.04 66.3039 131.04 66.2984 131.04Z" fill="white"/>
<rect x="84.606" y="141.01" width="66.4525" height="2.91458" rx="1.45729" fill="#DBE5FA"/>
<rect x="84.606" y="141.01" width="47.566" height="2.91458" rx="1.45729" fill="#348D3D"/>
<rect x="84.6064" y="134.598" width="36.374" height="1.74875" rx="0.874375" fill="#DBE5FA"/>
<rect x="84.6064" y="125.271" width="66.4525" height="4.66334" rx="2.33167" fill="#DBE5FA"/>
<ellipse cx="105.145" cy="89.1454" rx="28.1454" ry="28.1454" fill="#2E813E"/>
<path d="M113.263 80.573C111.848 78.1484 109.913 76.8125 107.812 76.8125H102.188C100.088 76.8125 98.1516 78.1484 96.7371 80.573C95.4152 82.8383 94.6875 85.8359 94.6875 89C94.6875 92.1641 95.4152 95.1617 96.7371 97.427C98.1516 99.8516 100.088 101.188 102.188 101.188H107.812C109.913 101.188 111.848 99.8516 113.263 97.427C114.585 95.1617 115.312 92.1641 115.312 89C115.312 85.8359 114.585 82.8383 113.263 80.573ZM113.413 88.0625H109.663C109.59 86.1387 109.207 84.2393 108.529 82.4375H112.113C112.83 84.0055 113.304 85.9531 113.413 88.0625ZM110.999 80.5625H107.632C107.24 79.8832 106.768 79.2536 106.226 78.6875H107.812C108.984 78.6875 110.086 79.3906 110.999 80.5625ZM96.5625 89C96.5625 83.4102 99.1406 78.6875 102.188 78.6875C105.234 78.6875 107.812 83.4102 107.812 89C107.812 94.5898 105.234 99.3125 102.188 99.3125C99.1406 99.3125 96.5625 94.5898 96.5625 89ZM107.812 99.3125H106.229C106.772 98.7464 107.244 98.1168 107.636 97.4375H111.002C110.086 98.6094 108.984 99.3125 107.812 99.3125ZM112.113 95.5625H108.53C109.208 93.7607 109.591 91.8613 109.664 89.9375H113.414C113.304 92.0469 112.83 93.9945 112.113 95.5625Z" fill="white"/>
</g>
</g>
<defs>
<filter id="filter0_d_474_3863" x="53.1938" y="123.139" width="24.9323" height="24.9328" filterUnits="userSpaceOnUse" color-interpolation-filters="sRGB">
<feFlood flood-opacity="0" result="BackgroundImageFix"/>
<feColorMatrix in="SourceAlpha" type="matrix" values="0 0 0 0 0 0 0 0 0 0 0 0 0 0 0 0 0 0 127 0" result="hardAlpha"/>
<feOffset dy="1.00676"/>
<feGaussianBlur stdDeviation="1.1326"/>
<feComposite in2="hardAlpha" operator="out"/>
<feColorMatrix type="matrix" values="0 0 0 0 0 0 0 0 0 0 0 0 0 0 0 0 0 0 0.05 0"/>
<feBlend mode="normal" in2="BackgroundImageFix" result="effect1_dropShadow_474_3863"/>
<feBlend mode="normal" in="SourceGraphic" in2="effect1_dropShadow_474_3863" result="shape"/>
</filter>
<linearGradient id="paint0_linear_474_3863" x1="93.4912" y1="204" x2="93.4912" y2="-73.6413" gradientUnits="userSpaceOnUse">
<stop stop-color="#137417"/>
<stop offset="1" stop-color="#EBF4EC"/>
</linearGradient>
<linearGradient id="paint1_linear_474_3863" x1="93.4912" y1="204" x2="93.4912" y2="-73.6413" gradientUnits="userSpaceOnUse">
<stop stop-color="#137417"/>
<stop offset="1" stop-color="#EBF4EC"/>
</linearGradient>
<linearGradient id="paint2_linear_474_3863" x1="102.5" y1="3" x2="102.5" y2="204" gradientUnits="userSpaceOnUse">
<stop stop-color="#E3ECFA"/>
<stop offset="1" stop-color="#DAE7FF"/>
</linearGradient>
</defs>
</svg>
