<svg width="204" height="204" viewBox="0 0 204 204" fill="none" xmlns="http://www.w3.org/2000/svg">
<circle cx="102" cy="102" r="102" fill="url(#paint0_linear_951_3405)" fill-opacity="0.05"/>
<mask id="mask0_951_3405" style="mask-type:alpha" maskUnits="userSpaceOnUse" x="0" y="0" width="204" height="204">
<circle cx="102" cy="102" r="102" fill="url(#paint1_linear_951_3405)"/>
</mask>
<g mask="url(#mask0_951_3405)">
<mask id="mask1_951_3405" style="mask-type:alpha" maskUnits="userSpaceOnUse" x="3" y="2" width="202" height="201">
<path d="M104 203C159.505 203 204.5 158.005 204.5 102.5C204.5 46.9954 159.505 2 104 2C48.4954 2 3.5 46.9954 3.5 102.5C3.5 158.005 48.4954 203 104 203Z" fill="url(#paint2_linear_951_3405)"/>
</mask>
<g mask="url(#mask1_951_3405)">
<path d="M161.62 59.6191H46.3797C42.6794 59.6191 39.6797 62.6188 39.6797 66.3191V207.019C39.6797 210.719 42.6794 213.719 46.3797 213.719H161.62C165.32 213.719 168.32 210.719 168.32 207.019V66.3191C168.32 62.6188 165.32 59.6191 161.62 59.6191Z" fill="white"/>
</g>
<path d="M148.641 97.7002H60.2008C57.2406 97.7002 54.8408 100.1 54.8408 103.06V116.46C54.8408 119.42 57.2406 121.82 60.2008 121.82H148.641C151.601 121.82 154.001 119.42 154.001 116.46V103.06C154.001 100.1 151.601 97.7002 148.641 97.7002Z" stroke="#2E813E" stroke-width="2"/>
<path d="M60.2 137.06H148.64C152.064 137.06 154.84 139.835 154.84 143.26V153.98C154.84 157.404 152.064 160.18 148.64 160.18H60.2C56.7758 160.18 54 157.404 54 153.98V143.26C54 139.835 56.7758 137.06 60.2 137.06Z" stroke="#F7F7F5"/>
<path d="M60.2 174.58H148.64C152.064 174.58 154.84 177.356 154.84 180.78V191.5C154.84 194.924 152.064 197.7 148.64 197.7H60.2C56.7758 197.7 54 194.924 54 191.5V180.78C54 177.356 56.7758 174.58 60.2 174.58Z" stroke="#F7F7F5"/>
<path d="M69.16 124.501C72.8603 124.501 75.86 121.501 75.86 117.801C75.86 114.1 72.8603 111.101 69.16 111.101C65.4597 111.101 62.46 114.1 62.46 117.801C62.46 121.501 65.4597 124.501 69.16 124.501Z" fill="#F7F7F5"/>
<path d="M74.3961 146.437C73.3241 146.437 72.3231 146.437 71.4119 146.38C70.2895 146.304 69.2098 145.92 68.2916 145.27C67.3734 144.62 66.6522 143.729 66.2074 142.696L60.5539 131.523C60.1393 131.04 59.9322 130.413 59.9779 129.779C60.0236 129.144 60.3183 128.553 60.7978 128.134C61.1906 127.819 61.6807 127.649 62.1847 127.653C62.5557 127.664 62.92 127.755 63.2525 127.92C63.5849 128.086 63.8776 128.321 64.1103 128.61L66.6777 132.114L66.7166 132.16V118.847C66.7166 118.186 66.979 117.553 67.446 117.086C67.913 116.619 68.5465 116.356 69.207 116.356C69.8675 116.356 70.5009 116.619 70.9679 117.086C71.435 117.553 71.6974 118.186 71.6974 118.847V127.557C71.6684 127.236 71.7066 126.913 71.8094 126.608C71.9122 126.303 72.0774 126.023 72.2945 125.786C72.5116 125.548 72.7758 125.358 73.0703 125.229C73.3647 125.099 73.683 125.032 74.0048 125.032C74.3266 125.032 74.6449 125.099 74.9394 125.229C75.2339 125.358 75.4981 125.548 75.7152 125.786C75.9322 126.023 76.0975 126.303 76.2003 126.608C76.3031 126.913 76.3412 127.236 76.3123 127.557V129.373C76.2834 129.052 76.3215 128.729 76.4244 128.424C76.5272 128.119 76.6924 127.839 76.9095 127.601C77.1266 127.364 77.3908 127.174 77.6852 127.044C77.9797 126.914 78.298 126.847 78.6198 126.847C78.9416 126.847 79.2599 126.914 79.5544 127.044C79.8488 127.174 80.113 127.364 80.3301 127.601C80.5472 127.839 80.7124 128.119 80.8152 128.424C80.918 128.729 80.9562 129.052 80.9273 129.373V130.772C80.8983 130.451 80.9365 130.128 81.0393 129.823C81.1421 129.518 81.3073 129.238 81.5244 129C81.7415 128.763 82.0057 128.573 82.3002 128.443C82.5947 128.313 82.9129 128.246 83.2348 128.246C83.5566 128.246 83.8748 128.313 84.1693 128.443C84.4638 128.573 84.728 128.763 84.9451 129C85.1622 129.238 85.3274 129.518 85.4302 129.823C85.533 130.128 85.5712 130.451 85.5422 130.772V139.263C85.4967 141.875 84.3161 146.278 80.1635 146.278C79.862 146.291 77.3079 146.439 74.4015 146.439L74.3961 146.437Z" fill="#2E813E" stroke="white"/>
</g>
<defs>
<linearGradient id="paint0_linear_951_3405" x1="92.9912" y1="204" x2="92.9912" y2="-73.6413" gradientUnits="userSpaceOnUse">
<stop stop-color="#137417"/>
<stop offset="1" stop-color="#EBF4EC"/>
</linearGradient>
<linearGradient id="paint1_linear_951_3405" x1="92.9912" y1="204" x2="92.9912" y2="-73.6413" gradientUnits="userSpaceOnUse">
<stop stop-color="#137417"/>
<stop offset="1" stop-color="#EBF4EC"/>
</linearGradient>
<linearGradient id="paint2_linear_951_3405" x1="104" y1="2" x2="104" y2="203" gradientUnits="userSpaceOnUse">
<stop stop-color="#E3ECFA"/>
<stop offset="1" stop-color="#DAE7FF"/>
</linearGradient>
</defs>
</svg>
