<svg width="205" height="204" viewBox="0 0 205 204" fill="none" xmlns="http://www.w3.org/2000/svg">
<circle cx="102.5" cy="102" r="102" fill="url(#paint0_linear_474_3886)" fill-opacity="0.05"/>
<mask id="mask0_474_3886" style="mask-type:alpha" maskUnits="userSpaceOnUse" x="0" y="0" width="205" height="204">
<circle cx="102.5" cy="102" r="102" fill="url(#paint1_linear_474_3886)"/>
</mask>
<g mask="url(#mask0_474_3886)">
<rect x="35.5176" y="74.2139" width="137.19" height="136.413" rx="3.8864" fill="white"/>
<rect x="42.5137" y="81.209" width="126.697" height="122.033" fill="#F5FAFA"/>
<g filter="url(#filter0_d_474_3886)">
<g clip-path="url(#clip0_474_3886)">
<rect x="50.2842" y="61" width="103.767" height="67.6234" rx="3.8864" fill="#348D3D"/>
<path d="M153.855 61.1943L48.9219 129.012H153.855V61.1943Z" fill="#348D3D"/>
<rect x="58.0547" y="68.7725" width="16.3229" height="16.3229" rx="3.8864" fill="white"/>
<rect x="62.3301" y="73.0479" width="7.77281" height="7.77281" rx="1.55456" fill="#54BD95"/>
<path d="M68.1592 79.5248V76.2861" stroke="#F9F8FE" stroke-width="0.647734" stroke-linecap="round" stroke-linejoin="round"/>
<path d="M66.2168 79.5256V74.3438" stroke="#F9F8FE" stroke-width="0.647734" stroke-linecap="round" stroke-linejoin="round"/>
<path d="M64.2734 79.5252V77.582" stroke="#F9F8FE" stroke-width="0.647734" stroke-linecap="round" stroke-linejoin="round"/>
<path d="M58.5681 100.377V99.2755H65.1305V100.377H62.4849V107.755H61.2096V100.377H58.5681ZM68.2379 107.883C67.6417 107.883 67.1214 107.747 66.677 107.473C66.2326 107.2 65.8875 106.818 65.6419 106.326C65.3962 105.835 65.2734 105.261 65.2734 104.604C65.2734 103.944 65.3962 103.367 65.6419 102.873C65.8875 102.379 66.2326 101.996 66.677 101.722C67.1214 101.449 67.6417 101.313 68.2379 101.313C68.8341 101.313 69.3544 101.449 69.7988 101.722C70.2432 101.996 70.5882 102.379 70.8339 102.873C71.0795 103.367 71.2024 103.944 71.2024 104.604C71.2024 105.261 71.0795 105.835 70.8339 106.326C70.5882 106.818 70.2432 107.2 69.7988 107.473C69.3544 107.747 68.8341 107.883 68.2379 107.883ZM68.242 106.844C68.6284 106.844 68.9486 106.742 69.2026 106.538C69.4565 106.333 69.6442 106.061 69.7657 105.722C69.8899 105.382 69.952 105.008 69.952 104.6C69.952 104.194 69.8899 103.822 69.7657 103.482C69.6442 103.14 69.4565 102.865 69.2026 102.658C68.9486 102.451 68.6284 102.348 68.242 102.348C67.8528 102.348 67.5299 102.451 67.2732 102.658C67.0192 102.865 66.8302 103.14 66.7059 103.482C66.5845 103.822 66.5238 104.194 66.5238 104.6C66.5238 105.008 66.5845 105.382 66.7059 105.722C66.8302 106.061 67.0192 106.333 67.2732 106.538C67.5299 106.742 67.8528 106.844 68.242 106.844ZM75.5528 101.395V102.389H72.0791V101.395H75.5528ZM73.0107 99.8717H74.2486V105.888C74.2486 106.128 74.2845 106.309 74.3563 106.43C74.428 106.549 74.5205 106.63 74.6337 106.674C74.7496 106.716 74.8752 106.736 75.0104 106.736C75.1098 106.736 75.1968 106.729 75.2713 106.716C75.3458 106.702 75.4038 106.691 75.4452 106.683L75.6688 107.705C75.597 107.733 75.4949 107.76 75.3624 107.788C75.2299 107.818 75.0643 107.835 74.8655 107.838C74.5398 107.843 74.2362 107.785 73.9547 107.664C73.6731 107.542 73.4454 107.355 73.2715 107.101C73.0976 106.847 73.0107 106.528 73.0107 106.144V99.8717ZM78.773 107.896C78.37 107.896 78.0056 107.821 77.6799 107.672C77.3542 107.52 77.0961 107.301 76.9057 107.014C76.718 106.727 76.6241 106.375 76.6241 105.958C76.6241 105.599 76.6931 105.304 76.8312 105.072C76.9692 104.84 77.1555 104.657 77.3901 104.521C77.6247 104.386 77.8869 104.284 78.1768 104.215C78.4666 104.146 78.7619 104.093 79.0628 104.058C79.4437 104.013 79.7529 103.978 79.9902 103.95C80.2276 103.92 80.4001 103.871 80.5078 103.805C80.6154 103.739 80.6693 103.631 80.6693 103.482V103.453C80.6693 103.091 80.5671 102.811 80.3629 102.613C80.1614 102.414 79.8605 102.314 79.4603 102.314C79.0435 102.314 78.715 102.407 78.4749 102.592C78.2375 102.774 78.0733 102.977 77.9822 103.201L76.8187 102.936C76.9567 102.549 77.1582 102.237 77.4232 102C77.691 101.76 77.9987 101.586 78.3465 101.478C78.6943 101.368 79.06 101.313 79.4437 101.313C79.6977 101.313 79.9668 101.343 80.2511 101.404C80.5381 101.462 80.8059 101.569 81.0543 101.727C81.3055 101.884 81.5111 102.109 81.6712 102.401C81.8313 102.691 81.9114 103.068 81.9114 103.532V107.755H80.7024V106.885H80.6527C80.5726 107.046 80.4526 107.203 80.2925 107.357C80.1324 107.512 79.9268 107.64 79.6756 107.742C79.4244 107.845 79.1235 107.896 78.773 107.896ZM79.0421 106.902C79.3844 106.902 79.677 106.834 79.9199 106.699C80.1655 106.564 80.3518 106.387 80.4788 106.169C80.6085 105.948 80.6734 105.712 80.6734 105.461V104.641C80.6292 104.686 80.5437 104.727 80.4167 104.766C80.2925 104.801 80.1503 104.833 79.9902 104.861C79.8301 104.886 79.6742 104.909 79.5224 104.931C79.3706 104.95 79.2436 104.967 79.1415 104.981C78.9013 105.011 78.6819 105.062 78.4832 105.134C78.2872 105.206 78.1298 105.309 78.0112 105.445C77.8952 105.577 77.8373 105.754 77.8373 105.975C77.8373 106.281 77.9504 106.513 78.1768 106.67C78.4031 106.825 78.6916 106.902 79.0421 106.902ZM84.7982 99.2755V107.755H83.5603V99.2755H84.7982ZM89.6486 107.755V99.2755H92.7539C93.3556 99.2755 93.8538 99.3748 94.2486 99.5736C94.6433 99.7695 94.9386 100.036 95.1346 100.373C95.3306 100.707 95.4286 101.083 95.4286 101.503C95.4286 101.856 95.3637 102.154 95.234 102.397C95.1042 102.637 94.9303 102.831 94.7123 102.977C94.497 103.12 94.2596 103.225 94.0001 103.292V103.374C94.2817 103.388 94.5563 103.479 94.8241 103.648C95.0946 103.813 95.3181 104.049 95.4948 104.356C95.6715 104.662 95.7598 105.035 95.7598 105.474C95.7598 105.907 95.6577 106.296 95.4534 106.641C95.2519 106.983 94.94 107.255 94.5177 107.457C94.0954 107.656 93.5557 107.755 92.8988 107.755H89.6486ZM90.928 106.658H92.7746C93.3874 106.658 93.8262 106.539 94.0912 106.302C94.3562 106.064 94.4887 105.768 94.4887 105.411C94.4887 105.144 94.4211 104.898 94.2858 104.674C94.1506 104.451 93.9574 104.273 93.7062 104.14C93.4578 104.008 93.1624 103.942 92.8201 103.942H90.928V106.658ZM90.928 102.944H92.6421C92.9292 102.944 93.1872 102.889 93.4163 102.778C93.6482 102.668 93.8318 102.513 93.967 102.314C94.105 102.113 94.174 101.876 94.174 101.602C94.174 101.252 94.0512 100.958 93.8055 100.72C93.5599 100.483 93.1831 100.364 92.6752 100.364H90.928V102.944ZM101.206 105.117V101.395H102.449V107.755H101.231V106.654H101.165C101.019 106.993 100.784 107.276 100.461 107.502C100.141 107.726 99.7421 107.838 99.2646 107.838C98.8561 107.838 98.4945 107.748 98.1798 107.569C97.8679 107.386 97.6222 107.117 97.4428 106.761C97.2662 106.405 97.1779 105.965 97.1779 105.44V101.395H98.4158V105.291C98.4158 105.725 98.5359 106.07 98.776 106.326C99.0162 106.583 99.3281 106.712 99.7117 106.712C99.9436 106.712 100.174 106.654 100.403 106.538C100.635 106.422 100.827 106.246 100.979 106.012C101.133 105.777 101.209 105.479 101.206 105.117ZM104.112 107.755V101.395H105.35V107.755H104.112ZM104.737 100.414C104.522 100.414 104.337 100.342 104.182 100.199C104.03 100.052 103.955 99.8786 103.955 99.6771C103.955 99.4728 104.03 99.2989 104.182 99.1554C104.337 99.0091 104.522 98.9359 104.737 98.9359C104.952 98.9359 105.136 99.0091 105.288 99.1554C105.442 99.2989 105.52 99.4728 105.52 99.6771C105.52 99.8786 105.442 100.052 105.288 100.199C105.136 100.342 104.952 100.414 104.737 100.414ZM108.253 99.2755V107.755H107.015V99.2755H108.253ZM112.299 107.879C111.786 107.879 111.328 107.748 110.925 107.486C110.525 107.221 110.21 106.844 109.981 106.355C109.754 105.864 109.641 105.275 109.641 104.588C109.641 103.9 109.756 103.312 109.985 102.824C110.217 102.335 110.534 101.961 110.937 101.702C111.34 101.442 111.797 101.313 112.308 101.313C112.702 101.313 113.02 101.379 113.26 101.511C113.503 101.641 113.691 101.793 113.823 101.967C113.958 102.141 114.063 102.294 114.138 102.426H114.212V99.2755H115.45V107.755H114.241V106.765H114.138C114.063 106.901 113.956 107.055 113.815 107.229C113.677 107.403 113.486 107.555 113.243 107.684C113.001 107.814 112.686 107.879 112.299 107.879ZM112.573 106.823C112.929 106.823 113.23 106.729 113.475 106.542C113.724 106.351 113.911 106.088 114.038 105.751C114.168 105.414 114.233 105.022 114.233 104.575C114.233 104.133 114.169 103.747 114.043 103.416C113.916 103.085 113.729 102.826 113.484 102.642C113.238 102.457 112.934 102.364 112.573 102.364C112.2 102.364 111.89 102.461 111.641 102.654C111.393 102.847 111.205 103.111 111.078 103.445C110.954 103.779 110.892 104.156 110.892 104.575C110.892 105 110.955 105.382 111.082 105.722C111.209 106.061 111.397 106.331 111.645 106.529C111.896 106.725 112.206 106.823 112.573 106.823ZM117.217 107.755V101.395H118.455V107.755H117.217ZM117.842 100.414C117.627 100.414 117.442 100.342 117.288 100.199C117.136 100.052 117.06 99.8786 117.06 99.6771C117.06 99.4728 117.136 99.2989 117.288 99.1554C117.442 99.0091 117.627 98.9359 117.842 98.9359C118.058 98.9359 118.241 99.0091 118.393 99.1554C118.548 99.2989 118.625 99.4728 118.625 99.6771C118.625 99.8786 118.548 100.052 118.393 100.199C118.241 100.342 118.058 100.414 117.842 100.414ZM121.359 103.979V107.755H120.121V101.395H121.309V102.43H121.387C121.534 102.094 121.763 101.823 122.075 101.619C122.389 101.415 122.786 101.313 123.263 101.313C123.696 101.313 124.076 101.404 124.402 101.586C124.727 101.765 124.98 102.033 125.159 102.389C125.339 102.745 125.428 103.185 125.428 103.71V107.755H124.191V103.859C124.191 103.398 124.07 103.038 123.83 102.778C123.59 102.516 123.26 102.385 122.841 102.385C122.554 102.385 122.298 102.447 122.075 102.571C121.854 102.695 121.679 102.878 121.549 103.118C121.422 103.355 121.359 103.642 121.359 103.979ZM129.755 110.272C129.25 110.272 128.815 110.206 128.451 110.073C128.089 109.941 127.794 109.766 127.565 109.548C127.336 109.33 127.165 109.091 127.051 108.831L128.116 108.392C128.19 108.514 128.289 108.642 128.414 108.778C128.541 108.916 128.712 109.033 128.927 109.129C129.145 109.226 129.425 109.274 129.768 109.274C130.237 109.274 130.625 109.16 130.931 108.931C131.237 108.704 131.391 108.343 131.391 107.846V106.596H131.312C131.237 106.731 131.13 106.881 130.989 107.047C130.851 107.212 130.66 107.356 130.418 107.477C130.175 107.599 129.859 107.66 129.469 107.66C128.967 107.66 128.514 107.542 128.111 107.308C127.711 107.07 127.394 106.721 127.159 106.26C126.927 105.796 126.811 105.227 126.811 104.55C126.811 103.874 126.926 103.294 127.155 102.811C127.387 102.328 127.704 101.958 128.107 101.702C128.51 101.442 128.967 101.313 129.478 101.313C129.872 101.313 130.191 101.379 130.434 101.511C130.677 101.641 130.866 101.793 131.001 101.967C131.139 102.141 131.246 102.294 131.32 102.426H131.411V101.395H132.624V107.896C132.624 108.442 132.497 108.891 132.243 109.241C131.99 109.592 131.646 109.851 131.213 110.02C130.782 110.188 130.296 110.272 129.755 110.272ZM129.743 106.633C130.099 106.633 130.4 106.55 130.645 106.384C130.894 106.216 131.081 105.976 131.208 105.664C131.338 105.349 131.403 104.973 131.403 104.534C131.403 104.106 131.34 103.729 131.213 103.403C131.086 103.078 130.899 102.824 130.654 102.642C130.408 102.457 130.104 102.364 129.743 102.364C129.37 102.364 129.06 102.461 128.811 102.654C128.563 102.844 128.375 103.104 128.248 103.432C128.124 103.761 128.062 104.128 128.062 104.534C128.062 104.95 128.125 105.316 128.252 105.631C128.379 105.946 128.567 106.191 128.815 106.368C129.066 106.545 129.376 106.633 129.743 106.633ZM139.05 102.948L137.928 103.147C137.881 103.003 137.807 102.867 137.705 102.737C137.605 102.607 137.47 102.501 137.299 102.418C137.128 102.335 136.914 102.294 136.657 102.294C136.307 102.294 136.014 102.372 135.779 102.53C135.545 102.684 135.427 102.884 135.427 103.13C135.427 103.343 135.506 103.514 135.663 103.644C135.821 103.773 136.075 103.88 136.425 103.962L137.435 104.194C138.021 104.329 138.457 104.538 138.744 104.819C139.031 105.101 139.174 105.467 139.174 105.917C139.174 106.297 139.064 106.637 138.843 106.935C138.625 107.23 138.32 107.462 137.928 107.631C137.539 107.799 137.088 107.883 136.574 107.883C135.862 107.883 135.281 107.731 134.831 107.428C134.381 107.121 134.105 106.687 134.003 106.124L135.2 105.941C135.274 106.253 135.427 106.489 135.659 106.649C135.891 106.807 136.193 106.885 136.566 106.885C136.972 106.885 137.296 106.801 137.539 106.633C137.782 106.462 137.903 106.253 137.903 106.008C137.903 105.809 137.829 105.642 137.68 105.507C137.533 105.371 137.308 105.269 137.005 105.2L135.928 104.964C135.335 104.829 134.896 104.614 134.612 104.318C134.33 104.023 134.189 103.649 134.189 103.196C134.189 102.821 134.294 102.493 134.504 102.211C134.714 101.929 135.004 101.71 135.374 101.553C135.743 101.393 136.167 101.313 136.645 101.313C137.332 101.313 137.873 101.462 138.268 101.76C138.662 102.055 138.923 102.451 139.05 102.948Z" fill="white"/>
<path d="M60.4743 114.601V119.688H59.7042V115.371H59.6744L58.4571 116.166V115.431L59.7266 114.601H60.4743ZM63.6218 119.773C63.2293 119.771 62.8939 119.668 62.6157 119.462C62.3375 119.257 62.1246 118.958 61.9773 118.566C61.8299 118.173 61.7562 117.7 61.7562 117.147C61.7562 116.596 61.8299 116.124 61.9773 115.734C62.1263 115.343 62.3399 115.045 62.6182 114.839C62.8981 114.634 63.2326 114.531 63.6218 114.531C64.011 114.531 64.3447 114.635 64.6229 114.842C64.9012 115.047 65.114 115.345 65.2614 115.736C65.4104 116.125 65.485 116.596 65.485 117.147C65.485 117.702 65.4113 118.176 65.2639 118.568C65.1165 118.959 64.9036 119.258 64.6254 119.465C64.3472 119.67 64.0126 119.773 63.6218 119.773ZM63.6218 119.11C63.9663 119.11 64.2354 118.942 64.4292 118.605C64.6246 118.269 64.7223 117.783 64.7223 117.147C64.7223 116.725 64.6776 116.368 64.5882 116.076C64.5004 115.783 64.3737 115.561 64.2081 115.411C64.0441 115.258 63.8487 115.182 63.6218 115.182C63.279 115.182 63.0099 115.351 62.8144 115.689C62.619 116.027 62.5205 116.513 62.5188 117.147C62.5188 117.571 62.5627 117.93 62.6505 118.223C62.7399 118.514 62.8666 118.735 63.0306 118.886C63.1945 119.035 63.3916 119.11 63.6218 119.11ZM68.0456 119.758C67.7342 119.758 67.4543 119.698 67.2059 119.579C66.9591 119.458 66.762 119.293 66.6146 119.082C66.4673 118.872 66.3886 118.632 66.3786 118.362H67.1239C67.1421 118.581 67.239 118.76 67.4146 118.901C67.5901 119.042 67.8004 119.112 68.0456 119.112C68.241 119.112 68.414 119.067 68.5647 118.978C68.7171 118.887 68.8364 118.762 68.9225 118.603C69.0103 118.444 69.0541 118.263 69.0541 118.059C69.0541 117.852 69.0094 117.667 68.92 117.505C68.8306 117.343 68.7072 117.215 68.5498 117.122C68.3942 117.03 68.2153 116.982 68.0133 116.981C67.8592 116.981 67.7044 117.007 67.5487 117.06C67.393 117.113 67.2672 117.183 67.1711 117.269L66.4681 117.165L66.7538 114.601H69.551V115.259H67.3922L67.2307 116.683H67.2605C67.3599 116.587 67.4916 116.506 67.6555 116.442C67.8211 116.377 67.9984 116.345 68.1872 116.345C68.4968 116.345 68.7726 116.418 69.0144 116.566C69.2578 116.713 69.4491 116.914 69.5882 117.169C69.729 117.423 69.7986 117.714 69.7969 118.044C69.7986 118.374 69.724 118.667 69.5733 118.926C69.4243 119.184 69.2173 119.388 68.9523 119.537C68.689 119.684 68.3867 119.758 68.0456 119.758ZM72.4805 119.758C72.2536 119.755 72.03 119.713 71.8097 119.634C71.5911 119.554 71.3924 119.422 71.2135 119.236C71.0347 119.051 70.8914 118.802 70.7838 118.489C70.6778 118.176 70.6248 117.785 70.6248 117.316C70.6248 116.872 70.6687 116.478 70.7564 116.134C70.8459 115.789 70.9742 115.498 71.1415 115.262C71.3088 115.023 71.5108 114.842 71.7476 114.718C71.9845 114.593 72.2503 114.531 72.5451 114.531C72.8481 114.531 73.1173 114.591 73.3524 114.71C73.5876 114.829 73.7781 114.994 73.9238 115.204C74.0712 115.415 74.1648 115.654 74.2045 115.922H73.4468C73.3955 115.71 73.2936 115.537 73.1413 115.403C72.9889 115.269 72.7902 115.202 72.5451 115.202C72.1724 115.202 71.8818 115.364 71.6731 115.689C71.4661 116.014 71.3618 116.465 71.3601 117.043H71.3974C71.4851 116.899 71.5928 116.776 71.7203 116.675C71.8495 116.572 71.9936 116.494 72.1526 116.439C72.3132 116.383 72.4821 116.355 72.6593 116.355C72.9541 116.355 73.2208 116.427 73.4593 116.571C73.6994 116.713 73.8907 116.91 74.0331 117.162C74.1755 117.414 74.2468 117.702 74.2468 118.027C74.2468 118.351 74.1731 118.645 74.0257 118.908C73.8799 119.172 73.6746 119.38 73.4096 119.534C73.1446 119.687 72.8349 119.761 72.4805 119.758ZM72.478 119.112C72.6734 119.112 72.8481 119.064 73.0022 118.968C73.1562 118.872 73.2779 118.743 73.3673 118.581C73.4568 118.418 73.5015 118.237 73.5015 118.036C73.5015 117.841 73.4576 117.663 73.3698 117.502C73.2837 117.342 73.1645 117.214 73.0121 117.12C72.8614 117.025 72.6892 116.978 72.4954 116.978C72.348 116.978 72.2114 117.006 72.0855 117.063C71.9613 117.119 71.852 117.197 71.7576 117.296C71.6632 117.396 71.5887 117.51 71.534 117.639C71.481 117.767 71.4545 117.902 71.4545 118.044C71.4545 118.234 71.4984 118.411 71.5862 118.573C71.6756 118.735 71.7973 118.866 71.9513 118.966C72.107 119.063 72.2826 119.112 72.478 119.112Z" fill="white"/>
</g>
</g>
<g opacity="0.5">
<line x1="46" y1="162.108" x2="159" y2="162.108" stroke="#9E9E9E" stroke-dasharray="2 2"/>
<line x1="71.5439" y1="139.771" x2="71.5439" y2="185.231" stroke="#2E813E"/>
<line x1="84.0405" y1="139.771" x2="84.0405" y2="185.231" stroke="#616161"/>
<line x1="96.5366" y1="139.771" x2="96.5366" y2="185.231" stroke="#2E813E"/>
<line x1="109.033" y1="139.771" x2="109.033" y2="185.231" stroke="#616161"/>
<line x1="121.529" y1="139.771" x2="121.529" y2="185.231" stroke="#2E813E"/>
<line x1="134.024" y1="139.771" x2="134.024" y2="185.231" stroke="#616161"/>
<rect x="68.459" y="150.975" width="5.17081" height="23.0532" rx="2.5854" fill="#2E813E"/>
<rect x="80.9546" y="155.283" width="5.17081" height="14.4352" rx="2.5854" fill="#54585A"/>
<rect x="93.4512" y="147.312" width="5.17081" height="30.3785" rx="2.5854" fill="#2E813E"/>
<rect x="105.947" y="143.434" width="5.17081" height="37.9193" rx="2.5854" fill="#54585A"/>
<rect x="118.443" y="158.3" width="5.17081" height="8.61801" rx="2.5854" fill="#2E813E"/>
<rect x="130.939" y="155.499" width="5.17081" height="14.0043" rx="2.5854" fill="#54585A"/>
</g>
</g>
<defs>
<filter id="filter0_d_474_3886" x="33.184" y="49.3408" width="137.967" height="101.823" filterUnits="userSpaceOnUse" color-interpolation-filters="sRGB">
<feFlood flood-opacity="0" result="BackgroundImageFix"/>
<feColorMatrix in="SourceAlpha" type="matrix" values="0 0 0 0 0 0 0 0 0 0 0 0 0 0 0 0 0 0 127 0" result="hardAlpha"/>
<feOffset dy="5.44097"/>
<feGaussianBlur stdDeviation="8.55009"/>
<feComposite in2="hardAlpha" operator="out"/>
<feColorMatrix type="matrix" values="0 0 0 0 0 0 0 0 0 0 0 0 0 0 0 0 0 0 0.15 0"/>
<feBlend mode="normal" in2="BackgroundImageFix" result="effect1_dropShadow_474_3886"/>
<feBlend mode="normal" in="SourceGraphic" in2="effect1_dropShadow_474_3886" result="shape"/>
</filter>
<linearGradient id="paint0_linear_474_3886" x1="93.4912" y1="204" x2="93.4912" y2="-73.6413" gradientUnits="userSpaceOnUse">
<stop stop-color="#137417"/>
<stop offset="1" stop-color="#EBF4EC"/>
</linearGradient>
<linearGradient id="paint1_linear_474_3886" x1="93.4912" y1="204" x2="93.4912" y2="-73.6413" gradientUnits="userSpaceOnUse">
<stop stop-color="#137417"/>
<stop offset="1" stop-color="#EBF4EC"/>
</linearGradient>
<clipPath id="clip0_474_3886">
<rect x="50.2842" y="61" width="103.767" height="67.6234" rx="3.8864" fill="white"/>
</clipPath>
</defs>
</svg>
