<svg width="205" height="204" viewBox="0 0 205 204" fill="none" xmlns="http://www.w3.org/2000/svg">
<circle cx="102.5" cy="102" r="102" fill="url(#paint0_linear_474_3926)" fill-opacity="0.05"/>
<mask id="mask0_474_3926" style="mask-type:alpha" maskUnits="userSpaceOnUse" x="0" y="0" width="205" height="204">
<circle cx="102.5" cy="102" r="102" fill="url(#paint1_linear_474_3926)"/>
</mask>
<g mask="url(#mask0_474_3926)">
<rect x="37.8892" y="58.1982" width="131.221" height="145.802" rx="5.46756" fill="white"/>
<rect x="63.9984" y="110.805" width="90.9748" height="30.6429" rx="2.39105" stroke="#EFF2F7" stroke-width="0.251689"/>
<g filter="url(#filter0_d_474_3926)">
<rect x="69.1177" y="115.925" width="20.4021" height="20.4021" rx="2.51689" fill="#696F72"/>
</g>
<rect x="98.2646" y="132.537" width="55.3771" height="2.91458" rx="1.45729" fill="#DBE5FA"/>
<rect x="98.2646" y="132.537" width="26.8142" height="2.91458" rx="1.45729" fill="#348D3D"/>
<rect x="98.2646" y="126.125" width="30.3117" height="1.74875" rx="0.874375" fill="#DBE5FA"/>
<rect x="98.2646" y="116.799" width="55.3771" height="4.66334" rx="2.33167" fill="#DBE5FA"/>
<rect x="52.3417" y="149.277" width="101.176" height="30.6429" rx="2.39105" fill="white" stroke="#EFF2F7" stroke-width="0.251689"/>
<g filter="url(#filter1_d_474_3926)">
<rect x="57.46" y="154.397" width="20.4021" height="20.4021" rx="2.51689" fill="white"/>
</g>
<rect x="86.6069" y="171.01" width="66.4525" height="2.91458" rx="1.45729" fill="#DBE5FA"/>
<rect x="86.6069" y="171.01" width="47.566" height="2.91458" rx="1.45729" fill="#348D3D"/>
<rect x="86.6074" y="164.598" width="36.374" height="1.74875" rx="0.874375" fill="#DBE5FA"/>
<rect x="86.6074" y="155.271" width="66.4525" height="4.66334" rx="2.33167" fill="#DBE5FA"/>
<g clip-path="url(#clip0_474_3926)">
<path d="M67.6592 158.769C64.4399 158.769 61.8301 161.378 61.8301 164.598C61.8301 167.817 64.4399 170.427 67.6592 170.427C70.8786 170.427 73.4884 167.817 73.4884 164.598C73.4884 161.378 70.8786 158.769 67.6592 158.769Z" fill="#348D3D"/>
<path d="M68.1281 161.283L67.5973 164.094L69.5203 164.101L66.9028 167.912L67.4336 164.819L65.5107 164.812L68.1281 161.283ZM68.1285 160.809C68.1158 160.809 68.1031 160.809 68.0906 160.81C68.0076 160.817 67.9525 160.845 67.8873 160.889C67.8505 160.914 67.8174 160.943 67.7888 160.977C67.7802 160.988 67.7721 160.998 67.7646 161.009L65.1283 164.526C65.0242 164.67 65.009 164.86 65.0889 165.019C65.1688 165.177 65.3303 165.278 65.5073 165.279L66.8654 165.289L66.4384 167.825C66.3978 168.043 66.5131 168.26 66.716 168.348C66.7749 168.373 66.8385 168.387 66.9026 168.387C67.0505 168.387 67.172 168.317 67.2632 168.191L69.9027 164.379C70.0068 164.236 70.022 164.046 69.9421 163.887C69.8622 163.728 69.7007 163.628 69.5237 163.627L68.1657 163.624L68.588 161.394C68.597 161.358 68.6015 161.32 68.6014 161.283C68.6014 161.026 68.3988 160.817 68.1452 160.809C68.1395 160.809 68.134 160.809 68.1285 160.809Z" fill="white"/>
</g>
<mask id="path-18-inside-1_474_3926" fill="white">
<path d="M124.492 96.6886C124.492 93.0524 123.776 89.4519 122.384 86.0926C120.993 82.7333 118.953 79.6809 116.382 77.1098C113.811 74.5387 110.759 72.4991 107.399 71.1077C104.04 69.7162 100.439 69 96.8033 69C93.1672 69 89.5667 69.7162 86.2073 71.1077C82.848 72.4991 79.7957 74.5387 77.2245 77.1098C74.6534 79.6809 72.6139 82.7333 71.2224 86.0926C69.8309 89.4519 69.1147 93.0524 69.1147 96.6886H79.0281C79.0281 94.3543 79.4879 92.0429 80.3812 89.8863C81.2745 87.7297 82.5838 85.7702 84.2344 84.1196C85.8849 82.469 87.8445 81.1597 90.001 80.2665C92.1576 79.3732 94.469 78.9134 96.8033 78.9134C99.1376 78.9134 101.449 79.3732 103.606 80.2665C105.762 81.1597 107.722 82.469 109.372 84.1196C111.023 85.7702 112.332 87.7297 113.225 89.8863C114.119 92.0429 114.578 94.3543 114.578 96.6886H124.492Z"/>
</mask>
<path d="M124.492 96.6886C124.492 93.0524 123.776 89.4519 122.384 86.0926C120.993 82.7333 118.953 79.6809 116.382 77.1098C113.811 74.5387 110.759 72.4991 107.399 71.1077C104.04 69.7162 100.439 69 96.8033 69C93.1672 69 89.5667 69.7162 86.2073 71.1077C82.848 72.4991 79.7957 74.5387 77.2245 77.1098C74.6534 79.6809 72.6139 82.7333 71.2224 86.0926C69.8309 89.4519 69.1147 93.0524 69.1147 96.6886H79.0281C79.0281 94.3543 79.4879 92.0429 80.3812 89.8863C81.2745 87.7297 82.5838 85.7702 84.2344 84.1196C85.8849 82.469 87.8445 81.1597 90.001 80.2665C92.1576 79.3732 94.469 78.9134 96.8033 78.9134C99.1376 78.9134 101.449 79.3732 103.606 80.2665C105.762 81.1597 107.722 82.469 109.372 84.1196C111.023 85.7702 112.332 87.7297 113.225 89.8863C114.119 92.0429 114.578 94.3543 114.578 96.6886H124.492Z" stroke="#52459F" stroke-width="17.1149" mask="url(#path-18-inside-1_474_3926)"/>
<mask id="path-19-inside-2_474_3926" fill="white">
<path d="M124.492 96.6886C124.492 89.3451 121.575 82.3024 116.382 77.1098C111.189 71.9172 104.147 69 96.8033 69C89.4598 69 82.4171 71.9172 77.2245 77.1098C72.0319 82.3024 69.1147 89.3451 69.1147 96.6886L79.0331 96.6886C79.0331 91.9756 80.9053 87.4557 84.2379 84.1231C87.5704 80.7905 92.0903 78.9183 96.8033 78.9183C101.516 78.9183 106.036 80.7905 109.369 84.1231C112.701 87.4557 114.574 91.9756 114.574 96.6886H124.492Z"/>
</mask>
<path d="M124.492 96.6886C124.492 89.3451 121.575 82.3024 116.382 77.1098C111.189 71.9172 104.147 69 96.8033 69C89.4598 69 82.4171 71.9172 77.2245 77.1098C72.0319 82.3024 69.1147 89.3451 69.1147 96.6886L79.0331 96.6886C79.0331 91.9756 80.9053 87.4557 84.2379 84.1231C87.5704 80.7905 92.0903 78.9183 96.8033 78.9183C101.516 78.9183 106.036 80.7905 109.369 84.1231C112.701 87.4557 114.574 91.9756 114.574 96.6886H124.492Z" stroke="#348D3D" stroke-width="17.1149" mask="url(#path-19-inside-2_474_3926)"/>
<mask id="path-20-inside-3_474_3926" fill="white">
<path d="M124.492 96.6886C124.492 90.9733 122.723 85.3981 119.429 80.728C116.134 76.0578 111.476 72.5215 106.091 70.6043L102.764 79.948C106.22 81.1784 109.21 83.448 111.324 86.4452C113.438 89.4425 114.574 93.0206 114.574 96.6886H124.492Z"/>
</mask>
<path d="M124.492 96.6886C124.492 90.9733 122.723 85.3981 119.429 80.728C116.134 76.0578 111.476 72.5215 106.091 70.6043L102.764 79.948C106.22 81.1784 109.21 83.448 111.324 86.4452C113.438 89.4425 114.574 93.0206 114.574 96.6886H124.492Z" stroke="#348D3D" stroke-width="17.1149" mask="url(#path-20-inside-3_474_3926)"/>
<mask id="path-21-inside-4_474_3926" fill="white">
<path d="M124.492 96.6886C124.492 91.2227 122.874 85.8791 119.842 81.3311C116.811 76.783 112.501 73.234 107.456 71.1311L103.64 80.2861C106.878 81.6357 109.644 83.9134 111.59 86.8323C113.535 89.7512 114.574 93.1806 114.574 96.6886H124.492Z"/>
</mask>
<path d="M124.492 96.6886C124.492 91.2227 122.874 85.8791 119.842 81.3311C116.811 76.783 112.501 73.234 107.456 71.1311L103.64 80.2861C106.878 81.6357 109.644 83.9134 111.59 86.8323C113.535 89.7512 114.574 93.1806 114.574 96.6886H124.492Z" stroke="#C6C6C6" stroke-width="17.1149" mask="url(#path-21-inside-4_474_3926)"/>
<path d="M71.4234 102.638C71.3091 102.636 71.1965 102.615 71.0856 102.575C70.9754 102.535 70.8753 102.468 70.7852 102.375C70.6952 102.281 70.623 102.156 70.5688 101.998C70.5154 101.84 70.4887 101.644 70.4887 101.408C70.4887 101.184 70.5108 100.985 70.555 100.812C70.6001 100.638 70.6647 100.492 70.749 100.373C70.8332 100.253 70.935 100.161 71.0543 100.099C71.1736 100.036 71.3075 100.005 71.4559 100.005C71.6086 100.005 71.7442 100.035 71.8626 100.095C71.9811 100.155 72.077 100.238 72.1504 100.344C72.2247 100.45 72.2718 100.57 72.2918 100.706H71.9102C71.8843 100.599 71.833 100.512 71.7563 100.444C71.6795 100.376 71.5794 100.343 71.4559 100.343C71.2682 100.343 71.1218 100.424 71.0167 100.588C70.9125 100.751 70.8599 100.979 70.8591 101.27H70.8778C70.9221 101.197 70.9763 101.136 71.0405 101.085C71.1056 101.033 71.1782 100.993 71.2582 100.966C71.3392 100.937 71.4242 100.923 71.5135 100.923C71.662 100.923 71.7963 100.96 71.9164 101.032C72.0374 101.104 72.1337 101.203 72.2055 101.33C72.2772 101.457 72.3131 101.602 72.3131 101.765C72.3131 101.929 72.276 102.077 72.2017 102.21C72.1283 102.342 72.0249 102.447 71.8914 102.525C71.7579 102.602 71.6019 102.639 71.4234 102.638ZM71.4222 102.312C71.5206 102.312 71.6086 102.288 71.6862 102.24C71.7638 102.191 71.8251 102.126 71.8701 102.044C71.9152 101.963 71.9377 101.871 71.9377 101.77C71.9377 101.672 71.9156 101.582 71.8714 101.501C71.828 101.42 71.7679 101.356 71.6912 101.309C71.6153 101.261 71.5285 101.237 71.4309 101.237C71.3567 101.237 71.2879 101.252 71.2245 101.28C71.1619 101.308 71.1068 101.347 71.0593 101.398C71.0117 101.448 70.9742 101.505 70.9467 101.57C70.92 101.634 70.9066 101.702 70.9066 101.774C70.9066 101.87 70.9287 101.959 70.9729 102.041C71.018 102.122 71.0793 102.188 71.1569 102.238C71.2353 102.288 71.3237 102.312 71.4222 102.312ZM73.661 102.645C73.4633 102.644 73.2944 102.592 73.1543 102.489C73.0141 102.385 72.9069 102.235 72.8327 102.037C72.7584 101.839 72.7213 101.601 72.7213 101.322C72.7213 101.045 72.7584 100.807 72.8327 100.61C72.9078 100.414 73.0154 100.263 73.1555 100.16C73.2965 100.057 73.465 100.005 73.661 100.005C73.8571 100.005 74.0252 100.057 74.1653 100.161C74.3055 100.265 74.4127 100.415 74.4869 100.612C74.562 100.808 74.5995 101.045 74.5995 101.322C74.5995 101.602 74.5624 101.84 74.4881 102.038C74.4139 102.235 74.3067 102.386 74.1666 102.49C74.0264 102.593 73.8579 102.645 73.661 102.645ZM73.661 102.311C73.8346 102.311 73.9701 102.226 74.0677 102.057C74.1661 101.888 74.2154 101.643 74.2154 101.322C74.2154 101.11 74.1928 100.93 74.1478 100.783C74.1036 100.636 74.0398 100.524 73.9563 100.448C73.8738 100.371 73.7753 100.333 73.661 100.333C73.4884 100.333 73.3528 100.418 73.2544 100.588C73.1559 100.758 73.1063 101.003 73.1055 101.322C73.1055 101.536 73.1276 101.717 73.1718 101.864C73.2168 102.011 73.2806 102.122 73.3632 102.198C73.4458 102.273 73.5451 102.311 73.661 102.311ZM76.381 102.122V101.987C76.381 101.89 76.4011 101.802 76.4411 101.722C76.482 101.641 76.5412 101.576 76.6188 101.528C76.6972 101.478 76.7919 101.454 76.9028 101.454C77.0163 101.454 77.1114 101.478 77.1881 101.526C77.2649 101.575 77.3229 101.639 77.3621 101.72C77.4021 101.801 77.4221 101.89 77.4221 101.987V102.122C77.4221 102.219 77.4021 102.308 77.3621 102.389C77.322 102.469 77.2632 102.533 77.1856 102.583C77.1089 102.631 77.0146 102.655 76.9028 102.655C76.7902 102.655 76.6951 102.631 76.6175 102.583C76.54 102.533 76.4811 102.469 76.4411 102.389C76.4011 102.308 76.381 102.219 76.381 102.122ZM76.6726 101.987V102.122C76.6726 102.194 76.6897 102.259 76.7239 102.317C76.7581 102.376 76.8177 102.405 76.9028 102.405C76.9871 102.405 77.0459 102.376 77.0793 102.317C77.1126 102.259 77.1293 102.194 77.1293 102.122V101.987C77.1293 101.915 77.1131 101.85 77.0805 101.792C77.0488 101.733 76.9896 101.704 76.9028 101.704C76.8194 101.704 76.7602 101.733 76.7252 101.792C76.6901 101.85 76.6726 101.915 76.6726 101.987ZM75.0922 100.656V100.52C75.0922 100.424 75.1122 100.335 75.1523 100.254C75.1931 100.173 75.2524 100.108 75.33 100.06C75.4084 100.012 75.5031 99.9873 75.614 99.9873C75.7275 99.9873 75.8225 100.012 75.8993 100.06C75.976 100.108 76.034 100.173 76.0732 100.254C76.1124 100.335 76.132 100.424 76.132 100.52V100.656C76.132 100.752 76.112 100.841 76.072 100.922C76.0328 101.002 75.9744 101.067 75.8968 101.116C75.82 101.164 75.7258 101.189 75.614 101.189C75.5005 101.189 75.405 101.164 75.3275 101.116C75.2507 101.067 75.1923 101.002 75.1523 100.922C75.1122 100.841 75.0922 100.752 75.0922 100.656ZM75.385 100.52V100.656C75.385 100.727 75.4017 100.792 75.4351 100.851C75.4693 100.909 75.5289 100.938 75.614 100.938C75.6974 100.938 75.7558 100.909 75.7892 100.851C75.8234 100.792 75.8405 100.727 75.8405 100.656V100.52C75.8405 100.449 75.8242 100.384 75.7917 100.325C75.7592 100.267 75.6999 100.238 75.614 100.238C75.5306 100.238 75.4714 100.267 75.4363 100.325C75.4021 100.384 75.385 100.449 75.385 100.52ZM75.2111 102.603L76.9729 100.04H77.272L75.5101 102.603H75.2111Z" fill="black"/>
<path d="M115.941 102.102V101.789L117.049 100.04H117.295V100.5H117.139L116.347 101.754V101.774H117.864V102.102H115.941ZM117.156 102.603V102.007L117.159 101.864V100.04H117.525V102.603H117.156ZM119.193 102.645C118.995 102.644 118.826 102.592 118.686 102.489C118.546 102.385 118.439 102.235 118.364 102.037C118.29 101.839 118.253 101.601 118.253 101.322C118.253 101.045 118.29 100.807 118.364 100.61C118.439 100.414 118.547 100.263 118.687 100.16C118.828 100.057 118.997 100.005 119.193 100.005C119.389 100.005 119.557 100.057 119.697 100.161C119.837 100.265 119.944 100.415 120.019 100.612C120.094 100.808 120.131 101.045 120.131 101.322C120.131 101.602 120.094 101.84 120.02 102.038C119.946 102.235 119.838 102.386 119.698 102.49C119.558 102.593 119.39 102.645 119.193 102.645ZM119.193 102.311C119.366 102.311 119.502 102.226 119.599 102.057C119.698 101.888 119.747 101.643 119.747 101.322C119.747 101.11 119.725 100.93 119.679 100.783C119.635 100.636 119.571 100.524 119.488 100.448C119.405 100.371 119.307 100.333 119.193 100.333C119.02 100.333 118.884 100.418 118.786 100.588C118.688 100.758 118.638 101.003 118.637 101.322C118.637 101.536 118.659 101.717 118.703 101.864C118.749 102.011 118.812 102.122 118.895 102.198C118.978 102.273 119.077 102.311 119.193 102.311ZM121.913 102.122V101.987C121.913 101.89 121.933 101.802 121.973 101.722C122.014 101.641 122.073 101.576 122.15 101.528C122.229 101.478 122.324 101.454 122.435 101.454C122.548 101.454 122.643 101.478 122.72 101.526C122.797 101.575 122.855 101.639 122.894 101.72C122.934 101.801 122.954 101.89 122.954 101.987V102.122C122.954 102.219 122.934 102.308 122.894 102.389C122.854 102.469 122.795 102.533 122.717 102.583C122.641 102.631 122.546 102.655 122.435 102.655C122.322 102.655 122.227 102.631 122.149 102.583C122.072 102.533 122.013 102.469 121.973 102.389C121.933 102.308 121.913 102.219 121.913 102.122ZM122.204 101.987V102.122C122.204 102.194 122.221 102.259 122.256 102.317C122.29 102.376 122.349 102.405 122.435 102.405C122.519 102.405 122.578 102.376 122.611 102.317C122.644 102.259 122.661 102.194 122.661 102.122V101.987C122.661 101.915 122.645 101.85 122.612 101.792C122.581 101.733 122.521 101.704 122.435 101.704C122.351 101.704 122.292 101.733 122.257 101.792C122.222 101.85 122.204 101.915 122.204 101.987ZM120.624 100.656V100.52C120.624 100.424 120.644 100.335 120.684 100.254C120.725 100.173 120.784 100.108 120.862 100.06C120.94 100.012 121.035 99.9873 121.146 99.9873C121.259 99.9873 121.354 100.012 121.431 100.06C121.508 100.108 121.566 100.173 121.605 100.254C121.644 100.335 121.664 100.424 121.664 100.52V100.656C121.664 100.752 121.644 100.841 121.604 100.922C121.564 101.002 121.506 101.067 121.428 101.116C121.352 101.164 121.257 101.189 121.146 101.189C121.032 101.189 120.937 101.164 120.859 101.116C120.782 101.067 120.724 101.002 120.684 100.922C120.644 100.841 120.624 100.752 120.624 100.656ZM120.917 100.52V100.656C120.917 100.727 120.933 100.792 120.967 100.851C121.001 100.909 121.061 100.938 121.146 100.938C121.229 100.938 121.288 100.909 121.321 100.851C121.355 100.792 121.372 100.727 121.372 100.656V100.52C121.372 100.449 121.356 100.384 121.323 100.325C121.291 100.267 121.232 100.238 121.146 100.238C121.062 100.238 121.003 100.267 120.968 100.325C120.934 100.384 120.917 100.449 120.917 100.52ZM120.743 102.603L122.505 100.04H122.804L121.042 102.603H120.743Z" fill="black"/>
<circle cx="96.8054" cy="96.6891" r="11.3669" fill="#FEFEFD"/>
<circle cx="96.8053" cy="96.6891" r="8.74375" fill="#E6F9FD"/>
<path d="M94.6125 100.406C96.0852 101.322 97.9366 100.826 98.7567 99.2974C99.0426 98.7643 99.1516 98.1534 99.1478 97.5934L99.0849 93.3987C99.0853 93.1276 98.9206 92.8895 98.7138 92.761C98.5069 92.6325 98.2438 92.6046 98.0151 92.734L94.6094 94.7708C94.155 95.0462 93.7247 95.4451 93.4338 95.9874C92.6138 97.5161 93.1398 99.4913 94.6125 100.406ZM96.5326 96.8271C97.0675 97.1595 97.2611 97.8843 96.9632 98.4396C96.6654 98.9948 95.9853 99.1768 95.4504 98.8444C94.9155 98.512 94.722 97.7872 95.0198 97.2319C95.3186 96.6749 95.9977 96.4947 96.5326 96.8271Z" fill="#696F72"/>
<path fill-rule="evenodd" clip-rule="evenodd" d="M76.2647 126.214C76.495 126.496 77.0811 127.539 77.2056 128.062H80.5575C80.682 127.54 81.2674 126.496 81.4977 126.215C81.8913 125.735 82.1391 125.152 82.2117 124.536C82.2833 123.92 82.1762 123.297 81.9031 122.741C81.6274 122.181 81.1987 121.71 80.6667 121.383C80.13 121.053 79.5122 120.879 78.8821 120.879C78.2507 120.879 77.632 121.054 77.0974 121.383C76.5652 121.71 76.1364 122.18 75.8606 122.74C75.5873 123.296 75.4799 123.919 75.5512 124.534C75.6228 125.149 75.8701 125.732 76.2647 126.214ZM79.121 122.794L77.6845 124.949H78.6422V126.386L80.0787 124.231H79.121V122.794Z" fill="white"/>
<path d="M77.2051 128.78C77.2051 128.717 77.2303 128.656 77.2752 128.611C77.3201 128.566 77.381 128.541 77.4445 128.541H80.3176C80.3811 128.541 80.442 128.566 80.4869 128.611C80.5318 128.656 80.557 128.717 80.557 128.78C80.557 128.844 80.5318 128.905 80.4869 128.95C80.442 128.995 80.3811 129.02 80.3176 129.02H77.4445C77.381 129.02 77.3201 128.995 77.2752 128.95C77.2303 128.905 77.2051 128.844 77.2051 128.78ZM80.557 129.499H77.2051V129.978C77.2051 130.105 77.2555 130.226 77.3453 130.316C77.4351 130.406 77.5569 130.456 77.6839 130.456H80.0781C80.2051 130.456 80.3269 130.406 80.4167 130.316C80.5065 130.226 80.557 130.105 80.557 129.978V129.499Z" fill="white"/>
</g>
<defs>
<filter id="filter0_d_474_3926" x="66.8525" y="114.666" width="24.9323" height="24.9328" filterUnits="userSpaceOnUse" color-interpolation-filters="sRGB">
<feFlood flood-opacity="0" result="BackgroundImageFix"/>
<feColorMatrix in="SourceAlpha" type="matrix" values="0 0 0 0 0 0 0 0 0 0 0 0 0 0 0 0 0 0 127 0" result="hardAlpha"/>
<feOffset dy="1.00676"/>
<feGaussianBlur stdDeviation="1.1326"/>
<feComposite in2="hardAlpha" operator="out"/>
<feColorMatrix type="matrix" values="0 0 0 0 0 0 0 0 0 0 0 0 0 0 0 0 0 0 0.05 0"/>
<feBlend mode="normal" in2="BackgroundImageFix" result="effect1_dropShadow_474_3926"/>
<feBlend mode="normal" in="SourceGraphic" in2="effect1_dropShadow_474_3926" result="shape"/>
</filter>
<filter id="filter1_d_474_3926" x="55.1948" y="153.139" width="24.9323" height="24.9328" filterUnits="userSpaceOnUse" color-interpolation-filters="sRGB">
<feFlood flood-opacity="0" result="BackgroundImageFix"/>
<feColorMatrix in="SourceAlpha" type="matrix" values="0 0 0 0 0 0 0 0 0 0 0 0 0 0 0 0 0 0 127 0" result="hardAlpha"/>
<feOffset dy="1.00676"/>
<feGaussianBlur stdDeviation="1.1326"/>
<feComposite in2="hardAlpha" operator="out"/>
<feColorMatrix type="matrix" values="0 0 0 0 0 0 0 0 0 0 0 0 0 0 0 0 0 0 0.05 0"/>
<feBlend mode="normal" in2="BackgroundImageFix" result="effect1_dropShadow_474_3926"/>
<feBlend mode="normal" in="SourceGraphic" in2="effect1_dropShadow_474_3926" result="shape"/>
</filter>
<linearGradient id="paint0_linear_474_3926" x1="93.4912" y1="204" x2="93.4912" y2="-73.6413" gradientUnits="userSpaceOnUse">
<stop stop-color="#137417"/>
<stop offset="1" stop-color="#EBF4EC"/>
</linearGradient>
<linearGradient id="paint1_linear_474_3926" x1="93.4912" y1="204" x2="93.4912" y2="-73.6413" gradientUnits="userSpaceOnUse">
<stop stop-color="#137417"/>
<stop offset="1" stop-color="#EBF4EC"/>
</linearGradient>
<clipPath id="clip0_474_3926">
<rect width="11.6583" height="11.6583" fill="white" transform="translate(61.832 158.769)"/>
</clipPath>
</defs>
</svg>
