<svg width="205" height="204" viewBox="0 0 205 204" fill="none" xmlns="http://www.w3.org/2000/svg">
<circle cx="102.5" cy="102" r="102" fill="url(#paint0_linear_474_3982)" fill-opacity="0.05"/>
<mask id="mask0_474_3982" style="mask-type:alpha" maskUnits="userSpaceOnUse" x="0" y="0" width="205" height="204">
<circle cx="102.5" cy="102" r="102" fill="url(#paint1_linear_474_3982)"/>
</mask>
<g mask="url(#mask0_474_3982)">
<path d="M151.582 86.1475C160.908 86.1475 168.469 93.7081 168.469 103.035V232.504C168.469 241.83 160.908 249.391 151.582 249.391H55.8873C46.5607 249.391 39 241.83 39 232.504V103.035C39 93.7081 46.5607 86.1475 55.8873 86.1475H69.96L-nan -nanL69.96 86.1475C69.96 104.801 85.0813 119.922 103.734 119.922C120.534 119.922 134.468 107.657 137.072 91.5932C137.555 88.6125 139.957 86.1475 142.977 86.1475H151.582Z" fill="white"/>
<ellipse cx="103.734" cy="86.1454" rx="28.1454" ry="28.1454" fill="#2E813E"/>
<path d="M103.954 69.2568C103.074 69.2568 102.2 69.5524 101.448 70.0928L99.1172 71.7196L96.4321 72.0714H96.3885L96.3448 72.115C95.4642 72.3139 94.658 72.7582 94.0196 73.3966C93.3812 74.035 92.9369 74.8412 92.738 75.7218L92.6958 75.7655V75.8091L92.344 78.5364L90.7172 80.6473L90.6721 80.6909V80.7345C89.6884 82.3065 89.6448 84.3357 90.7172 85.8359L92.3876 88.1663L92.8281 90.5868L88.2981 97.4895L86.8472 99.6455H93.5753L95.2021 103.427L96.214 105.846L97.6649 103.646L102.106 96.9618C103.3 97.4515 104.646 97.4965 105.802 96.9618L110.243 103.646L111.694 105.846L112.706 103.427L114.333 99.6455H121.061L119.61 97.4895L115.212 90.8064L115.564 88.1677L117.191 85.8373L117.236 85.7937V85.7501C118.219 84.1781 118.263 82.1925 117.191 80.6923L115.564 78.3605L115.036 75.7218H115.08C115.074 75.6881 115.042 75.6655 115.036 75.6332C114.783 73.7925 113.326 72.2979 111.474 72.0714H111.429L108.791 71.7196L106.46 70.0928C105.732 69.5596 104.856 69.2673 103.954 69.2568ZM103.954 72.115C104.278 72.115 104.597 72.2135 104.833 72.3796L107.34 74.1823L107.648 74.4018L108 74.4469L111.079 74.8859H111.121C111.754 74.9563 112.194 75.3968 112.265 76.03V76.1173L112.838 79.24L112.88 79.5482L113.101 79.8114L114.904 82.3177C115.24 82.7849 115.284 83.5772 114.86 84.2527L112.882 87.0236L112.837 87.3755L112.398 90.4546V90.4968C112.374 90.7167 112.299 90.9279 112.178 91.1132L112.089 91.1582V91.2004C111.88 91.4516 111.58 91.61 111.255 91.6409H111.166L107.956 92.2137L107.604 92.2559L107.34 92.4768L104.833 94.2795C104.366 94.6159 103.53 94.6595 102.855 94.2359L100.568 92.4768L100.303 92.2573L99.9081 92.2122L96.8289 91.7732H96.7867C96.5877 91.7556 96.3959 91.6904 96.2274 91.5832C96.0589 91.4759 95.9186 91.3296 95.8185 91.1568C95.725 90.9945 95.6652 90.815 95.6426 90.6291V90.5418L95.0713 87.3318L95.0262 86.98L94.8067 86.7154L93.004 84.2091C92.6676 83.7419 92.624 82.906 93.0476 82.2305L94.8067 79.9437L95.0262 79.6791L95.0699 79.2836L95.4667 76.3368C95.4723 76.3157 95.5047 76.3157 95.5103 76.2932C95.5981 75.9544 95.7748 75.6453 96.0223 75.3979C96.2697 75.1504 96.5788 74.9737 96.9176 74.8859C96.9401 74.8803 96.9401 74.8479 96.9612 74.8423L99.9081 74.4454L100.26 74.4032L100.568 74.1823L103.074 72.3796C103.311 72.2149 103.63 72.115 103.954 72.115ZM113.673 93.5323L115.829 96.8309H112.44L112.088 97.7105L111.121 99.9522L108.131 95.3786L108.789 94.8959L111.562 94.4118V94.4554C111.594 94.4498 111.615 94.4174 111.649 94.4118C112.39 94.305 113.089 94.0012 113.673 93.5323ZM94.2353 93.5759C94.8464 94.1314 95.6141 94.4848 96.4335 94.5877H96.4771L99.1608 94.9395L99.7758 95.4236L96.7853 99.9522L95.8185 97.7105L95.4667 96.8309H92.0808L94.2353 93.5759Z" fill="#F7F7F5"/>
<rect x="58.7017" y="139.62" width="90.0654" height="33.7745" rx="8" fill="#F7F7F5"/>
<rect x="69.959" y="152.287" width="16.8873" height="8.44363" rx="4.22181" fill="#2E813E"/>
<rect x="92.4756" y="152.287" width="45.0327" height="8.44363" rx="4.22181" fill="#2E813E"/>
<rect x="58.7012" y="181.841" width="90.0654" height="33.7745" rx="8" fill="#F7F7F5"/>
<rect x="69.959" y="194.508" width="16.8873" height="8.44363" rx="4.22181" fill="#2E813E"/>
<rect x="92.4756" y="194.508" width="45.0327" height="8.44363" rx="4.22181" fill="#2E813E"/>
</g>
<defs>
<linearGradient id="paint0_linear_474_3982" x1="93.4912" y1="204" x2="93.4912" y2="-73.6413" gradientUnits="userSpaceOnUse">
<stop stop-color="#137417"/>
<stop offset="1" stop-color="#EBF4EC"/>
</linearGradient>
<linearGradient id="paint1_linear_474_3982" x1="93.4912" y1="204" x2="93.4912" y2="-73.6413" gradientUnits="userSpaceOnUse">
<stop stop-color="#137417"/>
<stop offset="1" stop-color="#EBF4EC"/>
</linearGradient>
</defs>
</svg>
