<svg width="205" height="204" viewBox="0 0 205 204" fill="none" xmlns="http://www.w3.org/2000/svg">
<circle cx="102.5" cy="102" r="102" fill="url(#paint0_linear_474_3845)" fill-opacity="0.05"/>
<mask id="mask0_474_3845" style="mask-type:alpha" maskUnits="userSpaceOnUse" x="0" y="0" width="205" height="204">
<circle cx="102.5" cy="102" r="102" fill="url(#paint1_linear_474_3845)"/>
</mask>
<g mask="url(#mask0_474_3845)">
<path d="M167 223.711H39V85.7556C45.0331 85.7488 50.8171 83.3492 55.0831 79.0832C59.3491 74.8171 61.7488 69.0331 61.7556 63H144.244C144.238 65.9886 144.824 68.9488 145.97 71.7094C147.115 74.4699 148.796 76.976 150.916 79.0825C153.023 81.2031 155.529 82.8849 158.29 84.0304C161.05 85.1758 164.011 85.7622 167 85.7556V223.711Z" fill="white"/>
<path d="M103 127C117.359 127 129 115.359 129 101C129 86.6406 117.359 75 103 75C88.6406 75 77 86.6406 77 101C77 115.359 88.6406 127 103 127Z" fill="#2E813E"/>
<path d="M99.0002 107.234L93.4402 101.5L91.5469 103.439L99.0002 111.125L115 94.6253L113.12 92.6865L99.0002 107.234Z" fill="white"/>
<path d="M121.489 141.978H84.5113C82.1549 141.978 80.2446 143.888 80.2446 146.244C80.2446 148.601 82.1549 150.511 84.5113 150.511H121.489C123.845 150.511 125.756 148.601 125.756 146.244C125.756 143.888 123.845 141.978 121.489 141.978Z" fill="#F7F7F5"/>
<path d="M134.289 159.045H71.711C69.3546 159.045 67.4443 160.955 67.4443 163.312C67.4443 165.668 69.3546 167.578 71.711 167.578H134.289C136.645 167.578 138.555 165.668 138.555 163.312C138.555 160.955 136.645 159.045 134.289 159.045Z" fill="#F7F7F5"/>
<circle cx="75" cy="187" r="11" fill="#E7E9EF"/>
<ellipse cx="102.5" cy="187" rx="10.5" ry="11" fill="#E7E9EF"/>
<circle cx="130" cy="187" r="11" fill="#E7E9EF"/>
</g>
<defs>
<linearGradient id="paint0_linear_474_3845" x1="93.4912" y1="204" x2="93.4912" y2="-73.6413" gradientUnits="userSpaceOnUse">
<stop stop-color="#137417"/>
<stop offset="1" stop-color="#EBF4EC"/>
</linearGradient>
<linearGradient id="paint1_linear_474_3845" x1="93.4912" y1="204" x2="93.4912" y2="-73.6413" gradientUnits="userSpaceOnUse">
<stop stop-color="#137417"/>
<stop offset="1" stop-color="#EBF4EC"/>
</linearGradient>
</defs>
</svg>
