<svg width="205" height="204" viewBox="0 0 205 204" fill="none" xmlns="http://www.w3.org/2000/svg">
<circle cx="102.5" cy="102" r="102" fill="url(#paint0_linear_474_3821)" fill-opacity="0.05"/>
<mask id="mask0_474_3821" style="mask-type:alpha" maskUnits="userSpaceOnUse" x="5" y="2" width="200" height="200">
<path d="M105 202C160.228 202 205 157.228 205 102C205 46.7715 160.228 2 105 2C49.7715 2 5 46.7715 5 102C5 157.228 49.7715 202 105 202Z" fill="url(#paint1_linear_474_3821)"/>
</mask>
<g mask="url(#mask0_474_3821)">
<path d="M162.333 59.332H47.6662C43.9843 59.332 40.9995 62.3168 40.9995 65.9987V205.999C40.9995 209.681 43.9843 212.665 47.6662 212.665H162.333C166.015 212.665 169 209.681 169 205.999V65.9987C169 62.3168 166.015 59.332 162.333 59.332Z" fill="white"/>
</g>
<path d="M93.0007 72.666H58.334C56.1248 72.666 54.334 74.4569 54.334 76.666C54.334 78.8752 56.1248 80.666 58.334 80.666H93.0007C95.2098 80.666 97.0007 78.8752 97.0007 76.666C97.0007 74.4569 95.2098 72.666 93.0007 72.666Z" fill="#F7F7F5"/>
<path d="M93.0007 128.665H58.334C56.1248 128.665 54.334 130.456 54.334 132.665C54.334 134.874 56.1248 136.665 58.334 136.665H93.0007C95.2098 136.665 97.0007 134.874 97.0007 132.665C97.0007 130.456 95.2098 128.665 93.0007 128.665Z" fill="#F7F7F5"/>
<path d="M148.999 92.665H60.9993C58.0538 92.665 55.666 95.0529 55.666 97.9984V111.332C55.666 114.277 58.0538 116.665 60.9993 116.665H148.999C151.945 116.665 154.333 114.277 154.333 111.332V97.9984C154.333 95.0529 151.945 92.665 148.999 92.665Z" stroke="#2E813E" stroke-width="2"/>
<path d="M149.001 147.334H61.0007C57.3188 147.334 54.334 150.319 54.334 154.001V164.667C54.334 168.349 57.3188 171.334 61.0007 171.334H149.001C152.683 171.334 155.667 168.349 155.667 164.667V154.001C155.667 150.319 152.683 147.334 149.001 147.334Z" fill="#F7F7F5"/>
<path d="M75.6673 44.6657C78.6128 44.6657 81.0007 42.2779 81.0007 39.3324C81.0007 36.3868 78.6128 33.999 75.6673 33.999C72.7218 33.999 70.334 36.3868 70.334 39.3324C70.334 42.2779 72.7218 44.6657 75.6673 44.6657Z" fill="white"/>
<path d="M105.001 44.6657C107.947 44.6657 110.335 42.2779 110.335 39.3324C110.335 36.3868 107.947 33.999 105.001 33.999C102.056 33.999 99.668 36.3868 99.668 39.3324C99.668 42.2779 102.056 44.6657 105.001 44.6657Z" fill="#2E813E"/>
<path d="M134.333 44.6657C137.279 44.6657 139.667 42.2779 139.667 39.3324C139.667 36.3868 137.279 33.999 134.333 33.999C131.388 33.999 129 36.3868 129 39.3324C129 42.2779 131.388 44.6657 134.333 44.6657Z" fill="white"/>
<path d="M119.668 119.332C123.35 119.332 126.334 116.348 126.334 112.666C126.334 108.984 123.35 105.999 119.668 105.999C115.986 105.999 113.001 108.984 113.001 112.666C113.001 116.348 115.986 119.332 119.668 119.332Z" fill="#F7F7F5"/>
<path d="M124.877 141.16C123.81 141.16 122.814 141.16 121.907 141.103C120.79 141.027 119.716 140.645 118.802 139.998C117.889 139.351 117.171 138.465 116.729 137.437L111.103 126.32C110.691 125.839 110.485 125.215 110.53 124.584C110.576 123.952 110.869 123.364 111.346 122.948C111.737 122.634 112.224 122.465 112.726 122.469C113.095 122.48 113.458 122.571 113.788 122.735C114.119 122.899 114.41 123.133 114.642 123.421L117.197 126.908L117.235 126.953V113.707C117.235 113.049 117.496 112.419 117.961 111.954C118.426 111.49 119.056 111.229 119.713 111.229C120.37 111.229 121.001 111.49 121.465 111.954C121.93 112.419 122.191 113.049 122.191 113.707V122.373C122.162 122.054 122.2 121.733 122.303 121.429C122.405 121.126 122.569 120.847 122.785 120.611C123.001 120.374 123.264 120.186 123.557 120.056C123.85 119.927 124.167 119.861 124.487 119.861C124.807 119.861 125.124 119.927 125.417 120.056C125.71 120.186 125.973 120.374 126.189 120.611C126.405 120.847 126.569 121.126 126.672 121.429C126.774 121.733 126.812 122.054 126.783 122.373V124.18C126.754 123.861 126.792 123.54 126.895 123.236C126.997 122.933 127.161 122.654 127.377 122.418C127.593 122.181 127.856 121.992 128.149 121.863C128.442 121.734 128.759 121.667 129.079 121.667C129.399 121.667 129.716 121.734 130.009 121.863C130.302 121.992 130.565 122.181 130.781 122.418C130.997 122.654 131.161 122.933 131.264 123.236C131.366 123.54 131.404 123.861 131.375 124.18V125.572C131.346 125.253 131.384 124.932 131.487 124.628C131.589 124.325 131.753 124.046 131.969 123.809C132.185 123.573 132.448 123.384 132.741 123.255C133.034 123.126 133.351 123.059 133.671 123.059C133.991 123.059 134.308 123.126 134.601 123.255C134.894 123.384 135.157 123.573 135.373 123.809C135.589 124.046 135.753 124.325 135.856 124.628C135.958 124.932 135.996 125.253 135.967 125.572V134.021C135.922 136.62 134.747 141.001 130.615 141.001C130.315 141.015 127.774 141.161 124.882 141.161L124.877 141.16Z" fill="#2E813E" stroke="white"/>
<defs>
<linearGradient id="paint0_linear_474_3821" x1="93.4912" y1="204" x2="93.4912" y2="-73.6413" gradientUnits="userSpaceOnUse">
<stop stop-color="#137417"/>
<stop offset="1" stop-color="#EBF4EC"/>
</linearGradient>
<linearGradient id="paint1_linear_474_3821" x1="105" y1="2" x2="105" y2="202" gradientUnits="userSpaceOnUse">
<stop stop-color="#E3ECFA"/>
<stop offset="1" stop-color="#DAE7FF"/>
</linearGradient>
</defs>
</svg>
