<svg width="69" height="69" viewBox="0 0 69 69" fill="none" xmlns="http://www.w3.org/2000/svg">
<rect opacity="0.1" x="0.5" y="0.301758" width="68" height="68" rx="34" fill="#348D3D"/>
<path d="M53.4982 31.6358V40.8138C53.4982 42.4769 52.857 44.0408 51.6739 45.2222L50.1614 46.7347C49.4901 47.406 49.1093 48.3181 49.1093 49.2692V53.929H41.8352V43.699C41.8352 42.778 42.1859 41.896 42.8164 41.2141L47.014 36.7242C47.2744 36.4444 47.6357 36.2832 48.0254 36.2726C48.4062 36.262 48.7763 36.393 49.0579 36.664C49.1182 36.7136 49.1677 36.7738 49.2191 36.8341C49.2386 36.8748 49.2598 36.8943 49.2793 36.9244C49.63 37.4646 49.5893 38.2067 49.1288 38.6973L44.6301 43.5076C44.3396 43.8087 44.3591 44.2887 44.6602 44.5703C44.9613 44.8502 45.4413 44.8413 45.7229 44.5296L50.2216 39.7297C51.1337 38.7485 51.2542 37.3245 50.613 36.2228V31.7542C50.613 30.943 51.1939 30.2611 51.9254 30.1903C52.3664 30.1602 52.7774 30.3107 53.0785 30.6207C53.3583 30.8917 53.5 31.2424 53.5 31.632L53.4982 31.6358ZM26.1818 41.2159L21.9842 36.7261C21.7238 36.4463 21.3625 36.2851 20.9728 36.2745C20.592 36.2638 20.2219 36.3949 19.9403 36.6659C19.88 36.7155 19.8305 36.7757 19.7791 36.8359C19.7596 36.8767 19.7384 36.8961 19.7189 36.9262C19.3682 37.4664 19.4089 38.2085 19.8694 38.6992L24.3681 43.5095C24.6586 43.8106 24.6391 44.2906 24.338 44.5722C24.0369 44.852 23.5569 44.8432 23.2753 44.5314L18.7766 39.7316C17.8645 38.7504 17.744 37.3264 18.3852 36.2247V31.7561C18.3852 30.9449 17.8043 30.263 17.0728 30.2028C16.6424 30.1532 16.2208 30.3126 15.9304 30.6137C15.6399 30.8935 15.5 31.2442 15.5 31.6356V40.8136C15.5 42.4768 16.1412 44.0407 17.3243 45.222L18.8368 46.7346C19.5081 47.4059 19.8889 48.318 19.8889 49.2691V53.9288H27.163V43.6989C27.163 42.7779 26.8123 41.8958 26.1818 41.214L26.1818 41.2159Z" fill="#348D3D"/>
<path d="M34.4997 40.6456C41.7738 40.6456 47.6664 34.7426 47.6664 27.4685C47.6664 20.1943 41.7738 14.3018 34.4997 14.3018C27.2256 14.3018 21.333 20.1943 21.333 27.4685C21.333 34.7439 27.2256 40.6456 34.4997 40.6456Z" fill="#348D3D"/>
<path d="M37.066 26.7175C37.337 26.7175 37.5867 26.868 37.7177 27.0983C37.847 27.3392 37.8471 27.6188 37.7071 27.8597L33.9098 34.2519C33.7593 34.491 33.5184 34.6221 33.258 34.6221C33.1269 34.6221 32.9976 34.5831 32.8772 34.5123C32.5159 34.3015 32.3972 33.841 32.6169 33.4797L35.7429 28.2192H31.935C31.664 28.2192 31.4142 28.0793 31.2832 27.8384C31.1539 27.6081 31.1539 27.3177 31.2938 27.0874L35.0912 20.6848C35.3125 20.3341 35.773 20.2137 36.1237 20.4244C36.485 20.6458 36.6037 21.1063 36.3841 21.457L33.258 26.7175H37.066Z" fill="white"/>
</svg>
