<svg width="69" height="69" viewBox="0 0 69 69" fill="none" xmlns="http://www.w3.org/2000/svg">
<rect opacity="0.1" x="0.933594" y="0.301758" width="68" height="68" rx="34" fill="#348D3D"/>
<path d="M20.9336 15.3018V48.778H33.7134L35.5512 45.5689C34.3505 44.0924 33.6003 42.2288 33.6003 40.1827C33.6003 35.4571 37.4699 31.5875 42.1955 31.5875C43.3145 31.5875 44.3792 31.8156 45.3622 32.2095V23.4446H38.1241C37.8841 23.4446 37.654 23.3493 37.4843 23.1796C37.3147 23.0099 37.2193 22.7798 37.2193 22.5399V15.3018H20.9336ZM39.0288 15.3018V21.6351H45.3622L39.0288 15.3018ZM42.1955 33.397C38.4479 33.397 35.4098 36.4351 35.4098 40.1827C35.4098 42.2375 36.3278 44.07 37.7706 45.3144L34.505 51.0399L37.6717 50.1351L38.5765 53.3018L41.9552 46.9543C42.0358 46.9571 42.1142 46.9684 42.1955 46.9684C42.2768 46.9684 42.3552 46.9571 42.4358 46.9543L45.8145 53.3018L46.7193 50.1351L49.886 51.0399L46.6203 45.3144C48.0621 44.0701 48.9812 42.2367 48.9812 40.1827C48.9812 36.4351 45.9431 33.397 42.1955 33.397ZM42.1955 36.5637C44.1942 36.5637 45.8145 38.184 45.8145 40.1827C45.8145 42.1815 44.1942 43.8018 42.1955 43.8018C40.1968 43.8018 38.5765 42.1815 38.5765 40.1827C38.5765 38.184 40.1968 36.5637 42.1955 36.5637Z" fill="#348D3D"/>
</svg>
