<svg width="69" height="69" viewBox="0 0 69 69" fill="none" xmlns="http://www.w3.org/2000/svg">
<rect opacity="0.1" x="0.835938" y="0.301758" width="68" height="68" rx="34" fill="#348D3D"/>
<path d="M50.6477 23.2528C50.5088 23.0595 50.3295 22.8987 50.1222 22.7816C49.915 22.6645 49.6847 22.5939 49.4474 22.5747C49.2101 22.5555 48.9715 22.5881 48.7481 22.6704C48.5247 22.7526 48.3219 22.8825 48.1537 23.051L23.9035 47.3076C23.735 47.4758 23.6052 47.6787 23.5229 47.9021C23.4407 48.1255 23.408 48.3641 23.4272 48.6014C23.4464 48.8387 23.517 49.0689 23.6341 49.2762C23.7512 49.4835 23.912 49.6628 24.1054 49.8017C27.766 52.466 32.2576 53.7358 36.7713 53.3822C41.285 53.0287 45.5242 51.075 48.7252 47.8732C51.9263 44.6713 53.8789 40.4317 54.2314 35.9179C54.5838 31.4041 53.313 26.9128 50.6477 23.2528Z" fill="#348D3D"/>
<path d="M39.1279 29.1398L46.6947 21.6251C46.864 21.4572 46.9948 21.2545 47.0782 21.0312C47.1615 20.8078 47.1954 20.569 47.1774 20.3312C47.1595 20.0935 47.0901 19.8624 46.9742 19.6541C46.8582 19.4458 46.6984 19.2651 46.5058 19.1245C44.0828 17.3399 41.2668 16.163 38.2944 15.6928C38.0598 15.6541 37.8197 15.6668 37.5905 15.7301C37.3614 15.7934 37.1487 15.9058 36.9672 16.0593C36.7858 16.2129 36.6398 16.4041 36.5396 16.6197C36.4393 16.8352 36.387 17.07 36.3864 17.3077L36.3408 27.9741C36.3395 28.2976 36.4342 28.6142 36.6129 28.8838C36.7916 29.1534 37.0462 29.364 37.3447 29.4888C37.6431 29.6136 37.9718 29.647 38.2893 29.5849C38.6067 29.5228 38.8986 29.3679 39.1279 29.1398Z" fill="#348D3D"/>
<path d="M34.2693 33.3397L34.3409 17.2879C34.3417 17.0502 34.2911 16.8151 34.1924 16.5987C34.0938 16.3824 33.9495 16.19 33.7695 16.0347C33.5894 15.8794 33.3779 15.765 33.1495 15.6991C32.921 15.6333 32.681 15.6177 32.4459 15.6535C28.5094 16.2443 24.8616 18.0682 22.027 20.8629C21.9684 20.9007 21.9139 20.9443 21.8642 20.9932C18.6481 24.1991 16.6894 28.4527 16.344 32.9806C15.9987 37.5085 17.2896 42.01 19.9823 45.6666C20.1234 45.8566 20.3038 46.0139 20.5113 46.1279C20.7187 46.2419 20.9482 46.3099 21.1843 46.3272C21.4203 46.3445 21.6573 46.3107 21.8792 46.2282C22.101 46.1457 22.3024 46.0163 22.4698 45.8489L33.7939 34.4858C33.9448 34.3355 34.0645 34.1569 34.146 33.9602C34.2276 33.7635 34.2695 33.5526 34.2693 33.3397Z" fill="#348D3D"/>
</svg>
