<svg width="69" height="69" viewBox="0 0 69 69" fill="none" xmlns="http://www.w3.org/2000/svg">
<rect opacity="0.1" x="0.169922" y="0.301758" width="68" height="68" rx="34" fill="#348D3D"/>
<path d="M45.409 33.737C45.4703 36.4949 44.6735 40.1109 43.2026 43.2979C41.793 46.4236 39.7705 49.1202 37.319 50.346C37.3803 50.1008 37.3803 49.7944 37.3803 49.488C37.3803 46.9139 35.2965 44.8301 32.7224 44.8301C31.9256 44.8301 31.1902 45.0139 30.516 45.3817C26.9613 45.2591 25.1227 42.7463 25.1227 42.7463C23.5905 39.8045 22.6099 36.6175 22.5486 34.166C22.426 27.9146 27.3903 22.7052 33.703 22.5826C40.1382 22.5213 45.2864 27.4856 45.409 33.737Z" fill="#348D3D"/>
<path d="M53.0703 37.2914C53.0703 40.2332 50.6188 42.6847 47.677 42.6847C47.4318 42.6847 47.1254 42.6847 46.8802 42.6234C46.1448 42.5008 45.7158 41.7041 45.9609 40.9073C46.7577 38.3945 47.1867 35.8817 47.1254 33.6754C47.0641 30.182 45.6545 26.9337 43.1417 24.4822C40.6289 22.0307 37.3193 20.7436 33.8259 20.8662C30.3325 20.9275 27.0843 22.3371 24.6328 24.8499C22.1812 27.3627 20.8942 30.6723 21.0168 34.1657C21.0781 36.1882 21.6296 38.5171 22.4877 40.7848C22.7328 41.4589 22.4264 42.1944 21.7522 42.4395C21.9361 42.9298 22.3038 43.5427 22.7941 44.2169C24.2037 46.1781 26.8391 48.4457 31.6196 48.6909C31.8647 48.2619 32.2937 48.0167 32.8453 48.0167C33.6421 48.0167 34.3162 48.6909 34.3162 49.4876C34.3162 50.2844 33.6421 50.9585 32.8453 50.9585C32.2937 50.9585 31.8647 50.6521 31.5583 50.2231C26.1037 50.0392 23.0393 47.3426 21.4458 45.0136C20.7103 43.9717 20.2813 43.1137 20.0362 42.5008H19.2394C16.7879 41.9492 15.0106 39.7429 15.0719 37.1075C15.1331 35.085 16.2976 33.3077 18.0137 32.4496C18.3201 24.1145 25.7359 17.3115 34.3162 17.3115C42.8352 17.3115 49.8833 24.1145 50.2511 32.5722C51.1091 33.0012 51.7833 33.6754 52.3349 34.5334C52.7639 35.3301 53.0703 36.2495 53.0703 37.2914Z" fill="#348D3D"/>
<path d="M43.2031 43.3591C44.6127 40.1721 45.4707 36.5562 45.4094 33.7982C45.2868 27.4856 40.1387 22.5212 33.826 22.6438C27.5747 22.7664 22.5491 27.9146 22.6716 34.2272C22.7329 36.74 23.7135 39.8657 25.2457 42.8075" fill="#348D3D"/>
</svg>
