<svg width="20" height="19" viewBox="0 0 20 19" fill="none" xmlns="http://www.w3.org/2000/svg">
<path id="Vector" d="M1.34872 6.75155L3.24805 6.53229C3.28106 6.52856 3.31448 6.53136 3.3464 6.54054C3.37833 6.54972 3.40813 6.5651 3.43411 6.5858C3.46009 6.60649 3.48174 6.63211 3.49782 6.66117C3.5139 6.69023 3.5241 6.72218 3.52784 6.75519L4.12914 11.9639C4.13302 11.9969 4.13037 12.0304 4.12133 12.0623C4.1123 12.0943 4.09705 12.1242 4.07647 12.1502C4.05589 12.1763 4.03038 12.1981 4.00138 12.2143C3.97239 12.2305 3.94049 12.2408 3.9075 12.2447L2.00817 12.464C1.6335 12.5064 1.25733 12.3982 0.962415 12.1633C0.667501 11.9283 0.477999 11.5858 0.435596 11.2112L0.102964 8.32975C0.0811348 8.14433 0.0960416 7.95642 0.146833 7.77676C0.197624 7.59709 0.283306 7.4292 0.398985 7.28265C0.514664 7.1361 0.658076 7.01377 0.821032 6.92264C0.983988 6.83152 1.1633 6.77338 1.34872 6.75155ZM10.9909 2.58269L4.26499 6.35467C4.22491 6.37722 4.19241 6.41115 4.17161 6.45216C4.1508 6.49317 4.14261 6.53942 4.14807 6.58509L5.40284 17.1625C5.42967 17.3977 5.50451 17.6249 5.62274 17.83C5.74097 18.0351 5.90006 18.2137 6.09015 18.3548C6.28024 18.4959 6.49729 18.5964 6.72782 18.6501C6.95836 18.7039 7.19749 18.7097 7.43037 18.6673C7.86637 18.5755 8.25168 18.3226 8.50933 17.9591C8.76698 17.5956 8.878 17.1483 8.82021 16.7065L8.41429 13.1902L12.3467 14.3262C12.4018 14.3415 12.4598 14.3429 12.5156 14.3302C12.5713 14.3176 12.623 14.2913 12.6662 14.2538C12.7093 14.2162 12.7424 14.1686 12.7626 14.1151C12.7828 14.0616 12.7894 14.004 12.7819 13.9473L11.5011 2.85253C11.4955 2.79564 11.4759 2.74101 11.4441 2.69354C11.4122 2.64606 11.3691 2.60722 11.3186 2.58049C11.2681 2.55376 11.2117 2.53997 11.1545 2.54035C11.0974 2.54073 11.0411 2.55529 10.9909 2.58269ZM18.7393 7.31711L14.8983 7.76052C14.8153 7.77147 14.74 7.8146 14.6885 7.8806C14.637 7.94661 14.6135 8.0302 14.6231 8.11335C14.6327 8.1965 14.6746 8.27254 14.7398 8.32508C14.805 8.37762 14.8882 8.40244 14.9714 8.3942L18.8124 7.95079C18.8954 7.93984 18.9708 7.89671 19.0223 7.83071C19.0737 7.76471 19.0972 7.68112 19.0876 7.59797C19.078 7.51482 19.0361 7.43877 18.9709 7.38623C18.9058 7.33369 18.8226 7.30887 18.7393 7.31711ZM18.6442 14.0807L14.8638 11.9847C14.7897 11.944 14.7026 11.9344 14.6214 11.958C14.5403 11.9817 14.4719 12.0365 14.4313 12.1106C14.3906 12.1846 14.381 12.2718 14.4047 12.3529C14.4283 12.434 14.4831 12.5024 14.5572 12.5431L18.3376 14.6391C18.3741 14.6594 18.4142 14.6722 18.4557 14.6769C18.4972 14.6816 18.5392 14.678 18.5793 14.6664C18.6194 14.6548 18.6568 14.6353 18.6893 14.6092C18.7219 14.5831 18.749 14.5508 18.769 14.5142C18.8096 14.4401 18.8193 14.3529 18.7959 14.2717C18.7726 14.1905 18.718 14.1218 18.6442 14.0807ZM13.7994 4.36909C13.865 4.36152 13.9265 4.33358 13.9754 4.2892L17.1788 1.38696C17.2413 1.3301 17.2788 1.25082 17.2831 1.16641C17.2873 1.08201 17.258 0.999343 17.2016 0.936458C17.1737 0.905361 17.14 0.880076 17.1024 0.862059C17.0647 0.844041 17.0238 0.833647 16.9822 0.831473C16.9405 0.8293 16.8988 0.83539 16.8594 0.849394C16.8201 0.863398 16.7839 0.885039 16.753 0.913072L13.5497 3.81533C13.4871 3.87219 13.4496 3.95148 13.4454 4.03588C13.4411 4.12028 13.4704 4.20295 13.5269 4.26583C13.5607 4.3036 13.6031 4.33269 13.6506 4.35066C13.698 4.36863 13.749 4.37495 13.7994 4.36909Z" fill="white"/>
</svg>
