<svg width="255" height="143" viewBox="0 0 255 143" fill="none" xmlns="http://www.w3.org/2000/svg">
<path fill-rule="evenodd" clip-rule="evenodd" d="M46.3611 98.1248C46.3611 102.671 50.0464 106.356 54.5926 106.356H226.278C230.824 106.356 234.509 102.671 234.509 98.1248C234.509 93.5787 230.824 89.8933 226.278 89.8933H219.222C214.676 89.8933 210.991 86.208 210.991 81.6618C210.991 77.1157 214.676 73.4304 219.222 73.4304H241.565C246.111 73.4304 249.796 69.745 249.796 65.1989C249.796 60.6528 246.111 56.9674 241.565 56.9674H215.694C220.24 56.9674 223.926 53.2821 223.926 48.7359C223.926 44.1898 220.24 40.5045 215.694 40.5045H140.435C144.981 40.5045 148.667 36.8191 148.667 32.273C148.667 27.7269 144.981 24.0415 140.435 24.0415H73.4074C68.8612 24.0415 65.1759 27.7269 65.1759 32.273C65.1759 36.8191 68.8612 40.5045 73.4074 40.5045H26.3704C21.8242 40.5045 18.1389 44.1898 18.1389 48.7359C18.1389 53.2821 21.8242 56.9674 26.3704 56.9674H55.7685C60.3146 56.9674 64 60.6528 64 65.1989C64 69.745 60.3146 73.4304 55.7685 73.4304H8.73148C4.18536 73.4304 0.5 77.1157 0.5 81.6618C0.5 86.208 4.18536 89.8933 8.73148 89.8933H54.5926C50.0464 89.8933 46.3611 93.5787 46.3611 98.1248ZM254.5 98.1248C254.5 102.671 250.814 106.356 246.268 106.356C241.722 106.356 238.037 102.671 238.037 98.1248C238.037 93.5787 241.722 89.8933 246.268 89.8933C250.814 89.8933 254.5 93.5787 254.5 98.1248Z" fill="#FFF7F7"/>
<path d="M188.061 1.69922V8.75477" stroke="#FF5858" stroke-width="2.5" stroke-linecap="round" stroke-linejoin="round"/>
<path d="M188.061 18.1616V25.2172" stroke="#FF5858" stroke-width="2.5" stroke-linecap="round" stroke-linejoin="round"/>
<path d="M176.301 13.4584H183.357" stroke="#FF5858" stroke-width="2.5" stroke-linecap="round" stroke-linejoin="round"/>
<path d="M192.764 13.4584H199.819" stroke="#FF5858" stroke-width="2.5" stroke-linecap="round" stroke-linejoin="round"/>
<path d="M90.4591 122.819V127.523" stroke="#FF5858" stroke-width="2.5" stroke-linecap="round" stroke-linejoin="round"/>
<path d="M90.4591 136.93V141.634" stroke="#FF5858" stroke-width="2.5" stroke-linecap="round" stroke-linejoin="round"/>
<path d="M81.0513 132.227H85.755" stroke="#FF5858" stroke-width="2.5" stroke-linecap="round" stroke-linejoin="round"/>
<path d="M95.1626 132.227H99.8663" stroke="#FF5858" stroke-width="2.5" stroke-linecap="round" stroke-linejoin="round"/>
<path fill-rule="evenodd" clip-rule="evenodd" d="M110.145 112.532C115.56 114.844 121.345 115.999 127.5 115.999C133.662 116.005 139.447 114.851 144.855 112.537C150.264 110.222 154.973 107.087 158.984 103.13C162.995 99.1724 166.165 94.5158 168.494 89.1595C170.823 83.8032 171.992 78.0832 172 71.9995C172.009 65.9158 170.842 60.1958 168.498 54.8395C166.155 49.4832 162.983 44.8266 158.984 40.8695C154.985 36.9124 150.276 33.7782 144.855 31.4667C139.435 29.1552 133.65 27.9995 127.5 27.9995C121.351 27.9995 115.566 29.1552 110.145 31.4667C104.725 33.7782 100.016 36.9124 96.0167 40.8695C92.0177 44.8266 88.8478 49.4832 86.5071 54.8395C84.1664 60.1958 82.9975 65.9158 83.0005 71.9995C83.0035 78.0832 84.1723 83.8032 86.5071 89.1595C88.8419 94.5158 92.0117 99.1724 96.0167 103.13C100.022 107.087 104.731 110.221 110.145 112.532ZM129.387 56.2271C130.02 56.8579 130.375 57.7135 130.375 58.6056H123.625C123.625 57.7135 123.981 56.8579 124.614 56.2271C125.247 55.5963 126.105 55.2419 127 55.2419C127.896 55.2419 128.754 55.5963 129.387 56.2271ZM123.023 54.6415C121.968 55.6928 121.375 57.1188 121.375 58.6056H110.125C109.827 58.6056 109.541 58.7237 109.33 58.934C109.119 59.1442 109 59.4294 109 59.7268C109 60.0241 109.119 60.3093 109.33 60.5196C109.541 60.7299 109.827 60.848 110.125 60.848H112.497L115.183 84.0436C115.373 85.6833 116.161 87.1961 117.398 88.2943C118.634 89.3925 120.232 89.9994 121.888 89.9995H132.112C133.769 89.9994 135.367 89.3925 136.603 88.2943C137.84 87.1961 138.628 85.6833 138.817 84.0436L141.504 60.848H143.875C144.174 60.848 144.46 60.7299 144.671 60.5196C144.882 60.3093 145 60.0241 145 59.7268C145 59.4294 144.882 59.1442 144.671 58.934C144.46 58.7237 144.174 58.6056 143.875 58.6056H132.625C132.625 57.1188 132.033 55.6928 130.978 54.6415C129.923 53.5901 128.492 52.9995 127 52.9995C125.509 52.9995 124.078 53.5901 123.023 54.6415ZM124.421 66.7825C124.632 66.9927 124.75 67.2779 124.75 67.5753V81.0298C124.75 81.3272 124.632 81.6124 124.421 81.8226C124.21 82.0329 123.924 82.151 123.625 82.151C123.327 82.151 123.041 82.0329 122.83 81.8226C122.619 81.6124 122.5 81.3272 122.5 81.0298V67.5753C122.5 67.2779 122.619 66.9927 122.83 66.7825C123.041 66.5722 123.327 66.4541 123.625 66.4541C123.924 66.4541 124.21 66.5722 124.421 66.7825ZM129.58 66.7825C129.791 66.5722 130.077 66.4541 130.375 66.4541C130.674 66.4541 130.96 66.5722 131.171 66.7825C131.382 66.9927 131.5 67.2779 131.5 67.5753V81.0298C131.5 81.3272 131.382 81.6124 131.171 81.8226C130.96 82.0329 130.674 82.151 130.375 82.151C130.077 82.151 129.791 82.0329 129.58 81.8226C129.369 81.6124 129.25 81.3272 129.25 81.0298V67.5753C129.25 67.2779 129.369 66.9927 129.58 66.7825Z" fill="#FF5858"/>
</svg>
