<svg width="179" height="100" viewBox="0 0 179 100" fill="none" xmlns="http://www.w3.org/2000/svg">
<path fill-rule="evenodd" clip-rule="evenodd" d="M32.5139 68.5132C32.5139 71.6963 35.0944 74.2768 38.2775 74.2768H158.49C161.673 74.2768 164.254 71.6963 164.254 68.5132C164.254 65.33 161.673 62.7496 158.49 62.7496H153.55C150.367 62.7496 147.786 60.1691 147.786 56.9859C147.786 53.8028 150.367 51.2223 153.55 51.2223H169.194C172.377 51.2223 174.958 48.6419 174.958 45.4587C174.958 42.2755 172.377 39.6951 169.194 39.6951H151.08C154.263 39.6951 156.843 37.1146 156.843 33.9315C156.843 30.7483 154.263 28.1679 151.08 28.1679H98.3838C101.567 28.1679 104.147 25.5874 104.147 22.4042C104.147 19.2211 101.567 16.6406 98.3838 16.6406H51.4515C48.2684 16.6406 45.6879 19.2211 45.6879 22.4042C45.6879 25.5874 48.2684 28.1679 51.4515 28.1679H18.5166C15.3334 28.1679 12.7529 30.7483 12.7529 33.9315C12.7529 37.1146 15.3334 39.6951 18.5166 39.6951H39.1009C42.2841 39.6951 44.8645 42.2755 44.8645 45.4587C44.8645 48.6419 42.2841 51.2223 39.1009 51.2223H6.16596C2.9828 51.2223 0.402344 53.8028 0.402344 56.9859C0.402344 60.1691 2.9828 62.7496 6.16596 62.7496H38.2775C35.0944 62.7496 32.5139 65.33 32.5139 68.5132ZM178.251 68.5132C178.251 71.6963 175.671 74.2768 172.488 74.2768C169.304 74.2768 166.724 71.6963 166.724 68.5132C166.724 65.33 169.304 62.7495 172.488 62.7495C175.671 62.7495 178.251 65.33 178.251 68.5132Z" fill="#F3F7FF"/>
<path d="M131.73 1V5.94024" stroke="#FF5858" stroke-width="1.75048" stroke-linecap="round" stroke-linejoin="round"/>
<path d="M131.73 12.5234V17.4637" stroke="#FF5858" stroke-width="1.75048" stroke-linecap="round" stroke-linejoin="round"/>
<path d="M123.496 9.23675H128.436" stroke="#FF5858" stroke-width="1.75048" stroke-linecap="round" stroke-linejoin="round"/>
<path d="M135.023 9.23675H139.964" stroke="#FF5858" stroke-width="1.75048" stroke-linecap="round" stroke-linejoin="round"/>
<path d="M63.3902 85.8047V89.0982" stroke="#FF5858" stroke-width="1.75048" stroke-linecap="round" stroke-linejoin="round"/>
<path d="M63.3902 95.6875V98.981" stroke="#FF5858" stroke-width="1.75048" stroke-linecap="round" stroke-linejoin="round"/>
<path d="M56.8032 92.393H60.0967" stroke="#FF5858" stroke-width="1.75048" stroke-linecap="round" stroke-linejoin="round"/>
<path d="M66.6841 92.393H69.9776" stroke="#FF5858" stroke-width="1.75048" stroke-linecap="round" stroke-linejoin="round"/>
<rect x="57.8486" y="18.5156" width="62.9554" height="62.9554" rx="31.4777" fill="#FFE3E3"/>
<path d="M103.837 50C103.837 41.7155 97.1214 35 88.8369 35C80.5524 35 73.8369 41.7155 73.8369 50C73.8369 58.2845 80.5524 65 88.8369 65C97.1214 65 103.837 58.2845 103.837 50Z" stroke="#F26D04" stroke-width="1.5" stroke-linecap="round" stroke-linejoin="round"/>
<path d="M89.1997 57.5V50C89.1997 49.2935 89.1997 48.9395 88.9807 48.719C88.7602 48.5 88.4077 48.5 87.6997 48.5M88.8247 44H88.8382" stroke="#F26D04" stroke-width="1.5" stroke-linecap="round" stroke-linejoin="round"/>
</svg>
