<svg width="18" height="18" viewBox="0 0 18 18" fill="none" xmlns="http://www.w3.org/2000/svg">
<path d="M1.66667 0.75H16.3333C16.5764 0.75 16.8096 0.846577 16.9815 1.01849C17.1534 1.19039 17.25 1.42355 17.25 1.66667V3.1205C17.2499 3.3636 17.1533 3.59672 16.9814 3.76858L11.1019 9.64808C10.93 9.81995 10.8334 10.0531 10.8333 10.2962V16.0757C10.8333 16.2151 10.8016 16.3526 10.7404 16.4778C10.6793 16.603 10.5905 16.7127 10.4806 16.7984C10.3708 16.8841 10.2428 16.9437 10.1065 16.9725C9.97018 17.0014 9.82908 16.9988 9.69392 16.9649L7.86058 16.5066C7.66236 16.4569 7.48641 16.3425 7.36068 16.1814C7.23496 16.0203 7.16667 15.8218 7.16667 15.6174V10.2962C7.16661 10.0531 7.07 9.81995 6.89808 9.64808L1.01858 3.76858C0.846663 3.59672 0.750052 3.3636 0.75 3.1205V1.66667C0.75 1.42355 0.846577 1.19039 1.01849 1.01849C1.19039 0.846577 1.42355 0.75 1.66667 0.75Z" stroke="#54585A" stroke-width="1.5" stroke-linecap="round" stroke-linejoin="round"/>
</svg>
